<svg width="500" height="371" viewBox="0 0 500 371" fill="none" xmlns="http://www.w3.org/2000/svg">
<path d="M286.112 78.6329C286.416 79.6836 286.603 80.444 286.63 80.5545C286.77 81.0812 286.977 81.5877 287.246 82.0616C287.315 82.186 287.377 82.3173 287.439 82.4487C297.186 82.2896 306.935 82.1007 316.687 81.8818C317.115 81.391 317.523 80.9555 317.903 80.5545C318.366 80.0638 318.795 79.6421 319.189 79.2827C308.163 79.0269 297.138 78.8103 286.112 78.6329ZM310.396 273.017C285.891 272.001 261.392 271.448 236.894 271.164L218.52 270.998C212.402 270.929 206.278 270.922 200.153 270.922C194.028 270.929 187.904 270.888 181.779 270.929L163.412 271.081L145.038 271.365L140.448 271.434L138.153 271.475L137.158 271.489L137.151 270.625L137.096 266.028C136.951 253.779 136.84 241.536 136.564 229.287L135.61 192.546C135.319 180.297 135.07 168.048 135.07 155.799C135.008 149.674 135.112 143.557 135.133 137.432C135.236 131.307 135.305 125.183 135.492 119.058L136.591 83.1607C136.605 83.1373 136.626 83.1184 136.65 83.1062C136.675 83.094 136.702 83.0889 136.729 83.0915C136.741 83.0905 136.753 83.0929 136.764 83.0985H136.778L136.944 83.1053L138.091 83.1192L142.681 83.1607L151.868 83.2436L161.055 83.3196L170.242 83.3404C182.491 83.3957 194.733 83.3196 206.983 83.2644L225.357 83.1814L243.723 83.0086C250.691 82.9602 257.659 82.8865 264.627 82.7874C264.544 82.5593 264.468 82.3242 264.399 82.0892C264.249 81.5883 264.144 81.0746 264.088 80.5546C263.993 79.8031 264.068 79.0399 264.309 78.3218C257.445 78.225 250.583 78.1513 243.723 78.1006L225.357 77.9277L206.983 77.8448C194.733 77.7895 182.491 77.7134 170.242 77.7688L161.055 77.7895L151.868 77.8655L142.681 77.9485L138.091 77.99L136.944 78.0038L136.799 78.0107L136.536 78.0176C135.977 78.0603 135.428 78.1838 134.904 78.384C134.216 78.6625 133.596 79.0856 133.085 79.6246C132.575 80.1637 132.186 80.8062 131.946 81.5085C131.825 81.8576 131.743 82.2194 131.704 82.5869C131.682 82.7681 131.67 82.9505 131.669 83.133L131.676 83.3196V83.4648L131.704 84.6123L131.766 86.9073L131.891 91.5043L132.174 100.684L132.727 119.058C132.914 125.183 132.983 131.307 133.093 137.432C133.107 143.557 133.211 149.674 133.156 155.799C133.156 168.048 132.907 180.297 132.616 192.546L131.662 229.287C131.379 241.536 131.268 253.779 131.123 266.028L131.075 270.625L131.061 271.772V271.911L131.068 272.208C131.075 272.408 131.096 272.609 131.123 272.816C131.185 273.223 131.292 273.622 131.441 274.005C131.736 274.778 132.195 275.477 132.785 276.056C133.376 276.635 134.085 277.079 134.863 277.358C135.252 277.499 135.655 277.597 136.066 277.648C136.27 277.675 136.475 277.691 136.681 277.697L137.04 277.703H138.188L140.483 277.71L145.08 277.717L163.454 277.724L181.821 277.614C187.945 277.558 194.07 277.434 200.195 277.344C206.319 277.254 212.437 277.157 218.562 277.005L236.935 276.563C261.427 275.92 285.912 275.014 310.403 273.639C310.482 273.634 310.557 273.598 310.611 273.54C310.665 273.481 310.695 273.404 310.694 273.324C310.693 273.245 310.662 273.169 310.606 273.111C310.551 273.054 310.476 273.02 310.396 273.017L310.396 273.017ZM281.397 78.5568C281.086 78.5499 280.782 78.5499 280.471 78.543C279.662 78.5291 278.854 78.5222 278.045 78.5084C278.163 78.6743 278.29 78.8336 278.425 78.9854C279.704 80.444 281.169 79.9532 281.397 78.8955C281.415 78.7833 281.415 78.669 281.397 78.5568H281.397Z" fill="white"/>
<path d="M324.126 44.4702C324.133 44.5088 324.173 44.4856 324.148 44.5115L324.104 44.5796L324.018 44.7173C323.962 44.8108 323.904 44.9017 323.853 44.9977C323.745 45.186 323.645 45.3786 323.55 45.5733C323.36 45.9626 323.187 46.3586 323.033 46.7615C322.732 47.5652 322.527 48.402 322.425 49.2542C322.211 50.9352 322.458 52.6426 323.138 54.1947L323.144 54.209C323.153 54.2322 323.159 54.2563 323.164 54.2809C323.342 55.0823 323.338 55.9136 323.151 56.7131C323.081 56.9259 322.986 57.1294 322.867 57.3191L322.593 57.7955L322.059 58.754C321.884 59.0736 321.716 59.3956 321.565 59.7154C321.491 59.8747 321.42 60.0351 321.365 60.1853C321.339 60.2523 321.318 60.3205 321.3 60.3899C321.295 60.4137 321.291 60.4394 321.291 60.4394C321.281 60.4419 321.322 60.4159 321.229 60.2376C321.166 60.1398 321.069 60.0696 320.956 60.0414L321.01 60.0532L321.125 60.0746L321.369 60.1078C321.535 60.1257 321.702 60.1354 321.869 60.1366C322.185 60.1441 322.501 60.1066 322.806 60.0252C322.936 59.9868 323.075 59.9969 323.198 60.0534C323.321 60.1099 323.419 60.209 323.474 60.3324L323.483 60.3519C323.933 61.3488 324.457 62.3103 325.052 63.2281C325.635 64.1395 326.309 64.9891 327.064 65.7638C327.764 66.5176 328.637 67.0903 329.607 67.4329C330.075 67.5758 330.567 67.6244 331.053 67.5759C331.54 67.5273 332.012 67.3827 332.443 67.1502L332.479 67.1326C332.59 67.0786 332.716 67.0651 332.835 67.0942C332.955 67.1234 333.061 67.1935 333.134 67.2924C333.749 68.1186 334.32 68.9769 334.844 69.8637C335.108 70.3139 335.348 70.7775 335.564 71.2528C335.815 71.7612 335.961 72.3144 335.995 72.8801L335.854 72.5759L339.996 76.2916C341.382 77.5229 342.78 78.7413 344.189 79.9468L348.44 83.5337C349.852 84.7357 351.295 85.9003 352.727 87.0782L352.176 87.3036L352.693 79.419L353.273 71.5399L353.515 72.0949C352.585 71.3734 351.72 70.6248 350.863 69.8416C350.012 69.0576 349.183 68.247 348.401 67.3832C347.603 66.5228 346.867 65.6077 346.197 64.6447C345.498 63.657 344.937 62.5785 344.529 61.4391L344.874 61.8559C343.728 61.2158 342.616 60.518 341.541 59.765C341.006 59.3766 340.48 58.9686 339.971 58.5158C339.392 58.0359 338.917 57.4422 338.576 56.7714C338.518 56.648 338.499 56.5098 338.522 56.3754C338.546 56.2411 338.61 56.1172 338.706 56.0207L338.748 55.9792C339.094 55.6176 339.374 55.1989 339.576 54.7416C339.786 54.2717 339.918 53.7708 339.967 53.2585C340.006 52.7379 339.963 52.2145 339.841 51.7069C339.774 51.4475 339.691 51.1927 339.591 50.9443C339.506 50.7049 339.397 50.4745 339.267 50.2563C339.038 49.8626 338.675 49.5648 338.244 49.4177C337.813 49.2707 337.343 49.2843 336.921 49.4561C336.117 49.8135 335.768 50.9441 335.672 52.038L335.669 52.069C335.664 52.1329 335.646 52.1951 335.616 52.2519C335.586 52.3088 335.546 52.3593 335.497 52.4005C335.448 52.4417 335.391 52.4728 335.33 52.4921C335.269 52.5114 335.204 52.5184 335.14 52.5128C335.118 52.5107 335.096 52.5072 335.074 52.5024C333.911 52.2295 332.77 51.8678 331.663 51.4205C330.554 50.9877 329.488 50.4537 328.477 49.8252C327.461 49.1973 326.541 48.4257 325.746 47.5345C324.965 46.6596 324.409 45.6079 324.126 44.4702ZM324.152 44.3345C324.591 45.4201 325.235 46.411 326.049 47.2532C326.872 48.0472 327.801 48.7239 328.809 49.2639C329.812 49.818 330.864 50.2784 331.952 50.6392C333.03 51.0108 334.135 51.3001 335.258 51.5047L334.66 51.9689C334.679 51.3176 334.804 50.6738 335.03 50.0625C335.276 49.3705 335.768 48.7932 336.412 48.4408C336.745 48.2711 337.109 48.1688 337.482 48.1399C337.855 48.111 338.231 48.1559 338.586 48.2722C339.282 48.5014 339.884 48.9519 340.301 49.5549C340.488 49.8387 340.646 50.141 340.772 50.457C340.903 50.7556 341.014 51.0625 341.104 51.3758C341.281 52.0195 341.356 52.687 341.325 53.354C341.284 54.028 341.125 54.6895 340.855 55.3084C340.586 55.9444 340.201 56.525 339.721 57.0208L339.893 56.2288C340.166 56.6889 340.52 57.0961 340.938 57.4307C341.394 57.8248 341.889 58.1986 342.398 58.5575C343.426 59.2795 344.49 59.9497 345.585 60.5654C345.747 60.6574 345.87 60.8058 345.93 60.9823C346.299 61.99 346.791 62.9485 347.394 63.8362C348.011 64.7567 348.692 65.633 349.431 66.4589C350.165 67.2998 350.954 68.0993 351.766 68.8747C352.579 69.645 353.427 70.4045 354.287 71.0959L354.304 71.1094C354.384 71.174 354.446 71.2572 354.485 71.3518C354.525 71.4463 354.54 71.5491 354.53 71.6511L353.718 79.5096L352.844 87.3626L352.842 87.3765C352.835 87.437 352.812 87.4944 352.775 87.5426C352.738 87.5908 352.688 87.6278 352.631 87.6496C352.575 87.6715 352.513 87.6773 352.453 87.6664C352.393 87.6556 352.337 87.6285 352.292 87.5881C350.905 86.3572 349.529 85.1129 348.122 83.9061L343.915 80.2666C342.502 79.0665 341.08 77.876 339.651 76.6953L335.334 73.1845C335.295 73.1524 335.262 73.1126 335.239 73.0675C335.215 73.0224 335.201 72.9729 335.197 72.9222L335.194 72.8801C335.131 72.4391 334.987 72.0134 334.77 71.6244C334.547 71.1912 334.301 70.7699 334.034 70.3622C333.489 69.5364 332.902 68.74 332.273 67.9761L332.964 68.1183C332.411 68.4298 331.806 68.6385 331.179 68.7342C330.539 68.8224 329.887 68.7737 329.267 68.5915C328.092 68.2121 327.033 67.5412 326.188 66.6415C325.368 65.8035 324.648 64.8728 324.042 63.8681C323.43 62.8827 322.894 61.8519 322.44 60.7848L323.116 61.1114C322.703 61.2169 322.276 61.2617 321.849 61.2446C321.645 61.2391 321.442 61.2234 321.239 61.1974L320.933 61.1495L320.775 61.117L320.694 61.0974C320.619 61.0764 320.547 61.0437 320.482 61.0004C320.414 60.9534 320.356 60.8925 320.312 60.8217C320.226 60.6806 320.19 60.5143 320.211 60.3502C320.218 60.2746 320.232 60.1997 320.251 60.1262C320.281 60.0163 320.317 59.9082 320.359 59.8023C320.436 59.606 320.52 59.4285 320.605 59.2535C320.778 58.9054 320.96 58.5732 321.147 58.2451C321.333 57.9162 321.528 57.5953 321.73 57.2784L322.034 56.804C322.12 56.6846 322.191 56.5547 322.245 56.4173C322.415 55.7709 322.444 55.0956 322.331 54.4369L322.356 54.5228C321.865 53.2431 321.638 51.8774 321.688 50.5077C321.719 50.057 321.779 49.6088 321.866 49.1654C322.038 48.2866 322.315 47.4316 322.69 46.6184C322.876 46.2151 323.086 45.8231 323.317 45.4442C323.434 45.2555 323.554 45.0698 323.682 44.8892C323.743 44.7972 323.812 44.7099 323.877 44.6208L323.979 44.4893L324.031 44.4242C324.061 44.3826 324.104 44.3513 324.152 44.3345Z" fill="white"/>
<path d="M337.842 58.748C337.795 59.9812 337.55 61.1987 337.116 62.3541C336.904 62.9395 336.632 63.5014 336.305 64.0306C336.136 64.3017 335.935 64.552 335.708 64.7766C335.6 64.8999 335.468 64.999 335.319 65.0671C335.17 65.1352 335.008 65.1708 334.845 65.1716C335.109 65.0439 335.321 64.829 335.444 64.5631C335.588 64.3092 335.717 64.0467 335.828 63.777C336.053 63.2326 336.265 62.6771 336.468 62.1148C336.867 60.9692 337.326 59.8454 337.842 58.748Z" fill="white"/>
<path d="M322.389 53.3546C322.67 53.129 322.991 52.9594 323.336 52.8551C323.674 52.7451 324.026 52.6807 324.382 52.6636C324.744 52.6514 325.106 52.6953 325.455 52.7938C325.81 52.8939 326.132 53.0876 326.387 53.3547L325.372 53.3269C325.048 53.3362 324.731 53.3381 324.409 53.354C323.736 53.3964 323.062 53.3967 322.389 53.3546Z" fill="white"/>
<path d="M324.904 64.0904C325.506 63.678 326.084 63.2321 326.637 62.7547C326.883 62.522 327.103 62.2633 327.293 61.9831C327.486 61.6703 327.648 61.34 327.779 60.9966C327.913 61.3894 327.914 61.8152 327.783 62.2089C327.646 62.6074 327.416 62.9671 327.11 63.2573C326.809 63.532 326.459 63.7484 326.078 63.8954C325.706 64.048 325.305 64.1147 324.904 64.0904Z" fill="white"/>
<path d="M324.995 56.647C325.256 56.638 325.502 56.5283 325.683 56.341C325.864 56.1538 325.965 55.9037 325.965 55.6433C325.965 55.383 325.864 55.1329 325.683 54.9456C325.502 54.7584 325.256 54.6487 324.995 54.6396C324.735 54.6487 324.489 54.7584 324.308 54.9456C324.127 55.1329 324.026 55.383 324.026 55.6433C324.026 55.9037 324.127 56.1538 324.308 56.341C324.489 56.5283 324.735 56.638 324.995 56.647Z" fill="white"/>
<path d="M345.229 61.2107C356.034 56.9566 347.156 41.94 347.156 41.94C348.869 43.6529 357.113 34.8741 347.156 32.6258C337.2 30.3776 340.091 38.3 340.091 38.3C328.849 34.9811 324.139 44.4024 324.139 44.4024C324.139 44.4024 324.972 49.2618 335.166 52.0036C335.166 52.0036 335.742 46.5814 339.762 49.8753C340.453 50.8706 340.778 52.0744 340.682 53.2821C340.585 54.4898 340.074 55.6269 339.234 56.5001C339.234 56.5001 344.151 61.6354 345.229 61.2107Z" fill="white"/>
<path d="M335.601 72.9489C333.374 73.2818 331.169 73.7434 328.996 74.3312C327.921 74.6152 326.867 74.9726 325.841 75.4008C324.862 75.7441 324.004 76.3621 323.368 77.1809L323.186 76.5373C324.382 77.2679 325.412 78.2406 326.209 79.3929C326.613 79.9519 326.975 80.54 327.292 81.1525C327.58 81.7744 327.853 82.4104 328.082 83.056C328.917 85.666 329.15 88.4308 328.766 91.1439C328.729 91.4804 328.707 91.8197 328.658 92.1538L328.453 93.1445L328.025 95.1207C327.603 96.3945 327.239 97.6914 326.735 98.9294C326.191 100.15 325.714 101.401 325.115 102.59L323.258 106.122L323.262 105.809C324.347 108.086 325.454 110.352 326.582 112.607L326.465 112.501C327.949 113.041 329.465 113.49 331.004 113.846C332.54 114.222 334.094 114.523 335.654 114.778C338.776 115.248 341.933 115.448 345.09 115.374L347.446 115.266L349.786 115.01C351.338 114.807 352.879 114.526 354.402 114.168L356.662 113.555C357.409 113.331 358.128 113.025 358.862 112.765L359.957 112.36C360.313 112.205 360.656 112.02 361.007 111.851L363.098 110.82L362.786 111.181C363.877 108.001 364.801 104.766 365.553 101.49C366.331 98.2258 366.861 94.908 367.139 91.5644C367.378 88.2481 367.327 84.845 366.287 81.7285C365.804 80.1735 364.974 78.7487 363.859 77.5618C362.697 76.4039 361.251 75.5727 359.665 75.152L359.644 75.1461C359.625 75.1405 359.607 75.1325 359.589 75.1222L353.867 71.6557C353.852 71.6464 353.841 71.6315 353.836 71.6141C353.832 71.5968 353.834 71.5783 353.843 71.5627C353.852 71.5471 353.866 71.5354 353.883 71.5303C353.9 71.5251 353.919 71.5268 353.935 71.535L359.882 74.5991L359.806 74.5694C361.539 74.9368 363.141 75.7598 364.449 76.9533C365.733 78.1812 366.708 79.6952 367.294 81.3717C368.505 84.6905 368.645 88.2225 368.501 91.6493C368.288 95.0764 367.784 98.479 366.993 101.82C366.228 105.159 365.253 108.446 364.073 111.661L364.06 111.695C364.007 111.839 363.9 111.957 363.761 112.023L361.564 113.064C361.196 113.233 360.835 113.419 360.462 113.574L359.318 113.978C358.552 114.236 357.799 114.54 357.023 114.759L354.671 115.336C351.525 116.008 348.312 116.314 345.095 116.249C341.899 116.183 338.714 115.86 335.57 115.283C332.426 114.735 329.329 113.942 326.309 112.911C326.26 112.895 326.219 112.86 326.195 112.813L326.191 112.806C325.039 110.562 323.862 108.332 322.66 106.114C322.637 106.071 322.624 106.022 322.622 105.973C322.62 105.923 322.63 105.874 322.651 105.829L322.664 105.801L324.335 102.23C324.872 101.034 325.282 99.787 325.761 98.5715C325.984 97.9583 326.174 97.3342 326.333 96.7016L326.882 94.828L327.249 92.9194L327.442 91.9678C327.487 91.6486 327.505 91.3267 327.539 91.0064C327.905 88.4646 327.723 85.8736 327.003 83.4082C326.801 82.809 326.56 82.2197 326.306 81.6411C326.025 81.0746 325.703 80.5297 325.342 80.0107C324.643 78.9747 323.759 78.076 322.735 77.3595L322.684 77.3248C322.587 77.2601 322.519 77.1603 322.495 77.0465C322.471 76.9328 322.492 76.8142 322.554 76.7157C322.912 76.1841 323.389 75.7441 323.948 75.4311C324.457 75.1322 324.989 74.8773 325.541 74.6691C326.617 74.2694 327.721 73.95 328.844 73.7134C331.068 73.254 333.321 72.9526 335.587 72.8113C335.606 72.8102 335.623 72.8164 335.637 72.8286C335.651 72.8408 335.659 72.8579 335.66 72.8762C335.661 72.8935 335.655 72.9104 335.644 72.9238C335.633 72.9372 335.618 72.9461 335.601 72.9489Z" fill="white"/>
<path d="M288.586 91.2488C290.619 91.1105 292.658 90.9999 294.69 90.9101C298.368 90.7372 302.038 90.6405 305.716 90.5644C307.175 90.5437 308.633 90.5299 310.092 90.5229C309.788 90.9584 309.49 91.4009 309.179 91.864C308.032 91.8986 306.884 91.9262 305.737 91.947C302.066 91.9953 298.389 92.0299 294.711 91.9884C292.782 91.9677 290.861 91.9331 288.932 91.8778L288.586 91.2488Z" fill="white"/>
<path d="M302.681 102.164C302.592 102.309 302.502 102.454 302.419 102.606L300.919 102.682C299.709 102.744 298.499 102.793 297.29 102.834C297.103 102.627 296.916 102.412 296.723 102.191C298.119 102.164 299.508 102.143 300.905 102.15L302.681 102.164Z" fill="white"/>
<path d="M269.324 89.6883C267.447 89.7343 265.572 89.7643 263.703 89.8625C262.769 89.9089 261.837 89.9828 260.915 90.0681C260.455 90.1146 259.996 90.1694 259.553 90.2511C259.34 90.2882 259.129 90.3388 258.921 90.4025C258.836 90.4278 258.753 90.4617 258.675 90.5039C258.658 90.5124 258.642 90.5234 258.629 90.5364C258.65 90.5182 258.666 90.4956 258.678 90.4703C258.689 90.4449 258.694 90.4174 258.694 90.3897L258.243 90.8089C258.109 90.8193 257.976 90.8451 257.847 90.8858C257.741 90.9165 257.641 90.968 257.555 91.0372C257.531 91.0579 257.512 91.0831 257.499 91.1112C257.485 91.1394 257.477 91.1699 257.475 91.2012C257.47 91.3001 257.485 91.399 257.519 91.4921C257.547 91.5976 257.541 91.709 257.504 91.8114C257.467 91.9139 257.399 92.0026 257.31 92.0657C257.136 92.1904 256.973 92.3298 256.823 92.4825C256.681 92.6228 256.56 92.7818 256.461 92.9552C256.39 93.0719 256.357 93.2081 256.367 93.3445C256.396 93.464 256.463 93.5711 256.557 93.65C256.66 93.75 256.72 93.8858 256.726 94.0293C256.731 94.1727 256.681 94.3127 256.586 94.4201L256.564 94.4442C256.163 94.8947 255.839 95.598 255.987 95.9065C256.083 96.1105 256.252 96.2709 256.461 96.3557C256.587 96.4198 256.719 96.4726 256.855 96.5135L257.401 96.6505C258.862 97.0073 260.327 97.3501 261.795 97.6789C263.264 98.0006 264.737 98.2974 266.209 98.5324C266.944 98.6539 267.68 98.7622 268.409 98.8327C269.099 98.9192 269.796 98.925 270.487 98.8502L270.495 98.849C270.641 98.8261 270.791 98.8519 270.921 98.9225C271.051 98.993 271.154 99.1044 271.215 99.2394C271.275 99.3745 271.29 99.5257 271.256 99.6697C271.222 99.8138 271.142 99.9427 271.028 100.037C270.254 100.683 269.558 101.417 268.954 102.224C268.352 102.986 267.937 103.878 267.742 104.829C267.673 105.272 267.698 105.725 267.814 106.159C267.93 106.592 268.136 106.996 268.417 107.345C268.527 107.483 268.673 107.589 268.839 107.651C269.004 107.713 269.184 107.728 269.357 107.696C269.76 107.609 270.115 107.374 270.351 107.037C270.481 106.863 270.583 106.669 270.654 106.463C270.691 106.359 270.72 106.252 270.74 106.144L270.84 105.694C271.028 105.106 271.374 104.58 271.841 104.174C272.728 103.423 273.821 102.957 274.977 102.837C275.548 102.737 276.136 102.783 276.685 102.968C276.821 103.021 276.953 103.082 277.082 103.149C277.197 103.221 277.32 103.279 277.448 103.321C277.686 103.415 277.934 103.479 278.187 103.513C279.237 103.643 280.3 103.431 281.221 102.909C280.334 103.559 279.251 103.885 278.152 103.832C277.595 103.82 277.047 103.545 276.559 103.582C276.065 103.571 275.571 103.589 275.079 103.636C274.098 103.756 273.175 104.166 272.428 104.813C272.088 105.117 271.837 105.509 271.704 105.945L271.639 106.28C271.62 106.435 271.588 106.589 271.545 106.74C271.46 107.046 271.325 107.335 271.146 107.597C270.78 108.158 270.215 108.558 269.565 108.718C269.213 108.795 268.847 108.78 268.503 108.672C268.158 108.565 267.848 108.37 267.603 108.105C267.184 107.642 266.871 107.093 266.684 106.496C266.506 105.902 266.455 105.276 266.535 104.661C266.73 103.503 267.196 102.407 267.896 101.464C268.551 100.543 269.322 99.7095 270.19 98.9855L270.731 100.172C269.919 100.278 269.097 100.285 268.284 100.191C267.507 100.121 266.744 100.017 265.987 99.8963C264.475 99.6416 262.985 99.3275 261.502 98.9891C260.018 98.6533 258.544 98.2815 257.08 97.8739L256.53 97.7204C256.304 97.6505 256.085 97.5581 255.878 97.4446C255.395 97.2052 255.023 96.7877 254.841 96.2798C254.7 95.7699 254.754 95.2261 254.991 94.7534C255.181 94.3487 255.436 93.9785 255.748 93.6579L255.755 94.4519C255.486 94.1856 255.316 93.8358 255.272 93.4599C255.248 93.0966 255.339 92.7349 255.531 92.4261C255.688 92.1718 255.879 91.9404 256.099 91.7387C256.306 91.5453 256.53 91.3713 256.768 91.2186L256.559 91.7921C256.484 91.5475 256.466 91.2891 256.506 91.0364C256.557 90.7469 256.711 90.4855 256.939 90.3001C257.132 90.15 257.355 90.0431 257.593 89.9865C257.806 89.9324 258.024 89.9053 258.243 89.906L257.793 90.3251C257.812 90.1521 257.895 89.9925 258.026 89.8782C258.101 89.8144 258.184 89.7607 258.273 89.7186C258.405 89.657 258.543 89.6089 258.684 89.575C258.929 89.5147 259.178 89.4702 259.429 89.4416C259.914 89.3819 260.389 89.3544 260.864 89.3347C261.813 89.293 262.756 89.3184 263.697 89.3428C265.579 89.4034 267.454 89.5035 269.324 89.6883Z" fill="white"/>
<path d="M267.825 91.8829C266.203 91.8321 264.587 91.6626 262.989 91.376C262.194 91.2353 261.4 91.089 260.611 90.9136C259.819 90.7479 259.04 90.5408 258.244 90.3573C259.058 90.2801 259.879 90.2879 260.692 90.3804C261.503 90.4479 262.305 90.5656 263.105 90.6948C264.71 90.9526 266.289 91.3502 267.825 91.8829Z" fill="white"/>
<path d="M257.039 91.6421C258.64 91.6886 260.232 91.8795 261.799 92.2127C262.579 92.3778 263.357 92.5582 264.125 92.7862C264.51 92.8989 264.891 93.0247 265.27 93.1636C265.658 93.287 266.024 93.472 266.353 93.7116C265.971 93.6042 265.58 93.5308 265.185 93.4922L264.006 93.3123C263.22 93.1929 262.44 93.0423 261.66 92.8896C260.092 92.5863 258.547 92.1693 257.039 91.6421Z" fill="white"/>
<path d="M256.156 94.0508C258.066 94.0655 259.971 94.2472 261.849 94.594C262.787 94.7661 263.723 94.9617 264.645 95.225C265.59 95.4299 266.485 95.8224 267.277 96.3793C266.845 96.188 266.388 96.0593 265.92 95.9972L264.526 95.7511L261.728 95.274C259.865 94.9301 258 94.582 256.156 94.0508Z" fill="white"/>
<path d="M335.238 71.5953C338.335 71.7111 341.341 72.0067 344.344 72.0877C345.833 72.1554 347.326 72.1321 348.813 72.0178C350.313 71.9478 351.787 71.6009 353.162 70.9946C352.011 72.0986 350.552 72.8271 348.978 73.0838C347.441 73.4067 345.87 73.536 344.301 73.4688C342.749 73.4122 341.205 73.2295 339.683 72.9225C338.16 72.6324 336.671 72.1877 335.238 71.5953Z" fill="white"/>
<path d="M328.282 113.333C328.526 114.777 328.642 116.239 328.627 117.703C328.644 119.168 328.528 120.63 328.282 122.074C328.036 120.63 327.92 119.168 327.937 117.703C327.922 116.239 328.037 114.777 328.282 113.333Z" fill="white"/>
<path d="M359.284 113.333C359.528 114.479 359.644 115.649 359.63 116.82C359.646 117.992 359.53 119.161 359.284 120.307C359.039 119.161 358.923 117.992 358.939 116.82C358.925 115.649 359.04 114.479 359.284 113.333Z" fill="white"/>
<path d="M311.72 292.459C311.077 300.81 291.807 309.16 287.31 309.963C282.814 310.766 285.383 311.89 285.383 311.89C285.383 311.89 306.099 316.869 330.188 296.634C330.188 296.634 331.794 293.102 330.188 291.014C328.582 288.926 329.948 286.577 329.948 286.577" stroke="white" stroke-width="1.24903" stroke-linecap="round" stroke-linejoin="round"/>
<path d="M330.188 291.014C334.042 295.992 328.903 313.817 328.903 313.817H325.209V306.43C325.209 306.43 319.428 306.751 310.609 312.432C303.716 316.872 292.676 316.787 288.185 316.538C287.399 316.506 286.632 316.291 285.946 315.908C285.259 315.526 284.671 314.988 284.231 314.337C282.001 310.917 287.31 309.963 287.31 309.963C287.31 309.963 288.583 310.4 294.065 309.393C305.76 307.213 316.71 302.101 325.891 294.536L330.188 291.014Z" fill="white"/>
<path d="M300.166 304.503C300.863 304.662 301.492 305.036 301.963 305.574C302.437 306.097 302.778 306.726 302.957 307.408C303.151 308.103 303.151 308.838 302.96 309.534C302.781 310.239 302.36 310.858 301.771 311.283C301.556 310.551 301.482 309.986 301.331 309.448C301.209 308.917 301.089 308.432 300.952 307.936L300.552 306.379C300.414 305.822 300.277 305.238 300.166 304.503Z" fill="white"/>
<path d="M307.31 299.504C308.195 299.78 308.999 300.269 309.652 300.928C310.315 301.576 310.85 302.344 311.226 303.193C311.605 304.075 311.774 305.033 311.718 305.992C311.656 306.953 311.265 307.864 310.609 308.57C310.483 307.746 310.311 306.929 310.093 306.124C309.868 305.395 309.612 304.712 309.322 304.013C309.015 303.321 308.686 302.62 308.34 301.886C307.995 301.149 307.642 300.39 307.31 299.504Z" fill="white"/>
<path d="M361.212 288.258C360.569 296.608 341.298 304.959 336.802 305.762C332.305 306.565 334.875 307.689 334.875 307.689C334.875 307.689 355.591 312.667 379.679 292.433C379.679 292.433 381.285 288.9 379.679 286.812C378.073 284.725 379.44 282.375 379.44 282.375" stroke="white" stroke-width="1.24903" stroke-linecap="round" stroke-linejoin="round"/>
<path d="M379.679 286.812C383.533 291.791 378.395 309.616 378.395 309.616H374.701V302.229C374.701 302.229 368.92 302.55 360.101 308.231C353.207 312.671 342.168 312.586 337.676 312.337C336.891 312.305 336.124 312.089 335.437 311.707C334.751 311.325 334.163 310.787 333.722 310.136C331.492 306.716 336.802 305.762 336.802 305.762C336.802 305.762 338.075 306.198 343.556 305.192C355.251 303.012 366.202 297.9 375.383 290.335L379.679 286.812Z" fill="white"/>
<path d="M349.658 300.302C350.355 300.46 350.984 300.835 351.455 301.372C351.929 301.895 352.269 302.524 352.449 303.206C352.642 303.901 352.643 304.636 352.451 305.332C352.273 306.037 351.852 306.656 351.262 307.081C351.048 306.349 350.974 305.785 350.823 305.247C350.701 304.716 350.581 304.23 350.444 303.734L350.044 302.178C349.906 301.62 349.769 301.036 349.658 300.302Z" fill="white"/>
<path d="M356.802 295.303C357.687 295.578 358.491 296.067 359.143 296.726C359.807 297.374 360.341 298.143 360.718 298.991C361.097 299.873 361.266 300.831 361.21 301.79C361.148 302.751 360.756 303.662 360.101 304.368C359.975 303.544 359.803 302.727 359.585 301.922C359.359 301.193 359.104 300.51 358.814 299.811C358.507 299.119 358.178 298.419 357.831 297.685C357.486 296.947 357.133 296.188 356.802 295.303Z" fill="white"/>
<path d="M113.767 311.016C112.844 302.735 112.364 294.454 112.019 286.173C111.938 284.103 111.861 282.033 111.806 279.962L111.783 279.186L111.771 278.798C111.769 278.662 111.76 278.569 111.768 278.336C111.782 277.521 111.977 276.719 112.339 275.988C112.705 275.252 113.227 274.604 113.869 274.09C114.51 273.576 115.256 273.208 116.054 273.011C116.449 272.917 116.852 272.862 117.257 272.847L118.034 272.82L119.588 272.77L122.695 272.671L128.911 272.522L135.128 272.429C136.163 272.418 137.201 272.417 138.244 272.438L139.806 272.458L140.21 272.464C140.415 272.475 140.622 272.48 140.826 272.508C141.236 272.561 141.64 272.659 142.029 272.799C142.803 273.078 143.507 273.522 144.092 274.101C144.677 274.679 145.128 275.379 145.414 276.15C145.558 276.532 145.657 276.929 145.709 277.334C145.757 277.69 145.773 278.051 145.756 278.41L145.71 279.962C145.654 282.033 145.58 284.103 145.497 286.173C145.153 294.454 144.672 302.735 143.743 311.016C142.814 302.735 142.333 294.454 141.989 286.173C141.907 284.103 141.832 282.033 141.776 279.962L141.73 278.41C141.734 278.251 141.72 278.093 141.689 277.938C141.67 277.829 141.637 277.724 141.59 277.624C141.503 277.426 141.373 277.25 141.211 277.107C141.048 276.964 140.856 276.859 140.648 276.798C140.548 276.77 140.445 276.752 140.342 276.744L140.183 276.74L139.811 276.744L138.268 276.764C137.241 276.77 136.208 276.797 135.174 276.835L128.971 276.981L117.004 277.123C116.791 277.164 116.589 277.25 116.412 277.375C116.235 277.501 116.087 277.663 115.979 277.851C115.87 278.046 115.802 278.262 115.778 278.484C115.767 278.588 115.761 278.693 115.762 278.798L115.75 279.186L115.727 279.962C115.673 282.033 115.595 284.103 115.514 286.173C115.169 294.454 114.69 302.735 113.767 311.016Z" fill="white"/>
<path d="M114.195 318.189C124.528 318.189 124.545 302.13 114.195 302.13C103.862 302.13 103.844 318.189 114.195 318.189Z" fill="white"/>
<path d="M144.172 318.618C154.505 318.618 154.522 302.559 144.172 302.559C133.839 302.559 133.822 318.618 144.172 318.618Z" fill="white"/>
<path d="M145.67 78.5363C145.788 77.4637 146.007 76.4047 146.326 75.3739C146.492 74.8483 146.693 74.3348 146.929 73.8369C147.174 73.2914 147.525 72.8002 147.962 72.3917C148.235 72.1373 148.577 71.9696 148.946 71.9096C149.344 71.8569 149.749 71.9477 150.087 72.1657C150.608 72.5251 151.043 72.9966 151.359 73.5456C151.921 74.5187 152.357 75.5599 152.654 76.6437C152.936 77.7183 153.101 78.8201 153.146 79.93C153.164 81.0526 153.115 82.0871 153.062 83.1574C152.96 85.2838 152.81 87.4103 152.522 89.5367C152.234 87.4103 152.084 85.2838 151.983 83.1574C151.909 82.1018 151.93 81.0083 151.839 80.0067C151.767 78.9917 151.593 77.9864 151.321 77.0059C151.069 76.0327 150.704 75.0926 150.232 74.205C150.041 73.8162 149.773 73.4704 149.444 73.1888C149.341 73.103 149.21 73.0565 149.076 73.0573C148.914 73.0662 148.759 73.1271 148.634 73.2309C148.267 73.524 147.955 73.8799 147.713 74.2822C147.431 74.7136 147.177 75.1625 146.953 75.6262C146.478 76.5602 146.075 77.5434 145.67 78.5363Z" fill="white"/>
<path d="M167.774 78.5363C167.892 77.4636 168.111 76.4047 168.43 75.3739C168.596 74.8483 168.797 74.3347 169.033 73.8369C169.278 73.2914 169.629 72.8001 170.066 72.3917C170.339 72.1373 170.681 71.9695 171.05 71.9096C171.448 71.857 171.853 71.9477 172.191 72.1657C172.712 72.5251 173.147 72.9966 173.463 73.5456C174.025 74.5187 174.46 75.5599 174.758 76.6437C175.04 77.7182 175.205 78.8201 175.25 79.93C175.268 81.0526 175.219 82.0871 175.166 83.1574C175.064 85.2838 174.914 87.4103 174.626 89.5367C174.338 87.4103 174.188 85.2838 174.087 83.1574C174.013 82.1018 174.034 81.0083 173.943 80.0067C173.871 78.9917 173.697 77.9864 173.425 77.0059C173.173 76.0327 172.808 75.0926 172.336 74.205C172.145 73.8161 171.877 73.4703 171.548 73.1888C171.445 73.103 171.314 73.0565 171.18 73.0573C171.018 73.0662 170.863 73.1271 170.738 73.2309C170.371 73.524 170.059 73.8799 169.817 74.2822C169.535 74.7135 169.281 75.1625 169.057 75.6262C168.581 76.5601 168.179 77.5434 167.774 78.5363Z" fill="white"/>
<path d="M192.782 78.5363C192.899 77.4637 193.119 76.4047 193.438 75.3739C193.603 74.8483 193.804 74.3348 194.04 73.8369C194.285 73.2913 194.637 72.8 195.074 72.3917C195.346 72.1373 195.689 71.9695 196.057 71.9096C196.456 71.857 196.86 71.9477 197.198 72.1657C197.719 72.5252 198.154 72.9966 198.47 73.5456C199.032 74.5187 199.468 75.5599 199.766 76.6437C200.047 77.7183 200.212 78.8201 200.257 79.93C200.276 81.0526 200.226 82.0871 200.173 83.1574C200.072 85.2838 199.921 87.4103 199.634 89.5367C199.346 87.4103 199.195 85.2838 199.094 83.1574C199.02 82.1018 199.042 81.0083 198.95 80.0067C198.878 78.9917 198.704 77.9864 198.432 77.0059C198.181 76.0327 197.815 75.0926 197.344 74.205C197.153 73.8161 196.884 73.4703 196.555 73.1888C196.452 73.103 196.321 73.0564 196.187 73.0573C196.025 73.0662 195.87 73.1271 195.745 73.2309C195.378 73.524 195.067 73.8799 194.824 74.2821C194.543 74.7136 194.289 75.1625 194.064 75.6262C193.589 76.5601 193.186 77.5434 192.782 78.5363Z" fill="white"/>
<path d="M219.068 78.5363C219.186 77.4636 219.405 76.4047 219.724 75.3739C219.89 74.8483 220.091 74.3347 220.327 73.8369C220.572 73.2914 220.923 72.8001 221.36 72.3917C221.633 72.1373 221.975 71.9696 222.344 71.9096C222.742 71.857 223.147 71.9477 223.485 72.1657C224.006 72.5251 224.441 72.9966 224.757 73.5456C225.319 74.5187 225.754 75.5599 226.052 76.6437C226.334 77.7183 226.499 78.8201 226.544 79.93C226.562 81.0526 226.513 82.0871 226.46 83.1574C226.358 85.2838 226.208 87.4103 225.92 89.5367C225.632 87.4103 225.482 85.2838 225.381 83.1574C225.307 82.1018 225.328 81.0083 225.237 80.0067C225.164 78.9917 224.991 77.9864 224.719 77.0059C224.467 76.0327 224.102 75.0926 223.63 74.205C223.439 73.8162 223.171 73.4704 222.842 73.1888C222.739 73.103 222.608 73.0565 222.474 73.0573C222.312 73.0662 222.157 73.1271 222.032 73.2309C221.665 73.524 221.353 73.8799 221.111 74.2822C220.829 74.7135 220.575 75.1625 220.351 75.6262C219.876 76.5601 219.473 77.5434 219.068 78.5363Z" fill="white"/>
<path d="M141.816 97.9847C143.388 96.1402 145.074 94.4219 146.786 92.7334C147.653 91.9009 148.511 91.0583 149.398 90.2483C150.282 89.4348 151.162 88.617 152.069 87.8288L152.081 87.8182C152.148 87.7601 152.225 87.7157 152.309 87.6876C152.393 87.6596 152.482 87.6483 152.57 87.6545C152.659 87.6607 152.745 87.6842 152.824 87.7237C152.903 87.7632 152.974 87.8179 153.032 87.8848C153.052 87.9076 153.07 87.9316 153.086 87.9567C154.148 89.5715 155.17 91.2123 156.154 92.879C156.651 93.7087 157.126 94.5535 157.597 95.4007C158.064 96.2506 158.521 97.1065 158.946 97.9847C158.3 97.254 157.687 96.5012 157.083 95.7424C156.484 94.9808 155.888 94.2169 155.314 93.4378C154.157 91.8869 153.038 90.3101 151.958 88.7075L152.976 88.8354C152.099 89.656 151.194 90.4469 150.294 91.2422C149.397 92.041 148.47 92.8071 147.552 93.5834C145.696 95.1123 143.813 96.6116 141.816 97.9847Z" fill="white"/>
<path d="M162.636 97.9847C164.207 96.1402 165.893 94.422 167.605 92.7334C168.472 91.9009 169.33 91.0583 170.217 90.2483C171.101 89.4348 171.981 88.617 172.888 87.8288L172.9 87.8182C172.967 87.7601 173.045 87.7157 173.129 87.6877C173.212 87.6596 173.301 87.6483 173.389 87.6545C173.478 87.6607 173.564 87.6842 173.643 87.7237C173.722 87.7632 173.793 87.818 173.851 87.8848C173.871 87.9076 173.889 87.9317 173.906 87.9567C174.967 89.5715 175.99 91.2123 176.973 92.879C177.471 93.7087 177.945 94.5535 178.416 95.4007C178.883 96.2506 179.341 97.1066 179.765 97.9847C179.119 97.254 178.506 96.5013 177.903 95.7424C177.303 94.9808 176.707 94.2169 176.134 93.4378C174.976 91.8869 173.857 90.3101 172.777 88.7075L173.795 88.8354C172.918 89.656 172.013 90.4469 171.113 91.2422C170.216 92.041 169.289 92.8071 168.372 93.5834C166.515 95.1123 164.632 96.6116 162.636 97.9847Z" fill="white"/>
<path d="M187.643 97.9847C189.214 96.1402 190.9 94.422 192.612 92.7334C193.479 91.9009 194.337 91.0583 195.224 90.2483C196.108 89.4348 196.988 88.617 197.895 87.8288L197.907 87.8182C197.974 87.7601 198.051 87.7157 198.135 87.6877C198.219 87.6596 198.308 87.6483 198.396 87.6545C198.485 87.6607 198.571 87.6842 198.65 87.7237C198.729 87.7632 198.8 87.818 198.858 87.8848C198.878 87.9076 198.896 87.9317 198.913 87.9567C199.974 89.5715 200.997 91.2123 201.98 92.879C202.477 93.7087 202.952 94.5535 203.423 95.4007C203.89 96.2506 204.348 97.1066 204.772 97.9847C204.126 97.254 203.513 96.5012 202.909 95.7424C202.31 94.9808 201.714 94.2169 201.14 93.4378C199.983 91.8869 198.864 90.3101 197.784 88.7075L198.802 88.8354C197.925 89.656 197.02 90.4469 196.12 91.2422C195.223 92.041 194.296 92.8071 193.379 93.5834C191.522 95.1123 189.639 96.6116 187.643 97.9847Z" fill="white"/>
<path d="M215.099 97.9847C216.671 96.1402 218.357 94.4219 220.069 92.7334C220.936 91.9009 221.793 91.0583 222.681 90.2483C223.565 89.4348 224.444 88.617 225.351 87.8288L225.364 87.8182C225.43 87.7601 225.508 87.7157 225.592 87.6876C225.676 87.6596 225.765 87.6483 225.853 87.6545C225.941 87.6607 226.028 87.6842 226.107 87.7237C226.186 87.7632 226.257 87.8179 226.315 87.8848C226.334 87.9076 226.353 87.9316 226.369 87.9567C227.431 89.5715 228.453 91.2123 229.437 92.879C229.934 93.7087 230.409 94.5535 230.879 95.4007C231.346 96.2506 231.804 97.1065 232.229 97.9847C231.583 97.254 230.97 96.5012 230.366 95.7424C229.766 94.9808 229.17 94.2169 228.597 93.4378C227.44 91.8869 226.321 90.3101 225.241 88.7075L226.259 88.8354C225.381 89.656 224.477 90.4469 223.577 91.2422C222.68 92.041 221.753 92.8071 220.835 93.5834C218.979 95.1123 217.096 96.6116 215.099 97.9847Z" fill="white"/>
<path d="M147.003 140.474H146.837C146.916 140.732 147.02 140.982 147.148 141.22C147.069 140.978 147.02 140.727 147.003 140.474ZM147.003 140.474H146.837C146.916 140.732 147.02 140.982 147.148 141.22C147.069 140.978 147.02 140.727 147.003 140.474ZM147.003 140.474H146.837C146.916 140.732 147.02 140.982 147.148 141.22C147.069 140.978 147.02 140.727 147.003 140.474ZM147.003 140.474H146.837C146.916 140.732 147.02 140.982 147.148 141.22C147.069 140.978 147.02 140.727 147.003 140.474ZM147.003 140.474H146.837C146.916 140.732 147.02 140.982 147.148 141.22C147.069 140.978 147.02 140.727 147.003 140.474ZM160.448 172.479C159.522 168.007 158.683 163.518 157.932 159.013C157.165 154.52 156.473 150.006 155.803 145.492C155.153 140.978 154.524 136.457 153.971 131.929C153.404 127.402 152.92 122.862 152.519 118.312C153.446 122.784 154.284 127.273 155.036 131.777C155.803 136.271 156.494 140.785 157.165 145.292C157.814 149.812 158.443 154.326 158.997 158.861C159.57 163.389 160.054 167.928 160.448 172.479H167.776C172.96 167.557 174.626 150.642 173.078 146.142C172.483 144.414 168.584 134.155 167.776 132.655C166.967 131.155 165.584 117.454 166.656 107.39C167.727 97.3247 152.519 97.9814 152.519 97.9814C152.778 100.132 152.536 102.313 151.814 104.355C151.437 105.444 150.796 106.422 149.948 107.203C149.018 108.006 147.823 108.435 146.595 108.406C146.485 108.399 146.374 108.392 146.263 108.378C146.485 110.943 146.609 113.514 146.699 116.079C146.803 118.878 146.844 121.678 146.886 124.478C146.906 127.27 146.92 130.07 146.906 132.863L146.899 137.052C146.892 137.75 146.913 138.448 146.927 139.146C146.941 139.499 146.948 139.844 146.982 140.19C146.989 140.287 146.996 140.377 147.003 140.474C147.587 140.477 148.169 140.526 148.745 140.619C149.265 140.701 149.773 140.845 150.259 141.047C150.767 141.237 151.192 141.602 151.455 142.077C151.036 141.842 150.566 141.714 150.086 141.704C149.614 141.674 149.141 141.672 148.669 141.697C147.722 141.732 146.768 141.828 145.8 141.898C144.839 141.974 143.865 142.043 142.883 142.084C141.886 142.144 140.887 142.142 139.89 142.077C140.789 141.615 141.741 141.262 142.724 141.027C143.698 140.772 144.693 140.603 145.697 140.522C146.077 140.487 146.45 140.474 146.837 140.474C146.713 140.052 146.637 139.616 146.547 139.188C146.416 138.496 146.319 137.798 146.222 137.1C146.049 135.704 145.918 134.303 145.828 132.897C145.62 130.098 145.545 127.291 145.503 124.491C145.489 121.685 145.51 118.885 145.62 116.079C145.724 113.507 145.862 110.936 146.139 108.364C145.085 108.192 144.112 107.692 143.36 106.933C142.573 106.136 141.934 105.204 141.473 104.182C140.569 102.23 140.032 100.128 139.89 97.9814C126.431 106.401 115.267 157.278 114.624 165.843C114.39 168.217 114.877 170.607 116.023 172.7C117.169 174.793 118.919 176.492 121.046 177.574C121.039 174.193 121.184 170.827 121.392 167.46C121.585 164.101 121.876 160.741 122.207 157.389C122.567 154.036 122.961 150.683 123.486 147.352C123.742 145.686 124.046 144.02 124.385 142.361C124.564 141.538 124.751 140.709 124.972 139.893C125.09 139.478 125.207 139.07 125.346 138.669C125.422 138.469 125.498 138.275 125.588 138.075C125.684 137.895 125.774 137.667 125.975 137.577C125.823 137.721 125.721 137.91 125.684 138.116C125.629 138.317 125.588 138.517 125.546 138.725C125.463 139.139 125.408 139.554 125.346 139.969C125.235 140.798 125.138 141.635 125.055 142.471C124.876 144.137 124.723 145.81 124.558 147.483L123.583 157.527C123.224 160.873 122.878 164.218 122.456 167.564C122.048 170.903 121.606 174.242 121.046 177.574C122.76 185.668 117.196 229.439 117.196 229.439C165.799 271.62 179.714 248.276 179.714 248.276C173.506 241.64 160.448 172.479 160.448 172.479ZM158.291 108.281C158.707 107.479 159.246 106.747 159.888 106.111C160.54 105.441 161.334 104.926 162.211 104.604C163.091 104.272 164.061 104.272 164.941 104.604C164.139 104.805 163.376 105.137 162.681 105.585C162.022 106.023 161.411 106.528 160.856 107.092C159.702 108.219 158.692 109.526 157.448 110.811C157.578 109.925 157.863 109.068 158.291 108.281ZM147.003 140.474H146.837C146.916 140.732 147.02 140.982 147.148 141.22C147.069 140.978 147.02 140.727 147.003 140.474ZM139.897 97.9883C140.548 99.9611 141.393 101.864 142.42 103.671C142.911 104.526 143.529 105.302 144.252 105.972C144.896 106.6 145.746 106.973 146.644 107.023C147.54 107.056 148.417 106.761 149.111 106.194C149.844 105.574 150.429 104.8 150.826 103.926C151.667 102.034 152.237 100.033 152.519 97.9814C146.858 103.449 140.173 98.2095 139.897 97.9883ZM147.003 140.474H146.837C146.916 140.732 147.02 140.982 147.148 141.22C147.069 140.978 147.02 140.727 147.003 140.474ZM147.003 140.474H146.837C146.916 140.732 147.02 140.982 147.148 141.22C147.069 140.978 147.02 140.727 147.003 140.474ZM147.003 140.474H146.837C146.916 140.732 147.02 140.982 147.148 141.22C147.069 140.978 147.02 140.727 147.003 140.474Z" fill="white"/>
<path d="M147.148 141.22C147.02 140.982 146.916 140.732 146.837 140.474H147.003C147.02 140.728 147.069 140.978 147.148 141.22Z" fill="white"/>
<path d="M147.148 141.22C147.02 140.982 146.916 140.732 146.837 140.474H147.003C147.02 140.728 147.069 140.978 147.148 141.22Z" fill="white"/>
<path d="M161.194 99.2561C164.919 99.1364 168.642 99.0787 172.362 98.9925L183.523 98.835L184.221 98.8252L184.395 98.8228C184.522 98.825 184.646 98.8643 184.752 98.9357C184.912 99.0679 184.86 99.0503 184.902 99.0973C184.938 99.1528 184.968 99.2123 184.99 99.2747C185.039 99.4103 185.078 99.5494 185.105 99.6908C185.209 100.184 185.262 100.647 185.319 101.117C185.428 102.052 185.513 102.982 185.595 103.913L186.036 109.49C186.302 113.207 186.597 116.92 186.822 120.637L188.197 142.939C188.432 146.656 188.686 150.372 189.008 154.082C189.314 157.793 189.636 161.503 190.043 165.205C190.804 172.614 191.763 180.002 192.852 187.366C193.949 194.728 195.14 202.074 196.568 209.37C197.952 216.661 199.742 223.87 201.929 230.962C203.02 234.484 204.399 237.911 206.052 241.206C206.877 242.828 207.847 244.371 208.952 245.816C210.006 247.239 211.371 248.405 212.941 249.224L212.983 249.244C213.083 249.292 213.167 249.366 213.227 249.459C213.286 249.552 213.319 249.66 213.32 249.77C213.321 249.88 213.292 249.989 213.235 250.083C213.177 250.177 213.095 250.254 212.996 250.303C211.679 250.944 210.288 251.418 208.853 251.714C208.158 251.895 207.447 251.983 206.745 252.121C206.037 252.21 205.329 252.305 204.62 252.376C201.788 252.604 198.941 252.557 196.118 252.235C193.308 251.941 190.521 251.457 187.777 250.784C186.414 250.425 185.058 250.042 183.703 249.664L179.694 248.345C179.685 248.342 179.677 248.338 179.67 248.332C179.663 248.326 179.658 248.319 179.654 248.31C179.65 248.302 179.647 248.294 179.647 248.284C179.646 248.275 179.647 248.266 179.65 248.258C179.656 248.241 179.669 248.227 179.685 248.219C179.701 248.21 179.72 248.209 179.737 248.214L183.791 249.349C185.157 249.666 186.521 249.985 187.889 250.281C190.63 250.827 193.402 251.211 196.188 251.428C198.961 251.654 201.749 251.619 204.515 251.324C205.202 251.242 205.885 251.137 206.569 251.039C207.241 250.892 207.928 250.795 208.589 250.608C209.903 250.311 211.178 249.856 212.383 249.253L212.438 250.332C210.672 249.463 209.128 248.202 207.923 246.646C206.727 245.158 205.687 243.552 204.819 241.852C203.115 238.493 201.691 234.999 200.561 231.406C198.324 224.266 196.559 216.987 195.277 209.616C192.532 194.932 191.051 180.078 189.591 165.251L187.449 142.999L186.443 131.865C186.119 128.152 185.875 124.434 185.601 120.719C185.327 117.004 185.141 113.283 184.898 109.568L184.522 104C184.451 103.075 184.377 102.149 184.281 101.233C184.233 100.778 184.178 100.315 184.105 99.8935C184.09 99.8059 184.071 99.7193 184.046 99.6341C184.037 99.6034 184.045 99.6361 184.061 99.6538C184.091 99.6872 184.124 99.7189 184.158 99.7488C184.232 99.8427 184.513 99.831 184.438 99.8276L184.263 99.8252L183.563 99.8153L172.375 99.6579C168.646 99.5717 164.919 99.514 161.194 99.3943C161.176 99.3938 161.159 99.3863 161.146 99.3733C161.134 99.3604 161.127 99.343 161.127 99.325C161.127 99.307 161.134 99.2897 161.147 99.2768C161.159 99.264 161.176 99.2565 161.194 99.2561H161.194Z" fill="white"/>
<path d="M177.574 107.68C178.781 110.015 179.788 112.344 181.024 114.521C181.61 115.605 182.303 116.627 183.092 117.572C183.87 118.543 184.936 119.241 186.137 119.565C185.464 119.699 184.767 119.641 184.124 119.4C183.475 119.154 182.873 118.799 182.344 118.35C181.319 117.461 180.464 116.394 179.82 115.2C179.178 114.043 178.663 112.819 178.285 111.551C177.887 110.295 177.648 108.995 177.574 107.68Z" fill="white"/>
<path d="M164.941 101.725C168.384 101.843 171.744 102.265 175.103 102.611C176.78 102.801 178.455 102.969 180.125 103.087C180.955 103.148 181.788 103.166 182.62 103.143C183.031 103.137 183.441 103.092 183.844 103.008C184.255 102.951 184.637 102.76 184.929 102.464C184.733 102.872 184.394 103.194 183.976 103.368C183.575 103.564 183.153 103.714 182.719 103.815C181.865 104.009 180.996 104.127 180.121 104.166C178.397 104.241 176.67 104.18 174.955 103.985C173.252 103.794 171.559 103.514 169.885 103.147C168.205 102.794 166.552 102.319 164.941 101.725Z" fill="white"/>
<path d="M173.934 99.3252C174.072 99.9488 174.143 100.585 174.149 101.224C174.158 101.828 174.137 102.433 174.085 103.036C174.032 103.632 173.962 104.219 173.875 104.807C173.787 105.401 173.677 105.971 173.613 106.64C173.167 106.133 172.88 105.507 172.788 104.838C172.675 104.205 172.647 103.56 172.707 102.919C172.761 102.289 172.885 101.667 173.077 101.064C173.267 100.442 173.557 99.8548 173.934 99.3252Z" fill="white"/>
<path d="M177.226 99.3252C177.438 99.9429 177.557 100.588 177.58 101.241C177.606 101.875 177.566 102.509 177.461 103.135C177.353 103.733 177.204 104.323 177.016 104.902C176.934 105.154 176.89 105.417 176.886 105.682C176.869 105.974 176.919 106.294 176.905 106.64C176.639 106.423 176.413 106.163 176.234 105.871C176.052 105.545 175.949 105.182 175.933 104.81C175.924 104.171 175.979 103.533 176.098 102.906C176.199 102.301 176.335 101.703 176.504 101.114C176.675 100.492 176.917 99.8914 177.226 99.3252Z" fill="white"/>
<path d="M184.426 99.325V91.5439C184.426 91.5439 185.711 106.746 207.765 96.6828C207.765 96.6828 206.908 136.509 219.97 181.474C219.97 181.474 221.668 191.023 191.163 177.576" fill="white"/>
<path d="M251.923 130.084C246.275 130.459 240.608 130.459 234.959 130.084C235.613 128.277 235.801 126.335 235.506 124.436C235.399 123.487 235.232 122.545 235.008 121.616C234.766 120.703 234.51 119.784 234.199 118.892C233.581 117.107 232.833 115.369 231.959 113.694C231.104 112.012 230.103 110.409 228.966 108.904C230.28 112.436 231.71 115.851 232.893 119.342C233.51 121.066 234.027 122.825 234.441 124.609C234.895 126.396 235.07 128.243 234.959 130.084C234.959 130.084 230.369 133.651 222.496 130.374C222.688 129.921 222.847 129.454 222.973 128.978C223.063 128.501 223.18 128.01 223.229 127.519C223.263 127.029 223.298 126.538 223.326 126.047L223.305 124.575C223.205 122.624 222.965 120.684 222.586 118.768C222.202 116.862 221.72 114.977 221.141 113.12C220.58 111.26 219.887 109.442 219.067 107.68C219.358 109.609 219.724 111.503 220.104 113.39L221.231 119.031C221.604 120.911 221.938 122.791 222.233 124.671L222.42 126.088L222.544 127.506C222.6 127.983 222.572 128.446 222.593 128.93C222.603 129.168 222.589 129.406 222.551 129.642L222.496 130.374C214.616 127.091 209.88 130.92 209.88 130.92L207.903 105.661C209.963 97.7257 212.687 94.3247 212.687 94.3247C212.687 94.3247 212.901 104.196 237.738 97.9746C237.738 97.9746 250.257 121.305 251.923 130.084Z" fill="white"/>
<path d="M247.347 130.115C246.084 133.741 245.32 137.523 245.079 141.356C245.039 142.311 244.977 143.266 244.973 144.221C244.998 145.177 244.961 146.133 245.037 147.085C245.117 148.993 245.303 150.894 245.593 152.78C245.766 153.719 245.91 154.662 246.106 155.595L246.78 158.376L248.438 163.896C249.023 165.756 249.433 167.653 249.868 169.543C250.254 171.442 250.626 173.342 250.953 175.248C251.253 177.159 251.593 179.062 251.839 180.979L252.257 183.846L252.645 186.717C253.166 190.543 253.676 194.37 254.132 198.204C255.09 205.869 255.936 213.546 256.467 221.265C256.476 221.403 256.439 221.541 256.362 221.656C256.284 221.771 256.17 221.857 256.038 221.9L256.033 221.901C251.306 223.418 246.502 224.681 241.641 225.685C236.778 226.699 231.852 227.382 226.897 227.729C221.927 228.098 216.931 227.906 212.004 227.155C209.543 226.737 207.131 226.069 204.805 225.163C202.482 224.256 200.326 222.969 198.425 221.354C198.419 221.348 198.413 221.34 198.409 221.332C198.405 221.324 198.403 221.315 198.402 221.306C198.401 221.297 198.403 221.288 198.406 221.279C198.409 221.271 198.413 221.263 198.419 221.256C198.431 221.243 198.447 221.235 198.464 221.233C198.482 221.231 198.499 221.236 198.513 221.247C200.49 222.7 202.686 223.831 205.017 224.598C207.332 225.38 209.719 225.928 212.143 226.237C214.571 226.526 217.014 226.679 219.459 226.696C221.906 226.714 224.355 226.574 226.795 226.37C231.683 225.934 236.542 225.224 241.35 224.243C246.169 223.305 250.937 222.122 255.636 220.699L255.202 221.335C255.012 217.493 254.763 213.642 254.507 209.796C254.264 205.948 253.948 202.104 253.599 198.263C252.893 190.583 251.741 182.95 250.15 175.403C249.745 173.521 249.299 171.649 248.84 169.784C248.317 167.937 247.886 166.063 247.269 164.254C246.725 162.439 246.108 160.565 245.599 158.686L244.955 155.831C244.771 154.874 244.638 153.906 244.477 152.945C244.211 151.012 244.053 149.067 244.003 147.117C243.961 146.143 244.039 145.168 244.051 144.195C244.095 143.222 244.195 142.252 244.275 141.283C244.656 137.408 245.651 133.618 247.222 130.056C247.229 130.04 247.243 130.027 247.259 130.021C247.276 130.014 247.294 130.015 247.311 130.021C247.327 130.028 247.34 130.041 247.348 130.057C247.355 130.074 247.355 130.092 247.349 130.109L247.347 130.115Z" fill="white"/>
<path d="M323.02 105.999C320.692 109.323 318.18 112.512 315.493 115.553C312.823 118.64 309.856 121.456 306.633 123.961C304.978 125.232 303.131 126.232 301.162 126.923C300.115 127.261 299.008 127.367 297.916 127.234C296.831 127.016 295.811 126.553 294.932 125.88C293.298 124.585 291.851 123.07 290.632 121.378C289.425 119.725 288.309 118.009 287.287 116.236C285.252 112.714 283.422 109.078 281.805 105.345C280.981 103.49 280.189 101.623 279.429 99.743L278.308 96.9155L277.764 95.4956C277.579 95.042 277.419 94.4981 277.221 94.129C276.999 93.734 276.66 93.4171 276.251 93.2212C275.868 93.0377 275.313 92.955 274.837 92.7713C273.87 92.4308 272.93 92.0194 272.024 91.5405C271.101 91.087 270.225 90.5458 269.407 89.9242C268.603 89.2788 267.885 88.5342 267.268 87.7083C265.955 86.127 264.933 84.3247 264.25 82.3857C263.901 81.3968 263.763 80.346 263.845 79.3006C263.876 78.7539 264.027 78.2205 264.285 77.7377C264.544 77.255 264.905 76.8344 265.342 76.5055L265.211 76.7364C265.216 76.2077 265.187 75.6812 265.229 75.1488C265.247 74.6105 265.312 74.0749 265.425 73.5483C265.51 72.9626 265.776 72.4179 266.184 71.9892C266.318 71.876 266.474 71.7917 266.643 71.7417C266.811 71.6916 266.988 71.6769 267.163 71.6983C267.486 71.7464 267.79 71.881 268.043 72.088L267.497 72.2536L267.638 71.8222C267.702 71.6759 267.775 71.534 267.858 71.3975C268.047 71.0879 268.343 70.8592 268.691 70.7558C269.033 70.6726 269.393 70.7001 269.719 70.8344C270.016 70.9486 270.293 71.1102 270.539 71.3128L269.976 71.3874C270.197 71.035 270.489 70.732 270.833 70.4976C271.177 70.2632 271.565 70.1024 271.974 70.0253C272.596 69.9072 273.238 69.9778 273.819 70.2281C274.399 70.4783 274.892 70.8966 275.233 71.4292C275.349 71.6056 275.444 71.7945 275.518 71.9922C275.604 72.1915 275.644 72.3385 275.71 72.5139C275.953 73.1876 276.211 73.8548 276.49 74.5107C277.013 75.8149 277.686 77.0535 278.496 78.2012C278.811 78.7128 279.293 79.1 279.861 79.2974C279.959 79.3318 280.063 79.3452 280.166 79.3368C280.269 79.3285 280.37 79.2985 280.461 79.2489C280.552 79.1993 280.631 79.1311 280.694 79.0487C280.757 78.9664 280.802 78.8717 280.826 78.7709C280.822 78.6597 280.808 78.5491 280.785 78.4401C280.757 78.2839 280.718 78.1169 280.675 77.9486L280.392 76.9215C280.192 76.2283 279.984 75.5282 279.803 74.812C279.61 74.084 279.466 73.3442 279.371 72.5973C279.324 72.1964 279.314 71.7919 279.341 71.3891C279.362 70.8973 279.528 70.4227 279.818 70.0253C280.19 69.6377 280.699 69.4132 281.236 69.4009C281.772 69.3886 282.292 69.5896 282.68 69.9597C283.286 70.4929 283.794 71.1285 284.18 71.8375C284.904 73.1417 285.509 74.5094 285.985 75.9234C286.474 77.3129 286.894 78.7155 287.264 80.1378C287.426 80.7995 287.686 81.4333 288.035 82.0183C288.361 82.7662 288.545 83.5683 288.578 84.3836C288.619 85.1502 288.591 85.919 288.496 86.6808C288.454 87.0495 288.391 87.4482 288.331 87.7854C288.283 88.0736 288.278 88.3672 288.316 88.6568C288.355 88.958 288.443 89.2505 288.578 89.5226C288.72 89.8338 288.83 90.1506 288.996 90.4585L289.487 91.3834C289.658 91.6893 289.851 91.9887 290.032 92.2918C291.576 94.7045 293.275 97.0147 295.118 99.2079C296.951 101.425 298.842 103.614 300.784 105.731L299.763 105.851C302.968 100.483 306.244 95.1467 309.892 90.0549C311.691 87.4893 313.617 85.0157 315.664 82.6432C316.696 81.4603 317.793 80.3357 318.949 79.2745C319.532 78.7447 320.148 78.2533 320.794 77.8034C321.119 77.5784 321.459 77.3766 321.813 77.1996C322.17 77.0006 322.569 76.8904 322.977 76.8784C322.995 76.879 323.012 76.8865 323.024 76.8993C323.036 76.9121 323.043 76.9292 323.043 76.9469C323.042 76.9646 323.035 76.9816 323.023 76.9941C323.01 77.0066 322.993 77.0138 322.976 77.014L322.952 77.0143C322.579 77.0522 322.219 77.1734 321.9 77.3691C321.563 77.5568 321.241 77.768 320.934 78.001C320.319 78.4715 319.735 78.9813 319.187 79.5273C318.09 80.627 317.056 81.7868 316.088 83.0013C314.141 85.4239 312.328 87.9554 310.603 90.5459C307.163 95.7346 303.954 101.078 300.874 106.495C300.824 106.581 300.756 106.655 300.673 106.71C300.591 106.765 300.497 106.8 300.398 106.812C300.3 106.824 300.2 106.814 300.107 106.781C300.013 106.748 299.929 106.693 299.86 106.622L299.853 106.615C297.839 104.502 295.894 102.347 294.041 100.096C292.148 97.8612 290.402 95.5056 288.814 93.0443C288.622 92.7266 288.422 92.417 288.238 92.0925L287.707 91.1011C287.529 90.7715 287.393 90.4036 287.236 90.0561C287.055 89.6748 286.935 89.2678 286.879 88.8497C286.822 88.4204 286.827 87.9849 286.895 87.5571C286.96 87.1811 287.008 86.8643 287.048 86.5134C287.13 85.8373 287.152 85.1552 287.114 84.4751C287.09 83.8399 286.956 83.2137 286.716 82.6249L286.62 82.4273L286.484 82.1682C286.395 81.9923 286.312 81.8114 286.234 81.6254C286.083 81.2571 285.963 80.8764 285.878 80.4875C285.534 79.1031 285.136 77.7251 284.678 76.3776C284.244 75.0404 283.69 73.7454 283.022 72.5083C282.722 71.9381 282.328 71.4229 281.856 70.9846C281.688 70.8319 281.478 70.733 281.253 70.7006C281.029 70.6947 280.894 70.7337 280.821 70.8408C280.693 71.039 280.623 71.2684 280.617 71.504C280.593 71.8237 280.599 72.1449 280.633 72.4636C280.715 73.1544 280.842 73.839 281.013 74.5133C281.177 75.2034 281.367 75.8957 281.556 76.5976C281.65 76.9486 281.744 77.3031 281.83 77.6695C281.873 77.8528 281.914 78.0393 281.947 78.2398C281.998 78.4858 282.007 78.7388 281.974 78.988C281.922 79.2493 281.812 79.496 281.654 79.7105C281.496 79.9251 281.293 80.1024 281.059 80.23C280.609 80.469 280.086 80.5277 279.595 80.3941C278.777 80.1279 278.08 79.5823 277.624 78.853C276.777 77.6216 276.087 76.2897 275.569 74.8881C275.299 74.2037 275.054 73.5128 274.825 72.8173C274.743 72.4999 274.621 72.1939 274.464 71.906C274.313 71.6435 274.106 71.4173 273.858 71.2431C273.61 71.0614 273.328 70.9309 273.029 70.8594C272.73 70.788 272.419 70.7768 272.116 70.8268C271.81 70.8753 271.517 70.9873 271.257 71.1557C270.996 71.324 270.774 71.545 270.604 71.8043C270.547 71.8878 270.46 71.9454 270.361 71.9643C270.261 71.9832 270.159 71.962 270.075 71.9053L270.041 71.879C269.865 71.7294 269.667 71.6078 269.454 71.5185C269.273 71.4343 269.07 71.4088 268.874 71.4456C268.69 71.4986 268.533 71.6191 268.435 71.7829C268.375 71.8799 268.32 71.9801 268.27 72.0831L268.147 72.4314L268.142 72.4449C268.112 72.5309 268.049 72.6012 267.967 72.6406C267.884 72.6799 267.79 72.685 267.704 72.6547C267.667 72.6414 267.632 72.6219 267.601 72.5969C267.449 72.4708 267.268 72.3849 267.074 72.347C266.989 72.3343 266.903 72.339 266.821 72.3609C266.738 72.3829 266.661 72.4215 266.595 72.4745C266.284 72.8123 266.079 73.2338 266.006 73.6868C265.889 74.1788 265.816 74.6803 265.788 75.1854C265.734 75.6936 265.75 76.2129 265.733 76.7276C265.731 76.7727 265.719 76.8168 265.697 76.8563C265.675 76.8957 265.644 76.9295 265.607 76.9547L265.601 76.9587C265.232 77.245 264.928 77.6066 264.71 78.0194C264.491 78.4323 264.363 78.887 264.334 79.3531C264.251 80.3319 264.373 81.3173 264.693 82.246C265.339 84.1409 266.323 85.903 267.598 87.4471C268.202 88.2385 268.904 88.95 269.688 89.5644C270.49 90.1579 271.347 90.6726 272.248 91.1016C273.137 91.5581 274.059 91.9484 275.005 92.2694C275.241 92.3456 275.478 92.4178 275.717 92.4794C275.981 92.5347 276.238 92.6174 276.485 92.726C276.999 92.9636 277.431 93.3483 277.726 93.8314C277.858 94.0654 277.971 94.3099 278.064 94.5623L278.352 95.2631L278.936 96.6611L280.137 99.4434C280.953 101.291 281.796 103.126 282.666 104.948C283.538 106.768 284.445 108.57 285.385 110.353C286.319 112.138 287.281 113.907 288.312 115.631C289.329 117.355 290.435 119.025 291.626 120.635C292.757 122.245 294.104 123.693 295.629 124.937C296.354 125.51 297.198 125.911 298.099 126.112C299.021 126.228 299.957 126.144 300.844 125.867C302.706 125.231 304.457 124.305 306.03 123.123C309.271 120.744 312.27 118.052 314.984 115.086C317.764 112.162 320.398 109.089 322.908 105.918C322.919 105.904 322.936 105.894 322.954 105.891C322.972 105.889 322.991 105.894 323.005 105.905C323.019 105.916 323.028 105.932 323.031 105.949C323.034 105.967 323.03 105.985 323.02 105.999Z" fill="white"/>
<path d="M372.847 174.597C372.079 183.31 371.832 192.062 372.107 200.804C372.327 209.546 372.918 218.276 373.83 226.968C374.753 235.658 376.001 244.319 377.769 252.864C378.636 257.133 379.723 261.354 381.026 265.511C381.679 267.574 382.45 269.597 383.336 271.571C384.152 273.522 385.29 275.321 386.702 276.894L386.716 276.908C386.837 277.032 386.903 277.199 386.901 277.373C386.899 277.546 386.828 277.711 386.704 277.832L386.66 277.872C384.074 279.951 381.311 281.801 378.404 283.4C375.505 285.027 372.444 286.348 369.271 287.341C366.065 288.363 362.712 288.845 359.349 288.766C357.652 288.707 355.967 288.454 354.327 288.013C353.916 287.906 353.509 287.777 353.106 287.642C352.694 287.496 352.312 287.368 351.945 287.25C351.206 286.982 350.434 286.806 349.669 286.611C348.111 286.29 346.533 286.082 344.945 285.989C343.345 285.916 341.741 285.927 340.142 286.022C336.924 286.242 333.727 286.706 330.578 287.409C324.259 288.823 318.088 290.831 312.147 293.408L312.13 293.415C312.004 293.469 311.87 293.498 311.733 293.5C311.596 293.502 311.461 293.477 311.334 293.426C311.207 293.376 311.091 293.301 310.994 293.206C310.896 293.11 310.818 292.997 310.764 292.871C310.72 292.769 310.693 292.66 310.683 292.549C310.322 288.338 310 284.131 309.719 279.931C309.451 275.723 309.213 271.514 309.004 267.304C308.568 258.884 308.355 250.454 308.188 242.026C308.005 233.597 308.071 225.163 308.24 216.735L308.415 210.415C308.464 208.309 308.606 206.204 308.697 204.099C308.869 199.888 309.199 195.684 309.499 191.483C309.5 191.469 309.503 191.456 309.51 191.444C309.516 191.432 309.524 191.421 309.534 191.412C309.545 191.403 309.557 191.396 309.569 191.392C309.582 191.388 309.596 191.386 309.61 191.387C309.636 191.389 309.661 191.402 309.679 191.422C309.697 191.442 309.707 191.468 309.706 191.495C309.463 199.915 309.364 208.332 309.408 216.745C309.406 218.849 309.459 220.953 309.482 223.056C309.508 225.159 309.539 227.262 309.603 229.365L309.747 235.674L309.941 241.981C310.216 250.391 310.657 258.793 311.1 267.194C311.334 271.394 311.591 275.593 311.871 279.79C312.137 283.986 312.422 288.187 312.757 292.369L311.293 291.51C314.337 290.211 317.445 289.065 320.604 288.078C323.754 287.077 326.953 286.238 330.188 285.564C333.436 284.877 336.73 284.436 340.044 284.247C341.712 284.166 343.382 284.173 345.049 284.268C346.727 284.385 348.394 284.624 350.037 284.982C350.855 285.199 351.677 285.396 352.476 285.692C352.886 285.829 353.279 285.964 353.636 286.095C354.007 286.222 354.38 286.344 354.759 286.447C356.278 286.869 357.84 287.117 359.414 287.185C362.605 287.284 365.791 286.853 368.84 285.907C371.924 284.97 374.902 283.715 377.727 282.162C380.568 280.629 383.271 278.854 385.807 276.856L385.764 277.833C384.253 276.137 383.041 274.198 382.18 272.096C381.291 270.07 380.52 267.994 379.87 265.878C378.592 261.671 377.531 257.401 376.693 253.084C375.028 244.474 373.801 235.784 373.018 227.049C372.205 218.325 371.715 209.572 371.596 200.814C371.422 192.055 371.771 183.293 372.64 174.576C372.644 174.548 372.657 174.524 372.678 174.506C372.7 174.489 372.727 174.481 372.754 174.484C372.782 174.487 372.807 174.5 372.824 174.521C372.841 174.543 372.849 174.57 372.847 174.597L372.847 174.597Z" fill="white"/>
<path d="M309.499 192.931C310.083 182.829 311.227 172.767 312.928 162.792C313.792 157.796 314.912 152.848 316.282 147.966C317.643 143.061 319.406 138.277 321.554 133.662L321.52 133.747C321.951 132.454 322.435 131.218 322.973 129.982C323.509 128.743 324.117 127.535 324.793 126.366C325.475 125.156 326.305 124.036 327.263 123.031C327.784 122.498 328.386 122.051 329.047 121.707C329.782 121.323 330.617 121.177 331.438 121.29L331.263 121.281L359.993 119.26L360.013 119.259C360.178 119.248 360.343 119.278 360.494 119.347C360.644 119.415 360.776 119.52 360.876 119.651C363.737 123.566 366.091 127.826 367.882 132.331L368.567 134C368.799 134.555 368.971 135.132 369.175 135.697C369.557 136.836 369.993 137.957 370.3 139.119C370.625 140.275 370.987 141.42 371.28 142.584L372.075 146.093C372.345 147.261 372.489 148.454 372.701 149.632L372.995 151.404C373.08 151.996 373.119 152.595 373.183 153.19L373.531 156.761L373.663 160.344C373.823 162.728 373.628 165.117 373.558 167.496L373.522 168.388L373.429 169.277L373.242 171.054L372.847 174.597C372.844 174.624 372.831 174.648 372.811 174.665C372.79 174.682 372.764 174.691 372.737 174.689C372.71 174.687 372.686 174.675 372.668 174.655C372.65 174.636 372.64 174.61 372.641 174.583L372.641 174.576L372.747 171.021L372.812 169.248L372.844 168.363L372.819 167.476L372.717 163.933C372.696 163.344 372.716 162.754 372.662 162.166L372.514 160.403L372.212 156.883L371.698 153.39C371.607 152.809 371.541 152.225 371.43 151.648L371.082 149.92C370.835 148.772 370.656 147.609 370.353 146.475C369.264 141.915 367.792 137.455 365.955 133.142C365.521 132.054 365.016 131 364.51 129.947C364.03 128.881 363.451 127.866 362.914 126.83C361.815 124.798 360.588 122.839 359.239 120.963L360.122 121.354L331.361 122.866L331.336 122.868C331.286 122.87 331.235 122.867 331.185 122.858C330.246 122.683 329.197 123.279 328.333 124.122C327.453 125.023 326.687 126.028 326.053 127.116C325.388 128.227 324.788 129.375 324.257 130.556C323.719 131.736 323.221 132.958 322.797 134.168L322.791 134.183C322.783 134.207 322.773 134.231 322.762 134.253C320.575 138.772 318.765 143.463 317.349 148.28C315.903 153.097 314.723 158.001 313.741 162.945C311.841 172.863 310.494 182.879 309.706 192.946C309.704 192.973 309.691 192.998 309.67 193.016C309.65 193.034 309.623 193.043 309.595 193.041C309.568 193.039 309.542 193.026 309.524 193.006C309.506 192.985 309.497 192.958 309.499 192.931H309.499Z" fill="white"/>
<path d="M366.127 202.605C366.155 184.39 365.768 158.039 363.749 126.171C362.484 106.201 362.788 84.5987 361.496 75.4602C361.046 72.2389 354.832 70.7458 354.486 71.596C351.638 78.6331 350.843 83.6517 344.753 132.787C344.353 136.001 344.179 139.24 344.235 142.478C344.629 169.016 345.027 195.549 345.431 222.078C345.431 222.078 355.724 214.951 360.459 220.018C364.413 224.241 376.116 220.875 379.911 219.644C368.242 222.99 366.127 202.605 366.127 202.605ZM347.518 219.029C347.249 219.02 346.994 218.907 346.807 218.714C346.62 218.52 346.515 218.261 346.515 217.992C346.515 217.723 346.62 217.464 346.807 217.271C346.994 217.077 347.249 216.964 347.518 216.955C347.787 216.964 348.042 217.077 348.23 217.271C348.417 217.464 348.521 217.723 348.521 217.992C348.521 218.261 348.417 218.52 348.23 218.714C348.042 218.907 347.787 219.02 347.518 219.029ZM352.661 216.706C352.392 216.698 352.137 216.584 351.95 216.391C351.763 216.197 351.658 215.939 351.658 215.67C351.658 215.4 351.763 215.142 351.95 214.948C352.137 214.755 352.392 214.642 352.661 214.633C352.93 214.642 353.185 214.755 353.372 214.948C353.56 215.142 353.664 215.4 353.664 215.67C353.664 215.939 353.56 216.197 353.372 216.391C353.185 216.584 352.93 216.698 352.661 216.706ZM359.214 217.038C358.945 217.029 358.69 216.916 358.503 216.723C358.316 216.529 358.211 216.271 358.211 216.001C358.211 215.732 358.316 215.473 358.503 215.28C358.69 215.087 358.945 214.973 359.214 214.964C359.483 214.973 359.739 215.087 359.926 215.28C360.113 215.473 360.218 215.732 360.218 216.001C360.218 216.271 360.113 216.529 359.926 216.723C359.739 216.916 359.483 217.029 359.214 217.038ZM364.274 220.025C364.005 220.016 363.75 219.902 363.563 219.709C363.376 219.516 363.271 219.257 363.271 218.988C363.271 218.718 363.376 218.46 363.563 218.266C363.75 218.073 364.005 217.96 364.274 217.951C364.543 217.96 364.799 218.073 364.986 218.266C365.173 218.46 365.278 218.718 365.278 218.988C365.278 219.257 365.173 219.516 364.986 219.709C364.799 219.902 364.544 220.016 364.274 220.025H364.274ZM370.828 220.771C370.559 220.762 370.303 220.649 370.116 220.456C369.929 220.262 369.824 220.003 369.824 219.734C369.824 219.465 369.929 219.206 370.116 219.013C370.303 218.819 370.559 218.706 370.828 218.697C371.097 218.706 371.352 218.819 371.539 219.013C371.726 219.206 371.831 219.465 371.831 219.734C371.831 220.003 371.726 220.262 371.539 220.456C371.352 220.649 371.097 220.762 370.828 220.771Z" fill="white"/>
<path d="M381.024 219.264C380.644 219.416 380.271 219.541 379.911 219.644C380.471 219.458 380.858 219.319 381.024 219.264Z" fill="white"/>
<path d="M328.023 111.774C328.292 111.765 328.546 111.652 328.733 111.458C328.92 111.265 329.024 111.007 329.024 110.738C329.024 110.469 328.92 110.21 328.733 110.017C328.546 109.823 328.292 109.71 328.023 109.701C327.754 109.71 327.499 109.823 327.312 110.017C327.125 110.21 327.021 110.469 327.021 110.738C327.021 111.007 327.125 111.265 327.312 111.458C327.499 111.652 327.754 111.765 328.023 111.774Z" fill="white"/>
<path d="M333.331 112.687C333.6 112.678 333.855 112.564 334.042 112.371C334.229 112.178 334.333 111.919 334.333 111.65C334.333 111.381 334.229 111.123 334.042 110.929C333.855 110.736 333.6 110.623 333.331 110.613C333.063 110.623 332.808 110.736 332.621 110.929C332.434 111.123 332.33 111.381 332.33 111.65C332.33 111.919 332.434 112.178 332.621 112.371C332.808 112.564 333.063 112.678 333.331 112.687Z" fill="white"/>
<path d="M339.221 113.185C339.49 113.175 339.744 113.062 339.931 112.869C340.118 112.675 340.222 112.417 340.222 112.148C340.222 111.879 340.118 111.62 339.931 111.427C339.744 111.233 339.49 111.12 339.221 111.111C338.952 111.12 338.697 111.233 338.511 111.427C338.324 111.62 338.219 111.879 338.219 112.148C338.219 112.417 338.324 112.675 338.511 112.869C338.697 113.062 338.952 113.175 339.221 113.185Z" fill="white"/>
<path d="M345.11 113.517C345.379 113.507 345.634 113.394 345.821 113.201C346.008 113.007 346.112 112.749 346.112 112.48C346.112 112.211 346.008 111.952 345.821 111.759C345.634 111.565 345.379 111.452 345.11 111.443C344.842 111.452 344.587 111.565 344.4 111.759C344.213 111.952 344.109 112.211 344.109 112.48C344.109 112.749 344.213 113.007 344.4 113.201C344.587 113.394 344.842 113.507 345.11 113.517Z" fill="white"/>
<path d="M334.741 76.188C335.01 76.1788 335.265 76.0655 335.452 75.872C335.639 75.6786 335.743 75.4201 335.743 75.1512C335.743 74.8822 335.639 74.6237 335.452 74.4303C335.265 74.2368 335.01 74.1235 334.741 74.1143C334.473 74.1235 334.218 74.2368 334.031 74.4303C333.844 74.6237 333.74 74.8822 333.74 75.1512C333.74 75.4201 333.844 75.6786 334.031 75.872C334.218 76.0655 334.473 76.1788 334.741 76.188Z" fill="white"/>
<path d="M338.723 80.004C338.992 79.9947 339.247 79.8814 339.434 79.6879C339.621 79.4945 339.725 79.236 339.725 78.9671C339.725 78.6981 339.621 78.4396 339.434 78.2462C339.247 78.0528 338.992 77.9395 338.723 77.9302C338.455 77.9395 338.2 78.0528 338.013 78.2462C337.826 78.4396 337.722 78.6981 337.722 78.9671C337.722 79.236 337.826 79.4945 338.013 79.6879C338.2 79.8814 338.455 79.9947 338.723 80.004Z" fill="white"/>
<path d="M343.451 84.2344C343.72 84.2252 343.975 84.1118 344.162 83.9184C344.349 83.725 344.453 83.4665 344.453 83.1975C344.453 82.9286 344.349 82.6701 344.162 82.4767C343.975 82.2832 343.72 82.1699 343.451 82.1606C343.183 82.1699 342.928 82.2832 342.741 82.4767C342.554 82.6701 342.45 82.9286 342.45 83.1975C342.45 83.4665 342.554 83.725 342.741 83.9184C342.928 84.1118 343.183 84.2252 343.451 84.2344Z" fill="white"/>
<path d="M348.263 87.4698C348.532 87.4605 348.786 87.3472 348.973 87.1538C349.16 86.9603 349.265 86.7019 349.265 86.4329C349.265 86.1639 349.16 85.9055 348.973 85.712C348.786 85.5186 348.532 85.4053 348.263 85.396C347.994 85.4053 347.739 85.5186 347.553 85.712C347.366 85.9055 347.261 86.1639 347.261 86.4329C347.261 86.7019 347.366 86.9603 347.553 87.1538C347.739 87.3472 347.994 87.4605 348.263 87.4698Z" fill="white"/>
<path d="M315.165 287.798C315.434 287.789 315.689 287.676 315.876 287.482C316.062 287.289 316.167 287.03 316.167 286.762C316.167 286.493 316.062 286.234 315.876 286.041C315.689 285.847 315.434 285.734 315.165 285.725C314.896 285.734 314.642 285.847 314.455 286.041C314.268 286.234 314.164 286.493 314.164 286.762C314.164 287.03 314.268 287.289 314.455 287.482C314.642 287.676 314.896 287.789 315.165 287.798Z" fill="white"/>
<path d="M321.718 285.559C321.987 285.549 322.242 285.436 322.429 285.243C322.616 285.049 322.72 284.791 322.72 284.522C322.72 284.253 322.616 283.994 322.429 283.801C322.242 283.607 321.987 283.494 321.718 283.485C321.45 283.494 321.195 283.607 321.008 283.801C320.821 283.994 320.717 284.253 320.717 284.522C320.717 284.791 320.821 285.049 321.008 285.243C321.195 285.436 321.45 285.549 321.718 285.559Z" fill="white"/>
<path d="M329.598 283.816C329.867 283.807 330.122 283.694 330.309 283.5C330.496 283.307 330.6 283.049 330.6 282.78C330.6 282.511 330.496 282.252 330.309 282.059C330.122 281.865 329.867 281.752 329.598 281.743C329.33 281.752 329.075 281.865 328.888 282.059C328.701 282.252 328.597 282.511 328.597 282.78C328.597 283.049 328.701 283.307 328.888 283.5C329.075 283.694 329.33 283.807 329.598 283.816Z" fill="white"/>
<path d="M337.728 282.821C337.997 282.812 338.251 282.699 338.438 282.505C338.625 282.312 338.729 282.053 338.729 281.784C338.729 281.515 338.625 281.257 338.438 281.064C338.251 280.87 337.997 280.757 337.728 280.748C337.459 280.757 337.204 280.87 337.017 281.064C336.831 281.257 336.726 281.515 336.726 281.784C336.726 282.053 336.831 282.312 337.017 282.505C337.204 282.699 337.459 282.812 337.728 282.821Z" fill="white"/>
<path d="M346.853 282.738C347.122 282.729 347.376 282.616 347.563 282.422C347.75 282.229 347.855 281.97 347.855 281.701C347.855 281.432 347.75 281.174 347.563 280.981C347.376 280.787 347.122 280.674 346.853 280.665C346.584 280.674 346.329 280.787 346.142 280.981C345.956 281.174 345.851 281.432 345.851 281.701C345.851 281.97 345.956 282.229 346.142 282.422C346.329 282.616 346.584 282.729 346.853 282.738Z" fill="white"/>
<path d="M354.982 284.812C355.251 284.803 355.506 284.689 355.692 284.496C355.879 284.303 355.984 284.044 355.984 283.775C355.984 283.506 355.879 283.248 355.692 283.054C355.506 282.861 355.251 282.748 354.982 282.738C354.713 282.748 354.459 282.861 354.272 283.054C354.085 283.248 353.98 283.506 353.98 283.775C353.98 284.044 354.085 284.303 354.272 284.496C354.459 284.689 354.713 284.803 354.982 284.812Z" fill="white"/>
<path d="M363.194 285.808C363.463 285.798 363.717 285.685 363.904 285.492C364.091 285.298 364.196 285.04 364.196 284.771C364.196 284.502 364.091 284.243 363.904 284.05C363.717 283.857 363.463 283.743 363.194 283.734C362.925 283.743 362.671 283.857 362.484 284.05C362.297 284.243 362.192 284.502 362.192 284.771C362.192 285.04 362.297 285.298 362.484 285.492C362.671 285.685 362.925 285.798 363.194 285.808Z" fill="white"/>
<path d="M370.991 283.485C371.26 283.476 371.515 283.362 371.702 283.169C371.889 282.975 371.993 282.717 371.993 282.448C371.993 282.179 371.889 281.921 371.702 281.727C371.515 281.534 371.26 281.42 370.991 281.411C370.723 281.42 370.468 281.534 370.281 281.727C370.094 281.921 369.99 282.179 369.99 282.448C369.99 282.717 370.094 282.975 370.281 283.169C370.468 283.362 370.723 283.476 370.991 283.485Z" fill="white"/>
<path d="M377.296 280.25C377.565 280.24 377.82 280.127 378.007 279.934C378.193 279.74 378.298 279.482 378.298 279.213C378.298 278.944 378.193 278.685 378.007 278.492C377.82 278.298 377.565 278.185 377.296 278.176C377.027 278.185 376.773 278.298 376.586 278.492C376.399 278.685 376.294 278.944 376.294 279.213C376.294 279.482 376.399 279.74 376.586 279.934C376.773 280.127 377.027 280.24 377.296 280.25Z" fill="white"/>
<path d="M382.854 276.268C383.122 276.259 383.377 276.146 383.564 275.952C383.751 275.759 383.855 275.5 383.855 275.231C383.855 274.962 383.751 274.704 383.564 274.51C383.377 274.317 383.122 274.204 382.854 274.194C382.585 274.204 382.33 274.317 382.143 274.51C381.956 274.704 381.852 274.962 381.852 275.231C381.852 275.5 381.956 275.759 382.143 275.952C382.33 276.146 382.585 276.259 382.854 276.268Z" fill="white"/>
<path d="M200.816 219.612C201.085 219.603 201.34 219.489 201.526 219.296C201.713 219.102 201.818 218.844 201.818 218.575C201.818 218.306 201.713 218.048 201.526 217.854C201.34 217.661 201.085 217.547 200.816 217.538C200.547 217.547 200.293 217.661 200.106 217.854C199.919 218.048 199.814 218.306 199.814 218.575C199.814 218.844 199.919 219.102 200.106 219.296C200.293 219.489 200.547 219.603 200.816 219.612Z" fill="white"/>
<path d="M208.033 222.723C208.302 222.713 208.556 222.6 208.743 222.407C208.93 222.213 209.034 221.955 209.034 221.686C209.034 221.417 208.93 221.158 208.743 220.965C208.556 220.772 208.302 220.658 208.033 220.649C207.764 220.658 207.509 220.772 207.323 220.965C207.136 221.158 207.031 221.417 207.031 221.686C207.031 221.955 207.136 222.213 207.323 222.407C207.509 222.6 207.764 222.713 208.033 222.723Z" fill="white"/>
<path d="M217.24 224.091C217.509 224.082 217.764 223.969 217.951 223.775C218.138 223.582 218.242 223.323 218.242 223.054C218.242 222.786 218.138 222.527 217.951 222.334C217.764 222.14 217.509 222.027 217.24 222.018C216.972 222.027 216.717 222.14 216.53 222.334C216.343 222.527 216.239 222.786 216.239 223.054C216.239 223.323 216.343 223.582 216.53 223.775C216.717 223.969 216.972 224.082 217.24 224.091Z" fill="white"/>
<path d="M227.195 223.594C227.463 223.585 227.718 223.471 227.905 223.278C228.092 223.084 228.196 222.826 228.196 222.557C228.196 222.288 228.092 222.029 227.905 221.836C227.718 221.643 227.463 221.529 227.195 221.52C226.926 221.529 226.671 221.643 226.484 221.836C226.297 222.029 226.193 222.288 226.193 222.557C226.193 222.826 226.297 223.084 226.484 223.278C226.671 223.471 226.926 223.585 227.195 223.594Z" fill="white"/>
<path d="M237.522 221.852C237.791 221.842 238.046 221.729 238.232 221.536C238.419 221.342 238.524 221.084 238.524 220.815C238.524 220.546 238.419 220.287 238.232 220.094C238.046 219.9 237.791 219.787 237.522 219.778C237.253 219.787 236.999 219.9 236.812 220.094C236.625 220.287 236.521 220.546 236.521 220.815C236.521 221.084 236.625 221.342 236.812 221.536C236.999 221.729 237.253 221.842 237.522 221.852Z" fill="white"/>
<path d="M247.352 219.985C247.621 219.976 247.875 219.863 248.062 219.669C248.249 219.476 248.354 219.217 248.354 218.949C248.354 218.68 248.249 218.421 248.062 218.228C247.875 218.034 247.621 217.921 247.352 217.912C247.083 217.921 246.828 218.034 246.641 218.228C246.455 218.421 246.35 218.68 246.35 218.949C246.35 219.217 246.455 219.476 246.641 219.669C246.828 219.863 247.083 219.976 247.352 219.985Z" fill="white"/>
<path d="M252.08 210.155C252.349 210.146 252.604 210.033 252.791 209.839C252.978 209.646 253.082 209.387 253.082 209.118C253.082 208.849 252.978 208.591 252.791 208.398C252.604 208.204 252.349 208.091 252.08 208.082C251.812 208.091 251.557 208.204 251.37 208.398C251.183 208.591 251.079 208.849 251.079 209.118C251.079 209.387 251.183 209.646 251.37 209.839C251.557 210.033 251.812 210.146 252.08 210.155Z" fill="white"/>
<path d="M251.209 200.201C251.478 200.192 251.733 200.079 251.919 199.885C252.106 199.692 252.211 199.433 252.211 199.164C252.211 198.895 252.106 198.637 251.919 198.443C251.733 198.25 251.478 198.137 251.209 198.127C250.94 198.137 250.686 198.25 250.499 198.443C250.312 198.637 250.208 198.895 250.208 199.164C250.208 199.433 250.312 199.692 250.499 199.885C250.686 200.079 250.94 200.192 251.209 200.201Z" fill="white"/>
<path d="M252.951 217.621C253.22 217.612 253.474 217.499 253.661 217.305C253.848 217.112 253.953 216.853 253.953 216.584C253.953 216.315 253.848 216.057 253.661 215.863C253.474 215.67 253.22 215.557 252.951 215.547C252.682 215.557 252.427 215.67 252.241 215.863C252.054 216.057 251.949 216.315 251.949 216.584C251.949 216.853 252.054 217.112 252.241 217.305C252.427 217.499 252.682 217.612 252.951 217.621Z" fill="white"/>
<path d="M250.463 191.864C250.731 191.855 250.986 191.742 251.173 191.548C251.36 191.355 251.464 191.096 251.464 190.827C251.464 190.558 251.36 190.3 251.173 190.107C250.986 189.913 250.731 189.8 250.463 189.791C250.194 189.8 249.939 189.913 249.752 190.107C249.565 190.3 249.461 190.558 249.461 190.827C249.461 191.096 249.565 191.355 249.752 191.548C249.939 191.742 250.194 191.855 250.463 191.864Z" fill="white"/>
<path d="M249.467 184.15C249.736 184.141 249.991 184.027 250.177 183.834C250.364 183.64 250.469 183.382 250.469 183.113C250.469 182.844 250.364 182.586 250.177 182.392C249.991 182.199 249.736 182.085 249.467 182.076C249.198 182.085 248.944 182.199 248.757 182.392C248.57 182.586 248.465 182.844 248.465 183.113C248.465 183.382 248.57 183.64 248.757 183.834C248.944 184.027 249.198 184.141 249.467 184.15Z" fill="white"/>
<path d="M247.601 175.315C247.87 175.306 248.124 175.193 248.311 174.999C248.498 174.806 248.603 174.548 248.603 174.279C248.603 174.01 248.498 173.751 248.311 173.558C248.124 173.364 247.87 173.251 247.601 173.242C247.332 173.251 247.077 173.364 246.89 173.558C246.704 173.751 246.599 174.01 246.599 174.279C246.599 174.548 246.704 174.806 246.89 174.999C247.077 175.193 247.332 175.306 247.601 175.315Z" fill="white"/>
<path d="M244.864 168.472C245.132 168.463 245.387 168.35 245.574 168.156C245.761 167.963 245.865 167.704 245.865 167.435C245.865 167.166 245.761 166.908 245.574 166.714C245.387 166.521 245.132 166.408 244.864 166.398C244.595 166.408 244.34 166.521 244.153 166.714C243.966 166.908 243.862 167.166 243.862 167.435C243.862 167.704 243.966 167.963 244.153 168.156C244.34 168.35 244.595 168.463 244.864 168.472Z" fill="white"/>
<path d="M242.375 160.509C242.644 160.5 242.898 160.386 243.085 160.193C243.272 159.999 243.376 159.741 243.376 159.472C243.376 159.203 243.272 158.945 243.085 158.751C242.898 158.558 242.644 158.444 242.375 158.435C242.106 158.444 241.851 158.558 241.664 158.751C241.478 158.945 241.373 159.203 241.373 159.472C241.373 159.741 241.478 159.999 241.664 160.193C241.851 160.386 242.106 160.5 242.375 160.509Z" fill="white"/>
<path d="M241.006 151.674C241.275 151.665 241.53 151.552 241.716 151.358C241.903 151.165 242.008 150.906 242.008 150.637C242.008 150.369 241.903 150.11 241.716 149.917C241.53 149.723 241.275 149.61 241.006 149.601C240.737 149.61 240.483 149.723 240.296 149.917C240.109 150.11 240.004 150.369 240.004 150.637C240.004 150.906 240.109 151.165 240.296 151.358C240.483 151.552 240.737 151.665 241.006 151.674Z" fill="white"/>
<path d="M241.006 142.093C241.275 142.084 241.529 141.971 241.716 141.777C241.903 141.584 242.008 141.325 242.008 141.056C242.008 140.787 241.903 140.529 241.716 140.336C241.529 140.142 241.275 140.029 241.006 140.02C240.737 140.029 240.483 140.142 240.296 140.336C240.109 140.529 240.004 140.787 240.004 141.056C240.004 141.325 240.109 141.584 240.296 141.777C240.483 141.971 240.737 142.084 241.006 142.093Z" fill="white"/>
<path d="M322.951 77.0141C322.579 77.0557 322.221 77.1794 321.903 77.3762C321.568 77.5664 321.247 77.7794 320.942 78.0136C320.328 78.485 319.746 78.9955 319.198 79.5421C318.107 80.6449 317.072 81.803 316.099 83.0119C314.151 85.4325 312.335 87.9589 310.606 90.5492C309.728 91.8331 308.923 93.1668 308.113 94.4986L305.649 98.4691L303.179 102.434L300.83 106.469L300.824 106.479C300.746 106.613 300.618 106.711 300.468 106.75C300.318 106.79 300.159 106.768 300.025 106.69C299.974 106.66 299.928 106.623 299.888 106.58L296.943 103.37C295.96 102.293 295.041 101.169 294.116 100.048C292.245 97.8085 290.52 95.451 288.951 92.9903C288.556 92.3626 288.206 91.7078 287.904 91.0307L287.448 90.0014C287.272 89.6401 287.157 89.2522 287.108 88.8534C287.056 88.4466 287.064 88.0343 287.132 87.6297C287.201 87.2558 287.258 86.9305 287.304 86.5755C287.4 85.8846 287.437 85.1867 287.416 84.4894C287.405 83.8177 287.274 83.1534 287.03 82.5277C286.667 81.8738 286.394 81.1736 286.219 80.4464C285.873 79.0527 285.514 77.658 285.058 76.2966C284.635 74.9308 284.079 73.6096 283.399 72.3517C283.079 71.7364 282.656 71.1795 282.151 70.7043C282.03 70.5973 281.895 70.5071 281.75 70.436L281.539 70.3351L281.321 70.3009C281.18 70.2725 281.033 70.2797 280.895 70.3219C280.757 70.364 280.632 70.4398 280.53 70.5424C280.193 71.1145 280.081 71.7916 280.216 72.4419C280.293 73.1506 280.419 73.8532 280.593 74.5446C280.761 75.2429 280.965 75.9342 281.161 76.6308L281.448 77.6834C281.563 78.0566 281.621 78.4449 281.621 78.8354C281.599 79.0483 281.529 79.2535 281.416 79.4352C281.303 79.6169 281.15 79.7704 280.969 79.884C280.607 80.1067 280.173 80.1814 279.757 80.0926C278.996 79.8842 278.339 79.401 277.914 78.7364C277.062 77.5395 276.356 76.2453 275.81 74.8813C275.523 74.2107 275.26 73.5314 275.013 72.8463L274.831 72.3339C274.774 72.1835 274.704 72.0384 274.622 71.9003C274.462 71.6241 274.245 71.3848 273.986 71.1983C273.467 70.8211 272.82 70.6639 272.186 70.7609C271.878 70.8096 271.583 70.9213 271.319 71.089C271.056 71.2567 270.83 71.4768 270.656 71.7356L270.612 71.7877L270.593 71.8239C270.568 71.8632 270.534 71.8971 270.496 71.9236C270.457 71.9501 270.414 71.9687 270.368 71.9785C270.322 71.9882 270.275 71.9887 270.229 71.9802C270.182 71.9716 270.139 71.954 270.099 71.9285L270.071 71.9078L270.038 71.8814C269.858 71.7384 269.658 71.6238 269.444 71.5415C269.267 71.4656 269.072 71.4477 268.885 71.4903C268.717 71.5472 268.576 71.665 268.491 71.8204C268.436 71.9153 268.386 72.0129 268.341 72.1128L268.232 72.4547C268.211 72.5212 268.174 72.5816 268.125 72.631C268.075 72.6804 268.015 72.7172 267.948 72.7385C267.882 72.7598 267.811 72.765 267.742 72.7535C267.674 72.742 267.609 72.7142 267.553 72.6725L267.542 72.6642C267.4 72.5559 267.234 72.4842 267.058 72.4556C266.99 72.4482 266.921 72.4549 266.855 72.4752C266.79 72.4956 266.729 72.5291 266.678 72.5738C266.403 72.9023 266.228 73.302 266.172 73.7263C266.07 74.2111 266.012 74.704 265.999 75.199C265.959 75.6992 265.989 76.2154 265.984 76.7231C265.984 76.8087 265.963 76.893 265.923 76.9687C265.883 77.0444 265.825 77.1094 265.755 77.1581L265.725 77.1784C265.403 77.4253 265.144 77.7459 264.972 78.1132C264.781 78.5131 264.663 78.9439 264.624 79.3852C264.562 80.3218 264.696 81.2608 265.017 82.1428C265.676 83.9854 266.659 85.695 267.921 87.1908C268.504 87.9568 269.184 88.6452 269.942 89.239C270.723 89.8162 271.558 90.3175 272.435 90.736C273.305 91.1841 274.208 91.5668 275.135 91.8809C275.364 91.9546 275.592 92.0239 275.823 92.0831C276.111 92.1446 276.391 92.2363 276.66 92.3568C277.245 92.6304 277.735 93.0729 278.067 93.6273C278.15 93.7653 278.222 93.9094 278.283 94.0584L278.434 94.4164L278.728 95.1131L279.317 96.5065L280.493 99.293C281.283 101.149 282.036 103.018 282.893 104.843C284.576 108.504 286.373 112.115 288.402 115.577C289.405 117.306 290.499 118.981 291.679 120.595C292.799 122.207 294.138 123.654 295.658 124.895C296.369 125.478 297.206 125.886 298.103 126.086C299.021 126.195 299.951 126.113 300.835 125.844C302.699 125.216 304.451 124.297 306.028 123.122C309.272 120.747 312.275 118.059 314.994 115.096C317.77 112.168 320.426 109.111 322.907 105.918C322.918 105.903 322.935 105.893 322.953 105.891C322.971 105.888 322.989 105.893 323.004 105.904C323.018 105.915 323.028 105.931 323.031 105.948C323.033 105.966 323.029 105.984 323.019 105.999C320.675 109.31 318.159 112.496 315.482 115.543C312.816 118.634 309.852 121.453 306.632 123.962C304.981 125.241 303.136 126.248 301.167 126.945C300.115 127.286 299.004 127.398 297.906 127.276C296.813 127.065 295.786 126.597 294.909 125.912C293.26 124.626 291.801 123.113 290.575 121.42C289.355 119.773 288.226 118.061 287.191 116.292C285.112 112.777 283.284 109.138 281.571 105.453C280.695 103.618 279.931 101.734 279.166 99.8526L278.01 97.0334L277.433 95.624L277.144 94.9193L277.003 94.5769C276.969 94.4912 276.929 94.4083 276.882 94.3289C276.694 94.0065 276.414 93.7479 276.077 93.5867C275.808 93.4451 275.194 93.3402 274.709 93.1568C273.722 92.8115 272.762 92.3931 271.837 91.9048C271.376 91.6654 270.928 91.4193 270.476 91.1539C270.015 90.882 269.573 90.5796 269.153 90.2486C268.323 89.5842 267.58 88.8175 266.942 87.9667C265.615 86.337 264.595 84.4808 263.929 82.4877C263.579 81.4532 263.448 80.3569 263.545 79.2688C263.588 78.6796 263.761 78.107 264.049 77.5915C264.338 77.076 264.737 76.6302 265.217 76.2854L264.957 76.7405C264.976 76.2049 264.96 75.6752 265.017 75.1347C265.049 74.5866 265.129 74.0424 265.257 73.5085C265.364 72.895 265.658 72.3295 266.099 71.8896C266.248 71.768 266.421 71.6787 266.606 71.627C266.792 71.5753 266.986 71.5625 267.176 71.5893C267.518 71.6463 267.837 71.7954 268.1 72.0203L267.41 72.2298L267.564 71.792C267.633 71.6427 267.712 71.4983 267.801 71.3596C268.003 71.0427 268.315 70.8116 268.678 70.7108C269.029 70.6316 269.397 70.6667 269.727 70.811C270.023 70.9324 270.297 71.101 270.54 71.31L269.985 71.3675L270.076 71.2518L270.033 71.3038C270.272 70.9672 270.577 70.6833 270.931 70.4698C271.284 70.2563 271.678 70.1178 272.087 70.0627C272.901 69.957 273.725 70.1776 274.378 70.6765C274.701 70.922 274.969 71.2325 275.165 71.588C275.263 71.7631 275.345 71.9467 275.411 72.1365L275.58 72.6498C275.807 73.3312 276.05 74.0067 276.316 74.6725C276.815 76.0085 277.483 77.275 278.304 78.441C278.655 79.0136 279.204 79.4372 279.847 79.6312C279.991 79.6721 280.142 79.6817 280.29 79.6596C280.438 79.6374 280.58 79.5839 280.705 79.5026C280.831 79.4213 280.938 79.3141 281.019 79.1883C281.099 79.0624 281.153 78.9206 281.174 78.7726C281.165 78.4395 281.113 78.1089 281.02 77.789L280.745 76.7466C280.553 76.0505 280.362 75.3504 280.186 74.644C279.999 73.9347 279.861 73.2134 279.774 72.4851C279.728 72.1106 279.722 71.7326 279.753 71.3568C279.773 70.9436 279.924 70.5473 280.183 70.2251C280.505 69.9468 280.92 69.8018 281.344 69.8199C281.769 69.8379 282.171 70.0176 282.467 70.3221C283.026 70.8289 283.494 71.4273 283.852 72.0915C284.556 73.375 285.152 74.7153 285.632 76.0982C286.136 77.4665 286.541 78.8631 286.934 80.2648C287.118 80.9406 287.395 81.5875 287.757 82.1869C288.068 82.9 288.246 83.6637 288.283 84.4405C288.328 85.1885 288.31 85.9389 288.229 86.6838C288.193 87.0473 288.137 87.4364 288.083 87.775C288.041 88.0862 288.044 88.402 288.093 88.7123C288.142 89.0314 288.246 89.3394 288.402 89.6225L288.853 90.5632C289.158 91.1989 289.509 91.8119 289.902 92.3974C291.477 94.793 293.197 97.0904 295.052 99.2768C296.887 101.496 298.823 103.618 300.747 105.765L299.805 105.877L302.213 101.847L304.739 97.8934L307.271 93.9451C308.12 92.6336 308.966 91.3183 309.886 90.0499C311.681 87.4813 313.605 85.0056 315.65 82.6324C316.688 81.4534 317.785 80.3285 318.938 79.2621C319.518 78.7288 320.134 78.2371 320.783 77.7906C321.111 77.5681 321.453 77.3685 321.809 77.193C322.167 76.9967 322.567 76.8888 322.976 76.8782C322.994 76.8789 323.01 76.8865 323.022 76.8992C323.034 76.9119 323.041 76.9288 323.041 76.9464C323.041 76.9639 323.034 76.9807 323.021 76.9933C323.009 77.0058 322.993 77.0131 322.975 77.0136L322.951 77.0141Z" fill="white"/>
<path d="M243.37 133.757C243.639 133.748 243.894 133.634 244.081 133.441C244.268 133.247 244.372 132.989 244.372 132.72C244.372 132.451 244.268 132.193 244.081 131.999C243.894 131.806 243.639 131.692 243.37 131.683C243.102 131.692 242.847 131.806 242.66 131.999C242.473 132.193 242.369 132.451 242.369 132.72C242.369 132.989 242.473 133.247 242.66 133.441C242.847 133.634 243.102 133.748 243.37 133.757Z" fill="white"/>
<path d="M270.288 71.5952C270.574 72.4065 270.807 73.2093 271.101 73.9907C271.391 74.7715 271.701 75.5405 272.058 76.2876C272.404 77.0399 272.796 77.7708 273.213 78.4918C273.631 79.2135 274.091 79.9119 274.543 80.6417C273.214 79.5391 272.151 78.1511 271.433 76.581C270.691 75.023 270.3 73.3209 270.288 71.5952Z" fill="white"/>
<path d="M267.825 72.3447C267.965 73.362 268.012 74.375 268.21 75.3411C268.403 76.3081 268.702 77.2508 269.102 78.1521C269.503 79.0528 270.002 79.9068 270.589 80.6991C271.202 81.4772 271.842 82.2907 272.415 83.131C271.631 82.4754 270.883 81.7783 270.173 81.0426C268.757 79.4862 267.882 77.5135 267.679 75.4189C267.606 74.392 267.655 73.36 267.825 72.3447Z" fill="white"/>
<path d="M265.47 76.7339C265.747 77.4201 265.984 78.1216 266.18 78.835C266.391 79.5164 266.654 80.1805 266.967 80.8215C267.288 81.465 267.646 82.0897 268.038 82.6926C268.427 83.3248 268.776 83.9806 269.083 84.6563C268.554 84.1363 268.057 83.5838 267.596 83.0019C267.104 82.4294 266.684 81.7986 266.345 81.1237C266.014 80.438 265.782 79.7085 265.657 78.9573C265.545 78.2211 265.483 77.4783 265.47 76.7339Z" fill="white"/>
</svg>
