<svg width="500" height="393" viewBox="0 0 500 393" fill="none" xmlns="http://www.w3.org/2000/svg">
<path d="M286.701 161.108C285.378 164.658 283.649 168.043 281.549 171.195C280.494 172.781 279.309 174.277 278.006 175.667C277.35 176.36 276.664 177.024 275.949 177.661C275.229 178.314 274.447 178.894 273.614 179.393C271.093 180.939 268.103 181.536 265.182 181.076C262.261 180.616 259.599 179.128 257.677 176.881C256.43 175.438 255.361 173.85 254.492 172.152C253.627 170.471 252.852 168.745 252.171 166.981C251.785 166.113 251.466 165.217 251.219 164.3C250.98 163.382 250.791 162.456 250.61 161.529C249.894 157.82 249.353 154.088 248.836 150.353C247.846 142.876 247.096 135.377 246.458 127.863L246.711 128.299C246.167 127.877 245.696 127.369 245.314 126.797C244.943 126.252 244.634 125.669 244.392 125.056C243.924 123.845 243.667 122.562 243.632 121.265C243.592 119.991 243.699 118.717 243.954 117.468C244.219 116.248 244.556 115.045 244.962 113.864C245.314 112.698 245.651 111.517 245.882 110.343C245.938 110.058 245.98 109.77 246.007 109.481C246.019 109.356 246.02 109.23 246.011 109.104C245.989 108.923 245.983 108.74 245.995 108.558C246.062 107.86 246.328 107.195 246.76 106.642C246.982 106.352 247.262 106.113 247.583 105.939C247.926 105.756 248.318 105.687 248.703 105.743C249.063 105.802 249.404 105.946 249.698 106.163C249.992 106.361 250.242 106.617 250.433 106.915C250.776 107.528 250.862 108.253 250.672 108.93C250.503 109.505 250.371 110.091 250.279 110.684L250.272 110.628C250.46 111.717 250.571 112.818 250.604 113.922C250.643 115.02 250.613 116.118 250.514 117.212L250.403 117.205C250.436 116.116 250.401 115.026 250.298 113.942C250.2 112.864 250.027 111.794 249.782 110.74L249.775 110.712L249.775 110.684C249.839 110.057 249.948 109.435 250.102 108.823C250.169 108.563 250.184 108.292 250.146 108.025C250.109 107.759 250.019 107.503 249.882 107.271C249.579 106.848 249.123 106.561 248.61 106.471C248.368 106.462 248.129 106.52 247.916 106.636C247.704 106.753 247.527 106.924 247.404 107.133C247.092 107.569 246.903 108.081 246.858 108.616C246.853 108.741 246.86 108.866 246.88 108.99C246.901 109.171 246.905 109.354 246.893 109.535C246.872 109.859 246.834 110.182 246.779 110.502C246.567 111.75 246.255 112.948 245.927 114.146C245.56 115.303 245.262 116.48 245.034 117.672C244.808 118.84 244.715 120.03 244.757 121.219C244.793 122.387 245.029 123.54 245.455 124.629C245.668 125.161 245.94 125.668 246.265 126.14C246.57 126.591 246.942 126.994 247.366 127.335L247.599 127.508L247.62 127.771C248.212 135.271 248.858 142.775 249.609 150.262C249.984 154.005 250.378 157.751 251.007 161.455C251.175 162.379 251.352 163.301 251.577 164.208C251.809 165.113 252.111 165.998 252.482 166.855C253.178 168.598 253.972 170.3 254.861 171.952C255.743 173.595 256.842 175.111 258.127 176.462C259.38 177.805 260.926 178.841 262.644 179.49C264.352 180.118 266.179 180.36 267.992 180.197C269.8 180.018 271.552 179.463 273.134 178.568C274.698 177.594 276.126 176.417 277.38 175.067C278.668 173.721 279.866 172.291 280.968 170.788C283.142 167.728 285.027 164.473 286.599 161.065L286.701 161.108Z" fill="white"/>
<path d="M261.383 106.545V96.9376L250.461 95.1448V126.323L261.361 123.145L261.383 123.138V123.116L261.283 118.688L259.64 119.002C259.446 118.97 259.273 118.866 259.154 118.709V120.931L252.719 123.566V97.802L259.154 99.2805V107.538C259.769 106.972 260.552 106.624 261.383 106.545ZM259.319 115.752C259.261 115.702 259.204 115.645 259.154 115.595V116.409C259.206 116.353 259.26 116.301 259.319 116.252C259.459 116.131 259.625 116.043 259.804 115.995L259.319 115.752ZM259.154 111.823V112.73C259.241 112.614 259.337 112.504 259.44 112.402C259.325 112.22 259.229 112.026 259.154 111.823L259.154 111.823ZM259.154 109.973V110.366C259.206 110.26 259.279 110.165 259.369 110.088C259.294 110.056 259.222 110.018 259.154 109.973L259.154 109.973Z" fill="white"/>
<path d="M258.79 117.609C258.805 117.835 258.849 118.058 258.919 118.274L252.719 121.066C252.719 121.066 252.919 106.788 256.04 105.824C252.826 105.824 252.833 100.845 256.04 100.845C259.183 100.845 259.233 105.616 256.219 105.809C256.747 105.831 258.29 106.495 258.904 113.116C258.66 113.475 258.544 113.905 258.573 114.338C258.603 114.77 258.778 115.181 259.069 115.502C259.09 115.809 259.097 116.131 259.112 116.466C258.864 116.793 258.749 117.201 258.79 117.609Z" fill="white"/>
<path d="M260.774 123.313C262.167 127.897 263.35 132.511 264.551 137.121L266.319 144.044C266.918 146.35 267.497 148.666 268.056 150.993C266.162 146.594 264.631 142.047 263.48 137.397C262.263 132.768 261.359 128.063 260.774 123.313Z" fill="white"/>
<path d="M263.541 157.501C263.755 156.762 264.058 156.053 264.443 155.387C264.811 154.72 265.236 154.086 265.713 153.493C266.19 152.885 266.737 152.335 267.343 151.855C267.652 151.607 267.989 151.394 268.347 151.221C268.706 151.03 269.113 150.951 269.517 150.993C268.903 151.384 268.369 151.888 267.942 152.477L266.575 154.186C266.111 154.755 265.648 155.332 265.145 155.884C264.648 156.46 264.112 157 263.541 157.501Z" fill="white"/>
<path d="M299.05 141.06C297.332 144.453 295.601 147.835 293.99 151.267C293.164 152.973 292.394 154.704 291.652 156.439C290.897 158.153 290.272 159.92 289.782 161.727L289.668 162.183L289.228 162.099C287.177 161.687 285.161 161.114 283.199 160.387C281.243 159.672 279.337 158.831 277.491 157.868C275.654 156.891 273.896 155.774 272.232 154.526C270.594 153.228 269.119 151.736 267.841 150.081L267.752 149.968L267.818 149.82C269.871 145.168 272.003 140.553 274.351 136.037C275.523 133.778 276.713 131.526 278.018 129.329C278.672 128.231 279.348 127.143 280.086 126.084C280.456 125.556 280.849 125.038 281.265 124.53C281.696 123.987 282.198 123.504 282.758 123.096L282.702 123.137C284.096 122.042 285.555 121.035 287.072 120.119C288.571 119.194 290.118 118.348 291.707 117.585C293.291 116.821 294.918 116.145 296.577 115.562C298.235 114.984 299.927 114.512 301.645 114.15L301.672 114.257C300.004 114.764 298.365 115.358 296.76 116.038C295.154 116.7 293.587 117.45 292.064 118.287C290.539 119.111 289.038 119.983 287.595 120.942C286.153 121.887 284.762 122.907 283.426 123.997L283.37 124.038C282.467 124.824 281.687 125.741 281.056 126.758C280.349 127.787 279.675 128.85 279.029 129.933C277.733 132.097 276.486 134.296 275.286 136.531C274.09 138.763 272.91 141.006 271.746 143.26C270.588 145.515 269.408 147.764 268.295 150.041L268.272 149.78C269.448 151.458 270.857 152.961 272.455 154.243C274.076 155.51 275.826 156.601 277.677 157.5C279.538 158.372 281.459 159.11 283.426 159.707C285.381 160.306 287.371 160.784 289.384 161.137L288.831 161.509C289.308 159.638 289.957 157.814 290.768 156.061C291.532 154.307 292.371 152.592 293.245 150.898C295.021 147.524 296.897 144.21 298.954 141.004L299.05 141.06Z" fill="white"/>
<path d="M290.369 121.066C291.463 120.726 292.612 120.602 293.752 120.7C294.925 120.778 296.069 121.095 297.114 121.632C298.179 122.199 299.052 123.068 299.625 124.13C300.171 125.16 300.415 126.323 300.33 127.485C299.998 126.454 299.514 125.479 298.894 124.59C298.284 123.764 297.496 123.086 296.588 122.605C295.653 122.123 294.658 121.769 293.628 121.552C292.553 121.321 291.465 121.159 290.369 121.066Z" fill="white"/>
<path d="M295.35 87.7734C294.981 88.542 294.712 89.3547 294.55 90.1917C294.393 91.0208 294.298 91.8604 294.266 92.7036C294.24 93.5438 294.266 94.3848 294.341 95.222C294.42 96.0585 294.556 96.8879 294.705 97.7144L294.741 97.9154L294.616 98.0923C294.203 98.6795 293.801 99.284 293.405 99.8843C293.011 100.483 292.615 101.091 292.289 101.699C292.205 101.852 292.134 102.001 292.069 102.146L291.998 102.339C291.989 102.366 291.998 102.361 291.992 102.372L291.984 102.382C291.99 102.365 291.991 102.348 291.987 102.33C291.936 102.191 291.94 102.285 292.073 102.333C292.204 102.398 292.34 102.45 292.481 102.488C293.146 102.659 293.827 102.764 294.513 102.803L294.906 102.832L295.003 103.204C295.261 104.2 295.573 105.182 295.939 106.144C296.295 107.112 296.72 108.053 297.21 108.96C297.683 109.87 298.278 110.71 298.98 111.458C299.686 112.22 300.631 112.72 301.658 112.875C300.568 112.888 299.51 112.501 298.686 111.788C297.851 111.093 297.133 110.27 296.558 109.349C295.982 108.442 295.479 107.49 295.055 106.502C294.629 105.514 294.266 104.5 293.97 103.466L294.459 103.867C293.69 103.834 292.927 103.725 292.18 103.54C291.968 103.484 291.763 103.408 291.567 103.311C291.444 103.252 291.329 103.177 291.225 103.087C291.154 103.027 291.093 102.958 291.042 102.88C290.974 102.789 290.928 102.683 290.909 102.571C290.895 102.51 290.885 102.448 290.88 102.386L290.894 102.262C290.904 102.182 290.92 102.104 290.941 102.027C290.98 101.922 291.019 101.806 291.061 101.71C291.147 101.523 291.236 101.345 291.33 101.18C291.701 100.509 292.111 99.9018 292.524 99.2904C292.943 98.6837 293.379 98.0978 293.825 97.5093L293.737 97.8869L293.569 96.5843C293.545 96.146 293.501 95.7105 293.495 95.2721C293.466 94.396 293.507 93.5189 293.617 92.6493C293.724 91.7809 293.918 90.9256 294.197 90.0961C294.455 89.2655 294.844 88.4815 295.35 87.7734Z" fill="white"/>
<path d="M293.424 86.8439C293.424 86.8439 299.002 94.2814 304.182 95.1448C304.182 95.1448 306.705 90.0315 308.963 93.4846C311.221 96.9378 308.963 100.325 307.569 100.657C307.569 100.657 300.795 106.832 301.193 116.661C301.193 116.661 314.01 117.922 322.51 114.204C331.01 110.485 334.995 107.032 334.995 107.032C334.995 107.032 325.698 98.1331 323.174 91.7581C320.651 85.383 319.721 78.3439 311.487 79.2736C303.252 80.2033 299.268 81.3986 293.424 86.8439Z" fill="white"/>
<path d="M295.563 106.483C296.197 106.333 296.817 106.132 297.418 105.882C297.692 105.752 297.947 105.587 298.177 105.39C298.415 105.167 298.625 104.915 298.803 104.641C298.818 105.008 298.713 105.37 298.504 105.672C298.285 105.976 297.993 106.22 297.654 106.382C296.997 106.685 296.247 106.722 295.563 106.483Z" fill="white"/>
<path d="M297.276 97.9007C297.491 97.8932 297.695 97.8025 297.844 97.6476C297.994 97.4928 298.077 97.2859 298.077 97.0706C298.077 96.8553 297.994 96.6483 297.844 96.4935C297.695 96.3386 297.491 96.2479 297.276 96.2405C297.06 96.2479 296.856 96.3386 296.707 96.4935C296.557 96.6483 296.474 96.8553 296.474 97.0706C296.474 97.2859 296.557 97.4928 296.707 97.6476C296.856 97.8025 297.06 97.8932 297.276 97.9007Z" fill="white"/>
<path d="M295.563 95.3439C295.732 95.011 296.002 94.7405 296.336 94.5717C296.651 94.3934 296.989 94.2566 297.34 94.1649C298.034 93.9781 298.761 93.9498 299.467 94.0822C298.821 94.3364 298.157 94.5429 297.48 94.6998C297.153 94.7811 296.831 94.8727 296.51 94.965C296.18 95.0512 295.861 95.1785 295.563 95.3439Z" fill="white"/>
<path d="M307.834 98.8884C307.995 98.8829 308.148 98.8148 308.26 98.6987C308.373 98.5825 308.435 98.4274 308.435 98.2659C308.435 98.1044 308.373 97.9492 308.26 97.8331C308.148 97.7169 307.995 97.6489 307.834 97.6433C307.672 97.6489 307.52 97.7169 307.407 97.8331C307.295 97.9492 307.232 98.1044 307.232 98.2659C307.232 98.4274 307.295 98.5825 307.407 98.6987C307.52 98.8148 307.672 98.8829 307.834 98.8884Z" fill="white"/>
<path d="M330.714 109.989C332.601 110.387 334.424 111.039 336.136 111.927C337.868 112.803 339.489 113.886 340.962 115.152C342.434 116.438 343.694 117.949 344.694 119.629C345.673 121.308 346.304 123.166 346.549 125.094C345.897 123.328 345.03 121.648 343.966 120.094C342.886 118.583 341.633 117.204 340.232 115.983C338.817 114.762 337.307 113.657 335.715 112.677C334.102 111.685 332.432 110.787 330.714 109.989Z" fill="white"/>
<path d="M251.805 165.803C247.675 163.211 243.196 161.223 238.504 159.898C233.855 158.549 229.013 157.991 224.179 158.25C219.37 158.534 214.672 159.815 210.384 162.011C206.106 164.161 202.289 167.224 198.615 170.397C191.343 176.926 184.63 184.053 178.547 191.702C172.434 199.337 166.697 207.287 161.346 215.457L161.392 215.375C161.139 216.151 160.998 216.96 160.973 217.776C160.978 218.199 160.946 218.619 160.975 219.041L161.086 220.308C161.152 220.727 161.246 221.145 161.324 221.563C161.367 221.772 161.4 221.982 161.451 222.189L161.641 222.803L162.018 224.03C162.162 224.433 162.349 224.823 162.511 225.221L163.018 226.406L163.641 227.542L164.262 228.678C164.478 229.051 164.74 229.4 164.974 229.764L165.696 230.845C165.927 231.213 166.18 231.565 166.456 231.9L168.088 233.936C168.619 234.625 169.265 235.222 169.848 235.869C170.457 236.494 171.015 237.166 171.666 237.751L173.596 239.529C174.239 240.122 174.87 240.727 175.568 241.26L177.613 242.912C178.299 243.457 178.959 244.034 179.688 244.527L183.955 247.615L184.236 247.818L184.313 248.131C184.739 249.841 185.158 251.548 185.555 253.269C185.748 254.135 185.94 254.985 186.104 255.892L186.16 256.256L186.182 256.508L186.186 256.571C186.191 256.523 186.189 256.475 186.18 256.428C186.169 256.367 186.149 256.308 186.12 256.253C186.089 256.195 186.049 256.15 186.064 256.165C186.069 256.16 186.059 256.153 186.064 256.161L186.146 256.227C186.191 256.271 186.287 256.328 186.355 256.379C186.694 256.599 187.045 256.801 187.406 256.982C188.938 257.736 190.531 258.36 192.168 258.846C193.816 259.354 195.493 259.768 197.188 260.086C200.596 260.722 204.059 261.008 207.525 260.939C211.002 260.865 214.465 260.483 217.874 259.798L217.492 260.442L215.011 251.227L212.593 241.994L212.753 241.947L215.648 251.042L218.479 260.156L218.64 260.673L218.097 260.8C216.371 261.204 214.629 261.546 212.872 261.805C211.113 262.051 209.341 262.202 207.564 262.279C204.001 262.428 200.433 262.211 196.914 261.633C193.355 261.088 189.891 260.04 186.627 258.52C186.202 258.312 185.788 258.079 185.389 257.823C185.279 257.745 185.184 257.692 185.063 257.591L184.89 257.45C184.81 257.373 184.735 257.291 184.664 257.205C184.625 257.157 184.593 257.104 184.567 257.048C184.527 256.968 184.496 256.884 184.474 256.798C184.457 256.725 184.446 256.652 184.44 256.577L184.436 256.558L184.427 256.482L184.379 256.196C184.223 255.376 184.021 254.514 183.823 253.668C183.429 251.966 183.016 250.259 182.595 248.561L182.953 249.076L178.624 245.931C177.891 245.422 177.223 244.824 176.53 244.261L174.466 242.551C173.763 241.999 173.123 241.372 172.472 240.757L170.519 238.913C169.862 238.306 169.291 237.605 168.673 236.956C168.081 236.282 167.429 235.663 166.886 234.943C164.536 232.187 162.625 229.086 161.219 225.748C159.916 222.388 159.052 218.625 160.36 214.91L160.372 214.875L160.405 214.827C163.228 210.806 166.139 206.869 169.105 202.967C172.079 199.073 175.057 195.182 178.157 191.388C184.324 183.782 190.571 176.196 197.759 169.448C199.545 167.751 201.446 166.172 203.403 164.654C205.387 163.145 207.5 161.814 209.718 160.676C214.205 158.453 219.105 157.186 224.108 156.956C229.079 156.763 234.044 157.468 238.765 159.038C239.943 159.41 241.101 159.841 242.245 160.301C243.381 160.781 244.506 161.286 245.605 161.84C247.814 162.926 249.921 164.207 251.902 165.668L251.805 165.803Z" fill="white"/>
<path d="M385.333 134.924C382.94 123.766 363.819 125.095 363.819 125.095C317.597 123.766 306.176 137.152 306.176 137.152C296.083 145.495 283.597 180.724 283.597 180.724L220.933 182.109C217.124 182.167 213.435 183.444 210.405 185.752C201.976 192.274 203.64 200.795 203.64 200.795C205.762 216.409 213.14 243.581 213.14 243.581C224.497 251.302 314.212 248.874 314.212 248.874C345.09 243.031 358.505 236.395 359.297 231.345C360.097 226.295 371.783 187.252 378.426 168.124C385.069 149.002 387.719 146.081 385.333 134.924ZM291.897 201.359C291.597 205.095 291.343 208.835 291.133 212.581L290.476 223.816C290.276 227.566 290.026 231.309 289.769 235.066C289.605 231.309 289.555 227.55 289.619 223.788C289.655 220.023 289.812 216.266 290.026 212.516C290.14 210.638 290.29 208.759 290.44 206.888C290.633 205.016 290.783 203.138 291.04 201.273C291.458 197.529 292.143 193.82 293.09 190.173C292.519 193.888 292.219 197.631 291.897 201.359ZM312.869 146.438C310.443 149.621 308.272 152.991 306.376 156.516C304.475 160.046 302.765 163.675 301.255 167.388C300.483 169.245 299.769 171.123 299.097 173.023C298.405 174.909 297.776 176.823 297.183 178.752C297.533 176.759 298.062 174.809 298.583 172.852C299.155 170.916 299.781 168.995 300.462 167.088C301.831 163.27 303.483 159.56 305.405 155.988C306.39 154.209 307.426 152.466 308.547 150.773C309.678 149.083 310.902 147.457 312.212 145.902C313.535 144.361 314.947 142.899 316.44 141.523C317.965 140.19 319.594 138.982 321.312 137.909C318.155 140.391 315.319 143.256 312.869 146.438V146.438ZM319.719 231.223L319.705 231.031L322.355 230.702L322.397 230.995L319.719 231.223ZM325.062 230.595L324.983 230.202L327.59 229.602L327.697 230.088L325.062 230.595ZM330.319 229.509L330.176 228.924L332.755 228.216L332.926 228.859L330.319 229.509ZM335.519 228.174L335.319 227.466L337.876 226.688L338.105 227.445L335.519 228.174ZM340.676 226.688L340.426 225.874L342.962 225.038L343.247 225.909L340.676 226.688ZM345.805 225.109L345.497 224.181L348.019 223.295L348.355 224.281L345.805 225.109ZM352.433 222.531L352.405 222.888L352.076 223.002L350.897 223.416L350.54 222.409L351.376 222.109L351.44 221.209L352.526 221.302L352.433 222.531ZM352.797 218.895L351.697 218.752L352.033 216.331L353.147 216.509L352.797 218.895ZM353.562 214.131L352.433 213.931L352.883 211.538L354.019 211.759L353.562 214.131ZM354.526 209.402L353.369 209.152L353.89 206.774L355.062 207.045L354.526 209.402ZM355.626 204.695L354.44 204.402L355.019 202.045L356.219 202.345L355.626 204.695ZM356.826 200.002L355.619 199.688L356.262 197.338L357.44 197.659L356.826 200.002ZM358.076 195.324L356.912 194.995L357.583 192.659L358.726 192.988L358.076 195.324ZM359.39 190.659L358.269 190.331L358.962 188.002L360.069 188.331L359.39 190.659ZM360.762 186.009L359.676 185.681L360.397 183.366L361.462 183.695L360.762 186.009ZM362.176 181.381L361.126 181.052L361.869 178.738L362.897 179.066L362.176 181.381ZM363.626 176.759L362.619 176.431L363.39 174.131L364.362 174.452L363.626 176.759ZM365.09 172.138L364.176 171.838L364.969 169.545L365.833 169.831L365.09 172.138ZM366.576 167.531L365.769 167.252L366.576 164.966L367.333 165.224L366.576 167.531ZM368.097 162.931L367.397 162.688L368.219 160.402L368.869 160.631L368.097 162.931ZM369.647 158.338L369.047 158.131L369.897 155.859L370.412 156.038L369.647 158.338ZM371.19 153.745L370.755 153.588L371.626 151.331L371.969 151.452L371.19 153.745ZM372.755 149.159L372.497 149.066L373.376 146.809L373.554 146.874L372.755 149.159Z" fill="white"/>
<path d="M183.454 248.346C185.777 243.436 188.391 238.693 191.076 233.991C193.79 229.306 196.577 224.663 199.657 220.189C197.336 225.1 194.722 229.843 192.035 234.543C189.319 239.227 186.532 243.87 183.454 248.346Z" fill="white"/>
<path d="M252.171 248.767C252.152 252.158 251.927 255.526 251.653 258.903C251.496 260.587 251.319 262.273 251.12 263.959C250.894 265.639 250.641 267.32 250.36 269.001C250.079 270.682 249.866 272.395 249.588 274.11C249.296 275.835 248.753 277.509 247.975 279.077C247.177 280.721 246.159 282.25 244.95 283.621C244.638 283.973 244.279 284.315 243.936 284.64C243.566 284.967 243.178 285.274 242.774 285.558C241.935 286.169 240.944 286.535 239.911 286.618L239.623 286.043C239.997 285.323 240.275 284.556 240.45 283.764L240.711 282.62L240.949 281.468C241.265 279.933 241.579 278.385 241.949 276.837C242.321 275.277 242.837 273.754 243.489 272.288C244.156 270.797 244.843 269.29 245.377 267.73C245.922 266.173 246.446 264.604 246.949 263.021C247.484 261.447 248.001 259.863 248.502 258.269C249.54 255.092 250.516 251.883 251.535 248.67L252.171 248.767Z" fill="white"/>
<path d="M290.084 249.151L300.593 281.21C301.478 283.869 302.482 286.491 303.485 289.102C304.469 291.706 305.301 294.365 305.977 297.066C306.658 299.758 307.258 302.471 307.834 305.185C308.123 306.539 308.397 307.906 308.7 309.247C308.939 310.595 309.321 311.914 309.838 313.182L309.416 313.667C309.063 313.48 308.726 313.264 308.408 313.022C308.122 312.772 307.819 312.51 307.539 312.239C307.015 311.693 306.52 311.121 306.055 310.524C305.157 309.351 304.338 308.119 303.603 306.838C302.171 304.336 300.922 301.734 299.863 299.053C298.809 296.412 297.979 293.686 297.381 290.906C296.783 288.129 296.264 285.341 295.637 282.585L293.845 274.307L292.236 265.996C291.231 260.442 290.255 254.889 289.458 249.297L290.084 249.151Z" fill="white"/>
<path d="M352.21 238.007C353.71 243.808 355.418 249.54 357.333 255.2C358.285 258.027 359.26 260.84 360.326 263.617L361.089 265.71L361.904 267.782C362.458 269.159 362.961 270.553 363.564 271.907C364.152 273.267 364.744 274.623 365.364 275.966L367.345 279.932C367.962 281.271 368.652 282.569 369.261 283.904C369.89 285.227 370.398 286.613 370.996 287.949C373.18 293.425 375.511 298.768 377.361 304.741L376.832 305.107C375.615 304.121 374.52 303.029 373.41 301.932C372.874 301.373 372.305 300.826 371.82 300.23C371.327 299.639 370.843 299.039 370.367 298.431C369.892 297.823 369.42 297.212 368.961 296.59C368.493 295.974 368.038 295.348 367.632 294.699C366.801 293.408 366.003 292.093 365.219 290.769C364.459 289.438 363.77 288.066 363.156 286.661C362.841 285.963 362.541 285.259 362.251 284.55C361.958 283.842 361.735 283.109 361.474 282.39L360.056 278.027C359.633 276.559 359.182 275.105 358.727 273.653C358.245 272.211 357.868 270.737 357.44 269.28L356.815 267.092L356.245 264.889C355.498 261.949 354.849 258.989 354.228 256.029C353.015 250.108 352.129 244.124 351.574 238.105L352.21 238.007Z" fill="white"/>
<path d="M220.813 246.129C218.695 251.473 216.423 256.742 214.127 262.007L210.598 269.865L206.913 277.655C205.665 280.244 204.505 282.884 203.288 285.502C202.065 288.121 200.634 290.636 199.009 293.026C197.373 295.451 195.573 297.762 193.623 299.944C192.622 301.06 191.553 302.113 190.422 303.098C189.83 303.601 189.208 304.069 188.562 304.5C188.215 304.723 187.853 304.92 187.478 305.091L187.175 305.208L186.832 305.298C186.704 305.323 186.574 305.336 186.443 305.335C186.295 305.325 186.15 305.29 186.014 305.231L186.206 304.618C186.397 304.451 186.56 304.254 186.69 304.036C186.874 303.762 187.041 303.477 187.19 303.183C187.502 302.573 187.814 301.952 188.095 301.306L189.831 297.441C190.996 294.86 192.196 292.291 193.473 289.759C194.747 287.221 196.17 284.761 197.736 282.391C199.315 280.017 200.913 277.643 202.393 275.202L211.276 260.523L220.239 245.841L220.813 246.129Z" fill="white"/>
<path d="M129.524 229.161C129.524 229.161 132.324 235.876 129 238.773C124.062 236.689 119.856 233.184 116.917 228.703C116.917 228.703 105.644 228.609 126.012 244.683C126.012 244.683 151.845 267.11 153.815 267.503C158.763 268.491 157.489 261.248 157.489 261.248C157.489 261.248 140.689 249.559 137.825 246.273C137.825 246.273 139.843 237.207 137.234 233.631L129.524 229.161Z" fill="white"/>
<path d="M116.917 228.703C117.769 228.116 118.775 227.792 119.809 227.774C120.839 227.711 121.873 227.775 122.887 227.964C124.905 228.363 126.873 228.981 128.757 229.806L131.531 231.086C132.449 231.505 133.385 231.885 134.33 232.232C136.217 232.929 138.163 233.455 140.144 233.802C142.119 234.155 144.13 234.257 146.131 234.104C147.13 234.03 148.123 233.884 149.102 233.669C150.085 233.464 151.053 233.197 152.003 232.87C153.908 232.203 155.732 231.324 157.44 230.248C159.166 229.177 160.805 227.973 162.342 226.645C159.474 229.588 156.02 231.897 152.203 233.422C148.316 234.888 144.108 235.286 140.015 234.574C135.927 233.928 132.095 232.219 128.481 230.423C126.668 229.541 124.764 228.857 122.804 228.383C121.826 228.151 120.824 228.026 119.819 228.011C119.316 228.012 118.814 228.062 118.321 228.161C117.82 228.243 117.342 228.428 116.917 228.703Z" fill="white"/>
<path d="M173.47 240.585C171.851 242.088 170.282 243.635 168.763 245.226C168.009 246.024 167.278 246.844 166.597 247.696C165.902 248.519 165.292 249.411 164.778 250.359C164.547 250.834 164.366 251.332 164.24 251.846C164.081 252.389 163.893 252.923 163.675 253.446C163.22 254.475 162.675 255.462 162.045 256.395C160.792 258.243 159.254 259.881 157.489 261.248C158.971 259.631 160.296 257.877 161.447 256.01C162.01 255.086 162.51 254.125 162.943 253.134C163.133 252.631 163.353 252.138 163.495 251.62C163.641 251.064 163.847 250.524 164.11 250.012C165.286 248.1 166.733 246.369 168.407 244.873C170.006 243.342 171.696 241.91 173.47 240.585Z" fill="white"/>
<path d="M170.31 286.229C170.31 286.229 177.218 288.51 177.231 292.92C172.423 295.287 167.019 296.17 161.708 295.456C161.708 295.456 154.254 303.914 179.741 299.049C179.741 299.049 213.606 294.214 215.194 292.982C219.181 289.89 212.874 286.109 212.874 286.109C212.874 286.109 193.037 291.15 188.679 291.162C188.679 291.162 183.148 283.7 178.738 283.329L170.31 286.229Z" fill="white"/>
<path d="M161.708 295.457C161.822 294.428 162.236 293.456 162.9 292.662C163.527 291.843 164.252 291.103 165.059 290.461C166.682 289.197 168.438 288.114 170.296 287.231L173.08 285.974C173.998 285.553 174.897 285.095 175.779 284.608C177.541 283.639 179.213 282.513 180.773 281.243C182.333 279.982 183.727 278.528 184.921 276.916C185.52 276.112 186.061 275.267 186.539 274.386C187.027 273.509 187.46 272.602 187.835 271.671C188.579 269.794 189.108 267.839 189.414 265.844C189.735 263.839 189.898 261.811 189.902 259.78C190.247 263.875 189.73 267.998 188.384 271.881C186.946 275.778 184.49 279.219 181.271 281.846C178.107 284.512 174.305 286.289 170.581 287.843C168.727 288.636 166.964 289.627 165.322 290.797C164.505 291.385 163.755 292.06 163.086 292.811C162.756 293.191 162.466 293.603 162.218 294.041C161.952 294.473 161.779 294.955 161.708 295.457Z" fill="white"/>
<path d="M207.724 260.5C207.8 262.708 207.941 264.907 208.148 267.096C208.257 268.189 208.398 269.278 208.596 270.351C208.763 271.415 209.038 272.46 209.418 273.469C209.625 273.955 209.883 274.418 210.189 274.85C210.495 275.325 210.775 275.818 211.028 276.324C211.508 277.342 211.896 278.401 212.189 279.488C212.765 281.645 212.996 283.88 212.874 286.109C212.622 283.93 212.164 281.78 211.506 279.688C211.177 278.657 210.778 277.65 210.313 276.673C210.057 276.2 209.829 275.711 209.531 275.265C209.205 274.79 208.933 274.281 208.718 273.747C208.043 271.606 207.683 269.378 207.648 267.134C207.538 264.923 207.563 262.708 207.724 260.5Z" fill="white"/>
<path d="M261.383 123.138L261.186 118.69L261.301 118.784L259.666 119.134C259.652 119.137 259.639 119.137 259.625 119.135L259.617 119.134C259.389 119.1 259.183 118.978 259.041 118.796L259.048 118.803C258.79 118.454 258.645 118.034 258.632 117.601C258.588 117.158 258.711 116.716 258.977 116.359L258.969 116.371L259.011 116.313L259.02 116.3L259.024 116.295C259.123 116.187 259.234 116.091 259.354 116.007C259.48 115.92 259.621 115.855 259.77 115.816L259.723 116.158L259.234 115.921C259.221 115.915 259.209 115.907 259.198 115.897L259.194 115.894C258.93 115.67 258.713 115.396 258.555 115.087C258.4 114.765 258.335 114.406 258.366 114.05C258.402 113.703 258.508 113.366 258.678 113.061C258.761 112.913 258.856 112.774 258.945 112.631C259.046 112.493 259.168 112.365 259.281 112.233L259.243 112.525C259.005 112.139 258.843 111.711 258.766 111.265C258.732 111.024 258.75 110.78 258.816 110.546C258.888 110.295 259.029 110.069 259.223 109.894L259.282 110.314C259.022 110.2 258.786 110.038 258.588 109.835C258.376 109.621 258.241 109.342 258.204 109.043C258.194 108.761 258.245 108.481 258.353 108.22C258.461 107.96 258.623 107.725 258.829 107.533C259.551 106.753 260.553 106.292 261.615 106.251C262.123 106.208 262.634 106.212 263.141 106.264C263.393 106.289 263.644 106.327 263.893 106.374L264.268 106.455C264.416 106.494 264.556 106.559 264.683 106.644C264.937 106.805 265.138 107.036 265.261 107.31C265.373 107.586 265.405 107.888 265.355 108.182C265.233 108.702 264.998 109.19 264.668 109.611L264.569 109.227C264.89 109.386 265.188 109.588 265.456 109.828C265.736 110.07 265.961 110.37 266.115 110.708C266.271 111.067 266.296 111.469 266.185 111.844C266.079 112.197 265.9 112.525 265.66 112.805L265.638 112.476C265.962 112.791 266.246 113.145 266.484 113.529C266.739 113.917 266.906 114.356 266.975 114.816C267.037 115.3 266.912 115.789 266.625 116.185C266.343 116.552 265.981 116.851 265.567 117.058L265.655 116.817C265.862 117.406 265.978 118.023 266.001 118.647C266.035 119.277 265.914 119.906 265.647 120.478C265.37 121.053 264.899 121.511 264.317 121.773C264.039 121.91 263.748 122.016 263.447 122.09C263.147 122.155 262.842 122.186 262.541 122.236L262.566 122.229C262.126 122.454 261.735 122.765 261.417 123.144L261.414 123.147C261.414 123.147 261.412 123.145 261.405 123.145L261.395 123.172C260.979 123.667 260.701 124.264 260.59 124.902C260.675 124.253 260.929 123.637 261.328 123.118L261.319 123.145C261.326 123.123 261.338 123.103 261.352 123.086L261.349 123.089C261.662 122.682 262.053 122.342 262.5 122.09L262.511 122.086L262.525 122.083C262.817 122.021 263.112 121.978 263.398 121.903C263.679 121.82 263.951 121.707 264.208 121.566C264.725 121.305 265.139 120.876 265.38 120.35C265.611 119.818 265.707 119.239 265.661 118.662C265.625 118.079 265.502 117.505 265.297 116.959C265.281 116.917 265.28 116.87 265.294 116.827C265.308 116.784 265.337 116.748 265.375 116.724L265.385 116.717C265.738 116.531 266.045 116.268 266.282 115.947C266.5 115.634 266.588 115.25 266.529 114.874C266.342 114.085 265.918 113.371 265.314 112.828C265.271 112.786 265.245 112.73 265.241 112.671C265.236 112.611 265.253 112.552 265.288 112.504L265.292 112.499C265.485 112.27 265.629 112.005 265.714 111.719C265.795 111.449 265.775 111.159 265.66 110.902C265.369 110.366 264.911 109.941 264.355 109.692L264.351 109.69C264.321 109.674 264.294 109.653 264.271 109.627C264.249 109.602 264.232 109.572 264.221 109.539C264.21 109.507 264.206 109.473 264.209 109.439C264.211 109.405 264.22 109.371 264.236 109.341L264.256 109.307C264.533 108.95 264.732 108.537 264.838 108.097C264.877 107.905 264.855 107.705 264.776 107.526C264.696 107.346 264.563 107.196 264.394 107.095C264.316 107.043 264.231 107.004 264.141 106.978L263.794 106.907C263.56 106.864 263.322 106.833 263.085 106.807C262.613 106.755 262.136 106.747 261.662 106.783C261.202 106.794 260.748 106.895 260.327 107.082C259.906 107.269 259.526 107.538 259.209 107.872C259.051 108.012 258.924 108.183 258.836 108.375C258.748 108.567 258.701 108.776 258.698 108.987C258.741 109.184 258.833 109.368 258.966 109.521C259.098 109.673 259.267 109.79 259.456 109.861L259.465 109.865C259.494 109.879 259.52 109.898 259.542 109.922C259.564 109.946 259.581 109.974 259.592 110.005C259.603 110.035 259.608 110.067 259.607 110.1C259.606 110.132 259.598 110.164 259.584 110.193C259.568 110.228 259.544 110.258 259.515 110.282C259.405 110.396 259.323 110.534 259.276 110.686C259.227 110.855 259.214 111.033 259.237 111.208C259.261 111.397 259.31 111.581 259.382 111.756L259.638 112.279C259.66 112.325 259.669 112.377 259.663 112.428C259.657 112.479 259.636 112.527 259.604 112.567L259.6 112.571C259.507 112.683 259.406 112.785 259.318 112.902C259.237 113.028 259.148 113.15 259.072 113.278C258.923 113.528 258.828 113.805 258.79 114.092C258.766 114.379 258.813 114.668 258.927 114.932C259.041 115.197 259.218 115.43 259.443 115.61L259.403 115.583L259.886 115.832C259.929 115.854 259.962 115.892 259.977 115.939C259.991 115.985 259.987 116.035 259.965 116.079C259.952 116.103 259.934 116.123 259.912 116.14C259.891 116.156 259.866 116.168 259.839 116.174C259.736 116.202 259.637 116.246 259.548 116.305C259.453 116.368 259.364 116.441 259.285 116.523L259.298 116.505L259.255 116.562L259.246 116.573C259.024 116.86 258.917 117.218 258.946 117.579C258.947 117.948 259.057 118.308 259.261 118.615L259.268 118.623C259.364 118.752 259.505 118.84 259.663 118.87L259.615 118.87L261.265 118.592L261.269 118.591C261.294 118.587 261.32 118.593 261.34 118.608C261.361 118.622 261.375 118.645 261.379 118.67L261.381 118.686L261.383 123.138Z" fill="white"/>
<path d="M263.599 119.956C263.479 119.514 263.216 119.125 262.851 118.849C262.676 118.742 262.471 118.695 262.266 118.717C262.046 118.747 261.829 118.799 261.618 118.872C261.151 119.018 260.676 119.133 260.194 119.216C259.932 119.257 259.665 119.254 259.404 119.208C259.246 119.183 259.099 119.115 258.978 119.01C258.858 118.906 258.77 118.769 258.724 118.616L258.733 118.639C258.643 118.386 258.589 118.122 258.571 117.855C258.551 117.591 258.575 117.325 258.642 117.069C258.704 116.813 258.821 116.573 258.985 116.366C259.149 116.163 259.345 115.989 259.565 115.849L259.574 116.006C259.239 115.846 258.946 115.611 258.716 115.319C258.48 115.013 258.351 114.638 258.349 114.251C258.357 113.868 258.453 113.492 258.63 113.152C258.724 112.992 258.812 112.826 258.913 112.672L259.246 112.232L259.272 112.594C258.983 112.343 258.764 112.021 258.637 111.66C258.506 111.276 258.53 110.856 258.702 110.489C258.864 110.129 259.14 109.833 259.488 109.646C259.808 109.49 260.146 109.377 260.495 109.308C261.152 109.144 261.824 109.047 262.501 109.021C263.184 108.968 263.869 109.113 264.473 109.438C264.476 109.44 264.478 109.442 264.48 109.445C264.482 109.448 264.484 109.452 264.485 109.455C264.485 109.459 264.486 109.462 264.485 109.466C264.484 109.469 264.483 109.473 264.481 109.476C264.478 109.481 264.472 109.485 264.466 109.487C264.46 109.489 264.453 109.489 264.447 109.487C263.826 109.299 263.168 109.262 262.53 109.381C261.887 109.476 261.254 109.623 260.635 109.82C260.338 109.898 260.05 110.006 259.775 110.144C259.538 110.279 259.348 110.485 259.232 110.732C259.128 110.985 259.108 111.264 259.175 111.53C259.241 111.795 259.391 112.032 259.603 112.206L259.613 112.216C259.66 112.261 259.688 112.323 259.691 112.389C259.694 112.454 259.672 112.518 259.629 112.568C259.407 112.818 259.203 113.084 259.02 113.364C258.853 113.64 258.742 113.947 258.693 114.267C258.658 114.588 258.734 114.912 258.908 115.184C259.091 115.466 259.346 115.693 259.647 115.844L259.651 115.846C259.672 115.858 259.687 115.877 259.694 115.9C259.701 115.923 259.698 115.947 259.687 115.968C259.68 115.982 259.669 115.993 259.656 116.001C259.447 116.118 259.266 116.278 259.124 116.47C258.982 116.659 258.89 116.881 258.855 117.115C258.803 117.581 258.886 118.053 259.096 118.473L259.098 118.479L259.104 118.496C259.217 118.798 259.684 118.786 260.13 118.729C260.593 118.662 261.053 118.571 261.507 118.455C261.752 118.378 262.006 118.338 262.262 118.334C262.54 118.338 262.808 118.433 263.027 118.604C263.215 118.775 263.367 118.982 263.475 119.213C263.582 119.443 263.643 119.693 263.653 119.947C263.654 119.954 263.652 119.961 263.647 119.967C263.642 119.972 263.636 119.976 263.629 119.977C263.622 119.977 263.616 119.975 263.61 119.971C263.605 119.967 263.601 119.962 263.599 119.956Z" fill="white"/>
<path d="M259.545 115.718C260.073 115.529 260.612 115.374 261.16 115.254C261.434 115.198 261.717 115.17 261.994 115.131C262.275 115.111 262.558 115.111 262.839 115.131C263.406 115.154 263.958 115.322 264.442 115.617C264.917 115.914 265.28 116.36 265.475 116.886C265.244 116.392 264.857 115.988 264.373 115.737C263.895 115.498 263.364 115.384 262.829 115.408C262.564 115.411 262.299 115.433 262.036 115.474C261.775 115.534 261.514 115.582 261.258 115.658C260.746 115.816 260.245 116.007 259.758 116.229L259.746 116.234C259.679 116.263 259.603 116.264 259.535 116.237C259.467 116.21 259.413 116.158 259.384 116.091C259.354 116.024 259.353 115.948 259.379 115.88C259.405 115.812 259.457 115.757 259.524 115.727L259.545 115.718Z" fill="white"/>
<path d="M265.473 112.652C265.11 112.257 264.64 111.975 264.121 111.841C263.61 111.706 263.078 111.666 262.553 111.726C262.028 111.777 261.511 111.886 261.011 112.05C260.763 112.143 260.513 112.226 260.269 112.325L259.547 112.65L259.531 112.658C259.464 112.687 259.389 112.69 259.321 112.664C259.254 112.638 259.199 112.586 259.169 112.52C259.139 112.454 259.137 112.379 259.163 112.311C259.188 112.243 259.24 112.188 259.306 112.158L259.327 112.15L260.106 111.876C260.369 111.794 260.637 111.729 260.902 111.655C261.439 111.528 261.988 111.46 262.541 111.453C263.093 111.437 263.643 111.525 264.163 111.711C264.681 111.892 265.136 112.219 265.473 112.652Z" fill="white"/>
<path d="M262.988 92.2007C263.892 91.5753 264.836 91.0108 265.815 90.5109C266.779 89.9982 267.769 89.5449 268.763 89.1032C269.766 88.6804 270.775 88.2704 271.809 87.9195C272.844 87.5491 273.903 87.249 274.978 87.021C274.075 87.6477 273.131 88.2127 272.152 88.7124C271.187 89.2248 270.197 89.6781 269.202 90.1186C268.199 90.5401 267.19 90.9501 266.156 91.3007C265.121 91.6708 264.063 91.9715 262.988 92.2007Z" fill="white"/>
<path d="M266.782 96.7828C267.672 96.5676 268.578 96.4238 269.491 96.3526C270.394 96.2643 271.297 96.2407 272.2 96.2297C273.103 96.2394 274.007 96.263 274.91 96.351C275.823 96.4219 276.729 96.5663 277.619 96.7828C276.729 96.9993 275.823 97.1437 274.91 97.2146C274.007 97.3026 273.103 97.3262 272.2 97.3359C271.297 97.3248 270.394 97.3013 269.491 97.213C268.578 97.1418 267.672 96.9979 266.782 96.7828Z" fill="white"/>
<path d="M266.782 102.693C267.501 102.653 268.223 102.686 268.936 102.79C269.636 102.88 270.33 103.012 271.015 103.186C271.7 103.355 272.375 103.566 273.034 103.818C273.712 104.063 274.363 104.375 274.978 104.752C274.258 104.793 273.537 104.761 272.824 104.656C272.123 104.566 271.429 104.434 270.745 104.259C270.06 104.089 269.386 103.877 268.726 103.625C268.048 103.38 267.397 103.068 266.782 102.693Z" fill="white"/>
<path d="M163.54 216.874C163.818 216.864 164.081 216.747 164.274 216.547C164.467 216.347 164.575 216.08 164.575 215.802C164.575 215.524 164.467 215.257 164.274 215.057C164.081 214.857 163.818 214.74 163.54 214.731C163.262 214.74 162.999 214.857 162.806 215.057C162.613 215.257 162.505 215.524 162.505 215.802C162.505 216.08 162.613 216.347 162.806 216.547C162.999 216.747 163.262 216.864 163.54 216.874Z" fill="white"/>
<path d="M164.74 223.388C165.018 223.378 165.281 223.261 165.474 223.061C165.667 222.861 165.775 222.594 165.775 222.316C165.775 222.038 165.667 221.771 165.474 221.571C165.281 221.372 165.018 221.254 164.74 221.245C164.462 221.254 164.199 221.372 164.006 221.571C163.813 221.771 163.705 222.038 163.705 222.316C163.705 222.594 163.813 222.861 164.006 223.061C164.199 223.261 164.462 223.378 164.74 223.388Z" fill="white"/>
<path d="M168.512 229.902C168.789 229.893 169.052 229.775 169.245 229.576C169.439 229.376 169.546 229.109 169.546 228.831C169.546 228.553 169.439 228.286 169.245 228.086C169.052 227.886 168.789 227.769 168.512 227.759C168.234 227.769 167.971 227.886 167.778 228.086C167.584 228.286 167.477 228.553 167.477 228.831C167.477 229.109 167.584 229.376 167.778 229.576C167.971 229.775 168.234 229.893 168.512 229.902Z" fill="white"/>
<path d="M173.826 236.245C174.104 236.235 174.367 236.118 174.56 235.918C174.753 235.718 174.861 235.451 174.861 235.173C174.861 234.896 174.753 234.629 174.56 234.429C174.367 234.229 174.104 234.112 173.826 234.102C173.548 234.112 173.285 234.229 173.092 234.429C172.899 234.629 172.791 234.896 172.791 235.173C172.791 235.451 172.899 235.718 173.092 235.918C173.285 236.118 173.548 236.235 173.826 236.245Z" fill="white"/>
<path d="M178.797 240.531C179.075 240.521 179.338 240.404 179.531 240.204C179.724 240.004 179.832 239.737 179.832 239.459C179.832 239.181 179.724 238.914 179.531 238.714C179.338 238.514 179.075 238.397 178.797 238.388C178.519 238.397 178.256 238.514 178.063 238.714C177.87 238.914 177.762 239.181 177.762 239.459C177.762 239.737 177.87 240.004 178.063 240.204C178.256 240.404 178.519 240.521 178.797 240.531Z" fill="white"/>
<path d="M183.94 244.473C184.218 244.464 184.481 244.347 184.674 244.147C184.867 243.947 184.975 243.68 184.975 243.402C184.975 243.124 184.867 242.857 184.674 242.657C184.481 242.457 184.218 242.34 183.94 242.331C183.662 242.34 183.399 242.457 183.206 242.657C183.013 242.857 182.905 243.124 182.905 243.402C182.905 243.68 183.013 243.947 183.206 244.147C183.399 244.347 183.662 244.464 183.94 244.473Z" fill="white"/>
<path d="M187.368 251.159C187.646 251.15 187.909 251.032 188.102 250.833C188.295 250.633 188.403 250.366 188.403 250.088C188.403 249.81 188.295 249.543 188.102 249.343C187.909 249.143 187.646 249.026 187.368 249.016C187.091 249.026 186.828 249.143 186.634 249.343C186.441 249.543 186.333 249.81 186.333 250.088C186.333 250.366 186.441 250.633 186.634 250.833C186.828 251.032 187.091 251.15 187.368 251.159Z" fill="white"/>
<path d="M189.94 255.616C190.218 255.607 190.481 255.49 190.674 255.29C190.867 255.09 190.975 254.823 190.975 254.545C190.975 254.267 190.867 254 190.674 253.8C190.481 253.6 190.218 253.483 189.94 253.473C189.662 253.483 189.399 253.6 189.206 253.8C189.013 254 188.905 254.267 188.905 254.545C188.905 254.823 189.013 255.09 189.206 255.29C189.399 255.49 189.662 255.607 189.94 255.616Z" fill="white"/>
<path d="M195.597 258.016C195.875 258.007 196.138 257.89 196.331 257.69C196.524 257.49 196.632 257.223 196.632 256.945C196.632 256.667 196.524 256.4 196.331 256.2C196.138 256 195.875 255.883 195.597 255.874C195.319 255.883 195.056 256 194.863 256.2C194.67 256.4 194.562 256.667 194.562 256.945C194.562 257.223 194.67 257.49 194.863 257.69C195.056 257.89 195.319 258.007 195.597 258.016Z" fill="white"/>
<path d="M201.426 258.874C201.703 258.864 201.966 258.747 202.16 258.547C202.353 258.347 202.461 258.08 202.461 257.802C202.461 257.524 202.353 257.257 202.16 257.057C201.966 256.857 201.703 256.74 201.426 256.731C201.148 256.74 200.885 256.857 200.692 257.057C200.499 257.257 200.391 257.524 200.391 257.802C200.391 258.08 200.499 258.347 200.692 258.547C200.885 258.747 201.148 258.864 201.426 258.874Z" fill="white"/>
<path d="M207.768 259.216C208.046 259.207 208.309 259.09 208.502 258.89C208.695 258.69 208.803 258.423 208.803 258.145C208.803 257.867 208.695 257.6 208.502 257.4C208.309 257.2 208.046 257.083 207.768 257.073C207.491 257.083 207.227 257.2 207.034 257.4C206.841 257.6 206.733 257.867 206.733 258.145C206.733 258.423 206.841 258.69 207.034 258.89C207.227 259.09 207.491 259.207 207.768 259.216Z" fill="white"/>
<path d="M213.083 259.216C213.361 259.207 213.624 259.09 213.817 258.89C214.01 258.69 214.118 258.423 214.118 258.145C214.118 257.867 214.01 257.6 213.817 257.4C213.624 257.2 213.361 257.083 213.083 257.073C212.805 257.083 212.542 257.2 212.349 257.4C212.156 257.6 212.048 257.867 212.048 258.145C212.048 258.423 212.156 258.69 212.349 258.89C212.542 259.09 212.805 259.207 213.083 259.216Z" fill="white"/>
</svg>
