<svg width="15" height="18" viewBox="0 0 15 18" fill="none" xmlns="http://www.w3.org/2000/svg">
<path d="M13.3929 7.5H12.5893V5.08929C12.5893 2.28348 10.3058 0 7.5 0C4.6942 0 2.41071 2.28348 2.41071 5.08929V7.5H1.60714C0.719866 7.5 0 8.21987 0 9.10714V15.5357C0 16.423 0.719866 17.1429 1.60714 17.1429H13.3929C14.2801 17.1429 15 16.423 15 15.5357V9.10714C15 8.21987 14.2801 7.5 13.3929 7.5ZM9.91071 7.5H5.08929V5.08929C5.08929 3.76004 6.17076 2.67857 7.5 2.67857C8.82924 2.67857 9.91071 3.76004 9.91071 5.08929V7.5Z" fill="#848484"/>
</svg>
