<svg width="18" height="18" viewBox="0 0 18 18" fill="none" xmlns="http://www.w3.org/2000/svg">
<path d="M9 0C4.02608 0 0 4.02529 0 9C0 13.9739 4.02529 18 9 18C10.7475 18 12.46 17.4869 13.914 16.5403C14.3497 16.2567 14.4447 15.6589 14.1155 15.2566L13.7462 14.8054C13.4678 14.4654 12.9776 14.382 12.6076 14.6193C11.5374 15.3057 10.2816 15.6774 9 15.6774C5.31806 15.6774 2.32258 12.6819 2.32258 9C2.32258 5.31806 5.31806 2.32258 9 2.32258C12.6341 2.32258 15.6774 4.41359 15.6774 8.12903C15.6774 9.53659 14.9119 11.0229 13.5664 11.1663C12.9368 11.1498 12.9527 10.6997 13.0774 10.0767L13.9278 5.68158C14.0318 5.14415 13.62 4.64516 13.0727 4.64516H11.4403C11.3198 4.64516 11.2035 4.68953 11.1136 4.7698C11.0237 4.85007 10.9665 4.96063 10.9529 5.08039L10.9525 5.08373C10.4191 4.4341 9.48462 4.29351 8.77612 4.29351C6.06959 4.29351 3.77419 6.552 3.77419 9.79004C3.77419 12.1599 5.10913 13.6321 7.25806 13.6321C8.23732 13.6321 9.34 13.0646 9.97951 12.241C10.3251 13.4786 11.4534 13.4786 12.5456 13.4786C16.4979 13.4786 18 10.8798 18 8.12903C18 3.18096 14.0089 0 9 0ZM8.21323 11.0479C7.4058 11.0479 6.90423 10.4809 6.90423 9.56827C6.90423 7.93546 8.02121 6.92891 9.03194 6.92891C9.84092 6.92891 10.3239 7.48201 10.3239 8.40847C10.3239 10.0437 9.09457 11.0479 8.21323 11.0479Z" fill="#848484"/>
</svg>
