<svg width="461" height="393" viewBox="0 0 461 393" fill="none" xmlns="http://www.w3.org/2000/svg">
<path d="M260.302 248.142C260.327 248.195 260.344 248.252 260.354 248.309L260.389 248.53L260.458 248.973L260.587 249.858L260.818 251.632C260.958 252.816 261.083 254.002 261.199 255.189C261.425 257.563 261.63 259.94 261.769 262.32C262.06 267.081 262.253 271.846 262.346 276.616C262.437 281.384 262.42 286.153 262.385 290.921C262.353 293.305 262.316 295.689 262.245 298.072L261.984 305.219L261.518 304.627L292.079 310.783L307.373 313.788L315.028 315.234L318.861 315.917L320.778 316.23L321.734 316.367L322.206 316.42L322.432 316.437L322.532 316.44C322.557 316.443 322.594 316.428 322.533 316.45L322.464 316.487C324.37 315.237 326.31 314.069 328.271 312.926C330.237 311.795 332.241 310.726 334.292 309.755C336.329 308.741 338.435 307.874 340.594 307.16C341.683 306.81 342.793 306.529 343.918 306.32C345.057 306.095 346.222 306.031 347.379 306.128L347.026 306.459C346.673 301.139 346.289 295.82 345.875 290.503L344.622 274.556C344.181 269.244 343.735 263.932 343.197 258.633C342.927 255.984 342.64 253.337 342.297 250.704C342.124 249.388 341.938 248.074 341.715 246.776C341.603 246.128 341.48 245.483 341.337 244.856C341.265 244.544 341.188 244.234 341.097 243.949C341.056 243.817 341.008 243.688 340.954 243.561C340.929 243.508 340.906 243.465 340.891 243.439C340.895 243.43 340.85 243.437 341.041 243.537L341.306 243.595C334.05 243.42 326.774 243.385 319.517 243.559C315.89 243.662 312.262 243.779 308.653 244.053C306.85 244.191 305.05 244.366 303.275 244.636C302.39 244.773 301.508 244.932 300.656 245.149C299.851 245.31 299.086 245.627 298.404 246.083L298.381 246.102C298.291 246.177 298.179 246.222 298.061 246.229C291.834 246.597 285.589 246.891 279.306 247.209L260.302 248.142ZM260.194 248.055L278.967 246.557C285.276 246.065 291.624 245.548 297.989 245.107L297.646 245.252C298.452 244.654 299.377 244.236 300.358 244.025C301.266 243.779 302.175 243.603 303.084 243.449C304.903 243.145 306.724 242.942 308.546 242.776C312.189 242.449 315.835 242.262 319.48 242.165C326.772 241.968 334.053 241.98 341.345 242.133L341.38 242.134C341.46 242.136 341.539 242.155 341.611 242.191C341.819 242.287 341.993 242.441 342.114 242.636C342.178 242.738 342.236 242.845 342.286 242.955C342.365 243.133 342.434 243.316 342.493 243.503C342.605 243.853 342.689 244.19 342.768 244.528C342.92 245.201 343.038 245.868 343.149 246.535C343.366 247.867 343.543 249.196 343.707 250.525C344.031 253.184 344.298 255.842 344.547 258.502C345.037 263.82 345.465 269.141 345.83 274.464C346.192 279.788 346.544 285.112 346.832 290.44L347.657 306.424C347.662 306.507 347.634 306.589 347.579 306.651C347.524 306.714 347.446 306.752 347.362 306.757C347.343 306.758 347.324 306.758 347.305 306.755C345.08 306.589 342.845 306.886 340.74 307.625C338.594 308.31 336.5 309.147 334.473 310.13C332.445 311.118 330.469 312.214 328.528 313.365C326.587 314.513 324.685 315.744 322.857 317.051L322.845 317.059C322.828 317.072 322.808 317.081 322.788 317.088C322.711 317.115 322.63 317.128 322.548 317.127L322.404 317.125L322.145 317.109L321.649 317.057L320.674 316.926L318.742 316.628L314.895 315.977L307.22 314.596L291.896 311.721C281.687 309.769 271.479 307.812 261.288 305.767C261.154 305.74 261.033 305.667 260.948 305.56C260.862 305.452 260.818 305.318 260.821 305.181L260.822 305.175L261.023 298.039L261.188 290.902C261.272 286.145 261.338 281.386 261.297 276.628C261.283 271.87 261.239 267.11 261.058 262.355C260.963 259.978 260.879 257.6 260.741 255.224C260.672 254.036 260.594 252.849 260.502 251.663L260.194 248.055Z" fill="white"/>
<path d="M261.128 248.061C259.843 246.362 258.621 244.622 257.369 242.902C257.332 242.85 257.312 242.788 257.314 242.724C257.316 242.66 257.339 242.598 257.379 242.548L257.393 242.532C258.878 240.738 260.524 239.084 262.312 237.592C264.093 236.08 266.008 234.732 268.032 233.566C270.076 232.396 272.252 231.474 274.514 230.817C276.796 230.163 279.169 229.882 281.541 229.985L281.558 229.986C281.664 229.992 281.767 230.025 281.856 230.082C281.945 230.139 282.018 230.218 282.068 230.312C283.404 232.839 284.712 235.381 285.994 237.938C286.639 239.214 287.27 240.498 287.887 241.789C288.509 243.077 289.137 244.363 289.73 245.668C288.954 244.463 288.213 243.239 287.467 242.018C286.715 240.8 285.978 239.575 285.254 238.342C283.799 235.879 282.37 233.403 280.967 230.912L281.494 231.238C279.259 231.21 277.033 231.513 274.887 232.137C272.727 232.766 270.644 233.633 268.675 234.723C266.684 235.808 264.782 237.047 262.986 238.43C261.174 239.808 259.462 241.313 257.862 242.933L257.886 242.563C258.968 244.395 260.079 246.207 261.128 248.061Z" fill="white"/>
<path d="M290.974 245.668C291.403 243.994 292.011 242.372 292.788 240.829C293.55 239.263 294.479 237.784 295.557 236.417L296.39 235.402C296.684 235.077 297.001 234.773 297.306 234.457C297.929 233.835 298.588 233.249 299.279 232.703C299.624 232.428 300.005 232.201 300.37 231.951C300.729 231.692 301.106 231.459 301.497 231.252C302.27 230.816 303.075 230.44 303.906 230.128L305.159 229.671C305.581 229.535 306.022 229.466 306.454 229.361L307.77 229.076C308.364 228.997 308.966 229.138 309.463 229.473C309.712 229.64 309.927 229.853 310.097 230.1C310.239 230.32 310.347 230.495 310.465 230.701C310.693 231.103 310.891 231.523 311.057 231.955C311.409 232.844 311.569 233.797 311.527 234.753C311.457 235.729 311.142 236.672 310.609 237.494C310.345 237.889 310.037 238.253 309.691 238.579C309.519 238.737 309.356 238.91 309.176 239.054L308.616 239.456C307.116 240.427 305.47 241.151 303.74 241.599L303.889 241.53C302.881 242.175 301.882 242.891 300.928 243.639C299.961 244.383 299.035 245.179 298.155 246.023C297.647 246.443 297.052 246.743 296.413 246.902C295.774 247.061 295.107 247.075 294.462 246.944C293.227 246.749 292.043 246.316 290.974 245.668ZM290.974 245.668C291.536 245.914 292.118 246.113 292.713 246.263C293.296 246.427 293.895 246.527 294.5 246.562C295.072 246.632 295.653 246.574 296.2 246.393C296.747 246.212 297.248 245.912 297.665 245.514C298.505 244.599 299.394 243.73 300.328 242.91C301.275 242.095 302.244 241.329 303.276 240.598C303.308 240.576 303.343 240.558 303.38 240.545L303.425 240.529C305.004 240.052 306.501 239.34 307.868 238.418L308.345 238.057C308.495 237.93 308.622 237.783 308.762 237.648C309.035 237.38 309.28 237.085 309.493 236.767C309.89 236.139 310.124 235.422 310.172 234.681C310.196 233.916 310.058 233.154 309.767 232.446C309.624 232.078 309.457 231.719 309.268 231.373C309.175 231.205 309.057 231.015 308.97 230.873C308.897 230.765 308.805 230.671 308.697 230.598C308.477 230.446 308.208 230.381 307.942 230.414L306.742 230.667C306.34 230.762 305.927 230.819 305.533 230.942L304.359 231.341C303.576 231.61 302.814 231.939 302.082 232.326C301.71 232.509 301.351 232.718 301.008 232.952C300.66 233.179 300.294 233.38 299.956 233.622C298.596 234.602 297.349 235.73 296.24 236.987C293.988 239.548 292.205 242.487 290.974 245.668Z" fill="white"/>
<path d="M251.234 327.72C256.04 327.72 259.936 323.824 259.936 319.018C259.936 314.212 256.04 310.315 251.234 310.315C246.427 310.315 242.531 314.212 242.531 319.018C242.531 323.824 246.427 327.72 251.234 327.72Z" fill="white"/>
<path d="M198.475 305.997C198.628 307.224 198.782 308.458 198.894 309.697C198.975 310.936 199.036 312.179 199.021 313.422C199.01 315.907 198.857 318.4 198.698 320.848C198.563 323.268 198.476 325.801 199.771 327.672C200.41 328.613 201.268 329.385 202.272 329.92C203.301 330.434 204.424 330.728 205.573 330.783C206.154 330.814 206.737 330.792 207.315 330.715C207.873 330.638 208.519 330.492 209.137 330.409C210.381 330.225 211.638 330.133 212.896 330.135C215.402 330.138 217.896 330.499 220.301 331.207C221.496 331.568 222.662 332.019 223.789 332.556C224.366 332.798 224.896 333.133 225.451 333.418C225.979 333.72 226.525 333.989 227.086 334.222C229.363 335.106 231.794 335.524 234.235 335.453C236.649 335.448 239.041 334.989 241.287 334.101C241.817 333.88 242.319 333.596 242.781 333.256C243.201 332.972 243.53 332.572 243.728 332.105C243.768 332.007 243.793 331.902 243.8 331.796C243.812 331.756 243.814 331.713 243.805 331.671C243.808 331.635 243.801 331.599 243.786 331.566C243.719 331.363 243.606 331.178 243.457 331.025C243.071 330.61 242.638 330.241 242.168 329.925C241.192 329.237 240.136 328.607 239.078 327.98C238.011 327.354 236.963 326.74 235.877 326.176C233.721 325.028 231.497 324.029 229.221 323.061C226.861 322.139 224.633 320.911 222.593 319.408C220.608 317.802 218.929 315.851 217.639 313.647C215.228 309.298 212.878 304.97 210.587 300.575C210.579 300.559 210.577 300.541 210.582 300.524C210.587 300.506 210.598 300.492 210.614 300.483C210.629 300.474 210.647 300.471 210.665 300.476C210.682 300.48 210.697 300.49 210.707 300.505C213.386 304.66 215.988 308.892 218.562 313.084C219.846 315.117 221.487 316.902 223.405 318.352C225.393 319.727 227.542 320.854 229.803 321.706C232.112 322.651 234.368 323.72 236.562 324.908C237.66 325.505 238.734 326.161 239.787 326.807C240.843 327.461 241.901 328.117 242.933 328.873C243.481 329.259 243.982 329.708 244.426 330.211C244.696 330.514 244.892 330.876 244.998 331.269C245.057 331.493 245.067 331.727 245.025 331.955C245 332.157 244.947 332.354 244.867 332.541C244.571 333.216 244.083 333.789 243.465 334.191C242.919 334.568 242.329 334.877 241.709 335.113C239.312 335.972 236.769 336.345 234.227 336.21C231.71 336.15 229.225 335.628 226.897 334.67C226.32 334.42 225.76 334.133 225.22 333.811C224.68 333.524 224.166 333.186 223.605 332.941C222.502 332.407 221.355 331.971 220.177 331.637C218.995 331.321 217.79 331.098 216.573 330.971C215.358 330.862 214.136 330.84 212.917 330.904C211.702 330.969 210.494 331.122 209.302 331.362C208.699 331.475 208.145 331.637 207.485 331.766C206.841 331.89 206.187 331.946 205.532 331.933C204.2 331.917 202.888 331.6 201.695 331.007C200.497 330.391 199.482 329.469 198.755 328.335C198.05 327.198 197.641 325.903 197.565 324.568C197.491 323.304 197.516 322.036 197.64 320.775C197.848 318.293 198.178 315.861 198.297 313.401C198.358 312.173 198.409 310.944 198.424 309.711L198.338 306.012L198.337 306.007C198.337 305.989 198.343 305.972 198.355 305.959C198.367 305.946 198.384 305.938 198.401 305.937C198.419 305.935 198.437 305.941 198.45 305.952C198.464 305.963 198.473 305.979 198.475 305.997V305.997Z" fill="white"/>
<path d="M244.435 332.149C244.435 332.149 242.714 336.732 230.285 335.44C229.773 330.808 236.243 324.905 236.243 324.905C235.69 323.73 233.444 322.741 231.301 322.043C231.475 322.174 231.605 322.355 231.673 322.562C231.74 322.77 231.742 322.993 231.677 323.201C231.613 323.409 231.486 323.592 231.313 323.725C231.141 323.858 230.931 323.935 230.713 323.944C230.444 323.935 230.189 323.822 230.002 323.629C229.815 323.435 229.71 323.176 229.71 322.907C229.71 322.638 229.815 322.379 230.002 322.186C230.189 321.992 230.444 321.879 230.713 321.87H230.734C228.75 321.262 227.001 320.916 227.001 320.916C222.065 320.598 218.367 330.967 218.367 330.967C218.367 330.967 218.208 331.043 217.372 330.794C211.551 329.046 202.606 333.912 199.516 328.375C199.516 328.375 197.933 330.56 201.203 333.186L199.482 336.926H210.756L214.697 335.253V332.149C214.697 332.149 225.349 335.868 230.824 337.527C237.336 339.498 246.889 336.926 244.435 332.149ZM224.492 333.152C224.223 333.143 223.968 333.03 223.781 332.836C223.593 332.643 223.489 332.384 223.489 332.115C223.489 331.846 223.593 331.587 223.781 331.394C223.968 331.2 224.223 331.087 224.492 331.078C224.761 331.087 225.016 331.2 225.203 331.394C225.39 331.587 225.495 331.846 225.495 332.115C225.495 332.384 225.39 332.643 225.203 332.836C225.016 333.03 224.761 333.143 224.492 333.152ZM227.229 328.175C226.96 328.166 226.705 328.053 226.518 327.859C226.331 327.666 226.226 327.407 226.226 327.138C226.226 326.869 226.331 326.61 226.518 326.416C226.705 326.223 226.96 326.11 227.229 326.101C227.498 326.11 227.753 326.223 227.94 326.416C228.128 326.61 228.232 326.869 228.232 327.138C228.232 327.407 228.128 327.666 227.941 327.859C227.753 328.053 227.498 328.166 227.229 328.175V328.175Z" fill="white"/>
<path d="M150.229 318.027C149.281 316.062 148.747 313.923 148.66 311.743V311.702C148.681 311.211 148.736 310.72 148.778 310.23C148.819 309.732 148.868 309.241 148.923 308.75C148.926 308.732 148.935 308.716 148.949 308.705C148.963 308.693 148.981 308.687 148.999 308.688C149.033 308.695 149.061 308.716 149.061 308.75C149.123 309.241 149.172 309.732 149.22 310.223C149.268 310.707 149.324 311.184 149.351 311.661C149.554 313.707 150.162 315.693 151.142 317.502C152.095 318.945 153.282 320.221 154.653 321.276C154.895 321.476 155.144 321.677 155.393 321.877C156.354 322.631 157.329 323.384 158.303 324.131C158.048 324.197 157.828 324.359 157.689 324.583C157.551 324.807 157.503 325.076 157.557 325.334C156.547 324.532 155.552 323.716 154.571 322.866C154.087 322.451 153.603 322.023 153.133 321.573C151.986 320.549 151.007 319.353 150.229 318.027Z" fill="white"/>
<path d="M169.931 336.581C169.852 336.952 169.691 337.302 169.461 337.604C169.286 337.845 169.079 338.062 168.845 338.246C167.886 338.92 166.769 339.336 165.603 339.456C163.441 339.717 161.25 339.619 159.119 339.166C157.012 338.746 154.964 338.068 153.022 337.147C152.628 336.954 152.234 336.746 151.854 336.525C151.227 336.179 150.625 335.791 150.05 335.364C149.245 334.784 148.508 334.116 147.852 333.373C146.464 331.804 144.857 330.442 143.082 329.329C142.189 328.795 141.252 328.337 140.282 327.96C139.31 327.601 138.308 327.326 137.289 327.138C136.268 326.955 135.236 326.842 134.199 326.799C133.083 326.741 131.985 326.495 130.95 326.073C129.902 325.641 128.948 325.007 128.144 324.207C127.415 323.506 126.849 322.654 126.485 321.711C126.433 321.571 126.39 321.428 126.353 321.283C126.042 320.164 126.016 318.985 126.277 317.854C126.523 316.767 126.931 315.723 127.487 314.757C128.569 312.887 129.949 311.206 131.572 309.78C133.091 308.372 133.995 306.423 134.088 304.354C134.088 304.344 134.089 304.335 134.093 304.327C134.096 304.318 134.101 304.31 134.107 304.304C134.114 304.297 134.122 304.292 134.13 304.289C134.139 304.285 134.148 304.284 134.158 304.285C134.166 304.284 134.174 304.284 134.182 304.287C134.19 304.289 134.197 304.293 134.204 304.298C134.21 304.303 134.216 304.309 134.22 304.316C134.223 304.324 134.226 304.332 134.227 304.34C134.389 305.42 134.262 306.525 133.86 307.54C133.472 308.568 132.901 309.517 132.174 310.34C130.705 311.802 129.457 313.469 128.468 315.29C127.556 317.073 126.955 319.112 127.535 320.93C127.817 321.846 128.326 322.676 129.014 323.343C129.704 324.045 130.517 324.614 131.413 325.023C132.318 325.443 133.284 325.713 134.275 325.824C135.346 325.929 136.408 326.107 137.455 326.357C138.5 326.617 139.522 326.964 140.51 327.394C140.745 327.497 140.973 327.608 141.202 327.725C141.214 327.728 141.225 327.733 141.236 327.739C141.962 328.106 142.66 328.5 143.338 328.928C145.11 330.113 146.739 331.5 148.19 333.062C149.612 334.586 151.355 335.776 153.292 336.546C155.21 337.352 157.225 337.907 159.285 338.198C159.914 338.288 160.543 338.364 161.172 338.405C162.586 338.53 164.009 338.476 165.41 338.246C166.351 338.126 167.25 337.78 168.03 337.237C168.341 336.996 168.555 336.652 168.635 336.267C168.715 335.882 168.655 335.48 168.465 335.136C168.054 334.264 167.485 333.476 166.785 332.813C166.051 332.096 165.275 331.422 164.463 330.795L162.105 328.928L159.506 326.875C159.209 326.64 158.919 326.412 158.621 326.177C158.755 326.17 158.886 326.135 159.006 326.076C159.125 326.016 159.232 325.933 159.318 325.83C159.404 325.728 159.468 325.609 159.507 325.481C159.545 325.352 159.557 325.218 159.541 325.085C160.875 326.101 162.209 327.124 163.529 328.161C164.152 328.659 164.767 329.149 165.382 329.647C166.242 330.311 167.053 331.036 167.808 331.818C168.626 332.629 169.283 333.589 169.744 334.645C169.995 335.258 170.06 335.931 169.931 336.581Z" fill="white"/>
<path d="M169.46 337.604C169.453 337.535 169.446 337.466 169.433 337.396C169.433 337.396 167.566 339.788 161.172 338.406C159.034 337.921 156.949 337.231 154.944 336.346C155.573 333.104 159.734 330.29 162.105 328.928C162.748 328.562 163.253 328.299 163.529 328.161C163.674 328.085 163.757 328.051 163.757 328.051C163.398 325.438 156.112 321.504 156.112 321.504C155.646 321.329 155.15 321.251 154.653 321.276C154.134 321.296 153.621 321.396 153.132 321.573C149.089 322.942 144.886 328.541 144.886 328.541C144.886 328.541 144.022 329.26 143.296 328.769C142.652 328.347 141.96 328.001 141.236 327.739C141.225 327.733 141.213 327.728 141.201 327.726C135.892 325.749 128.102 326.599 126.961 321.166C126.775 321.322 126.615 321.506 126.484 321.712C126.021 322.444 125.579 323.944 127.141 326.267L124.39 329.329L135.16 332.668L139.418 332.24L140.344 329.274C140.344 329.274 145.439 332.419 150.049 335.364C150.665 335.758 151.266 336.145 151.854 336.525C152.953 337.237 153.983 337.915 154.84 338.496C160.398 342.263 170.103 342.678 169.46 337.604ZM154.563 329.419C154.294 329.41 154.039 329.297 153.852 329.104C153.665 328.91 153.56 328.652 153.56 328.382C153.56 328.113 153.665 327.854 153.852 327.661C154.039 327.467 154.294 327.354 154.563 327.345C154.832 327.354 155.088 327.467 155.275 327.661C155.462 327.854 155.567 328.113 155.567 328.382C155.567 328.652 155.462 328.91 155.275 329.104C155.088 329.297 154.832 329.41 154.563 329.419ZM158.31 324.131C158.388 324.117 158.466 324.11 158.545 324.11C158.675 324.106 158.805 324.128 158.926 324.176C159.047 324.223 159.158 324.294 159.251 324.385C159.344 324.476 159.417 324.585 159.467 324.705C159.517 324.826 159.542 324.955 159.541 325.085C159.556 325.218 159.545 325.353 159.506 325.481C159.468 325.609 159.404 325.728 159.318 325.83C159.231 325.933 159.125 326.016 159.005 326.076C158.886 326.136 158.755 326.17 158.621 326.177C158.596 326.183 158.571 326.185 158.545 326.184C158.304 326.193 158.068 326.11 157.884 325.953C157.701 325.795 157.584 325.574 157.557 325.334C157.503 325.076 157.55 324.807 157.689 324.583C157.828 324.359 158.048 324.197 158.303 324.131H158.31ZM150.831 330.829C151.099 330.839 151.354 330.952 151.54 331.146C151.727 331.339 151.831 331.598 151.831 331.866C151.831 332.135 151.727 332.393 151.54 332.587C151.354 332.78 151.099 332.894 150.831 332.903C150.562 332.894 150.308 332.78 150.121 332.587C149.934 332.393 149.83 332.135 149.83 331.866C149.83 331.598 149.934 331.339 150.121 331.146C150.308 330.952 150.562 330.839 150.831 330.829H150.831Z" fill="white"/>
<path d="M164.477 79.7587L164.07 79.9955C163.923 80.0503 163.766 80.0898 163.612 80.1353C163.45 80.1467 163.287 80.148 163.125 80.1394C162.964 80.1149 162.806 80.0729 162.653 80.0142C162.065 79.7445 161.572 79.3037 161.238 78.7493C160.562 77.6534 160.289 76.3564 160.465 75.081L160.545 74.6038L160.679 74.1372C160.77 73.8038 160.921 73.4898 161.125 73.2111C161.36 72.8771 161.717 72.6486 162.118 72.5746C162.5 72.5245 162.889 72.5834 163.239 72.7445C163.835 73.0282 164.378 73.4121 164.844 73.8794C165.303 74.3151 165.726 74.7881 166.107 75.2938L165.816 75.0922C166.475 75.2019 167.152 75.1147 167.762 74.8415C168.438 74.5617 169.081 74.2077 169.678 73.786C170.91 72.9082 172.062 71.9231 173.12 70.8423C175.272 68.6644 177.299 66.3658 179.19 63.9577L179.215 63.9269C179.257 63.8734 179.31 63.8288 179.37 63.7957C179.429 63.7626 179.495 63.7415 179.563 63.7338C179.631 63.7261 179.7 63.7318 179.765 63.7506C179.831 63.7695 179.892 63.8011 179.946 63.8437C180.01 63.8948 180.061 63.96 180.095 64.0343C180.423 64.7506 180.701 65.4571 180.965 66.1831C181.226 66.9067 181.461 67.6404 181.653 68.3888C181.856 69.1381 182.002 69.9018 182.09 70.6732C182.19 71.4602 182.17 72.2579 182.03 73.0387L182.007 72.8541C182.309 73.4907 182.691 74.0859 183.145 74.6251C183.59 75.1717 184.119 75.644 184.712 76.0242L184.723 76.0313C184.747 76.0462 184.767 76.0658 184.783 76.0889C184.799 76.1121 184.81 76.1382 184.815 76.1657C184.875 76.4693 184.877 76.7813 184.822 77.0858C184.769 77.4012 184.628 77.6951 184.415 77.9338C184.197 78.1654 183.921 78.3337 183.615 78.4206C183.47 78.4611 183.322 78.4927 183.172 78.5152L182.73 78.5403L182.937 78.3182C182.982 79.2451 182.943 80.1742 182.819 81.0938C182.703 82.0172 182.49 82.9256 182.182 83.8036C181.861 84.6903 181.414 85.5264 180.856 86.2865C180.251 87.0356 179.5 87.654 178.649 88.1042C178.623 88.1179 178.596 88.127 178.567 88.1311L178.526 88.1367C177.7 88.2135 176.9 88.4687 176.182 88.8845C175.464 89.3004 174.844 89.8671 174.366 90.5455C174.165 90.8883 174.016 91.2586 173.923 91.6447C173.835 92.0481 173.786 92.4589 173.775 92.8717L173.658 95.5377L173.54 95.1539C174.909 96.8855 176.204 98.6556 177.427 100.496C178.033 101.421 178.632 102.351 179.174 103.335C179.44 103.831 179.709 104.325 179.934 104.864C180.201 105.435 180.377 106.044 180.455 106.67C180.469 106.785 180.452 106.903 180.408 107.011C180.363 107.118 180.291 107.213 180.199 107.285C180.108 107.357 179.999 107.404 179.884 107.422C179.768 107.439 179.65 107.427 179.541 107.386L179.514 107.376C177.434 106.541 175.4 105.595 173.422 104.541C171.449 103.533 169.522 102.446 167.592 101.368C165.664 100.287 163.77 99.1472 161.874 98.0153C159.982 96.8756 158.093 95.7321 156.221 94.5617L156.214 94.5571C156.159 94.5224 156.111 94.4772 156.073 94.4239C156.035 94.3706 156.007 94.3104 155.993 94.2466C155.978 94.1829 155.976 94.1168 155.987 94.0523C155.998 93.9877 156.021 93.926 156.056 93.8705C156.086 93.8218 156.125 93.7787 156.17 93.743C157.005 93.0713 157.754 92.2992 158.4 91.4443C159.057 90.5842 159.595 89.6395 160 88.6357C160.42 87.6325 160.664 86.5642 160.721 85.4779C160.776 84.3784 160.665 83.2769 160.391 82.2106L160.39 82.2041C160.386 82.1867 160.389 82.1686 160.399 82.1536C160.408 82.1385 160.423 82.1275 160.44 82.123C160.457 82.1185 160.475 82.1207 160.491 82.1293C160.506 82.1378 160.518 82.152 160.523 82.1689C160.906 83.2342 161.11 84.3551 161.128 85.4868C161.152 86.6322 160.974 87.7728 160.602 88.8564C160.229 89.9426 159.712 90.9735 159.064 91.9214C158.415 92.8819 157.648 93.7572 156.781 94.5265L156.73 93.708L162.487 96.9558L168.275 100.137C170.205 101.193 172.155 102.209 174.1 103.227C175.075 103.729 176.053 104.227 177.038 104.7C178.014 105.163 179.031 105.662 179.974 106.028L179.032 106.734C178.967 106.275 178.838 105.826 178.648 105.403C178.461 104.929 178.215 104.455 177.974 103.985C177.477 103.043 176.909 102.123 176.333 101.209C175.162 99.391 173.915 97.5994 172.634 95.8532L172.62 95.8343C172.543 95.729 172.506 95.5995 172.516 95.4692L172.718 92.7955C172.745 92.3174 172.822 91.8435 172.948 91.3815C173.088 90.9062 173.296 90.4541 173.568 90.0396C174.122 89.237 174.88 88.5963 175.763 88.1831C176.616 87.7786 177.533 87.5274 178.473 87.4412L178.35 87.4737C179.132 87.0979 179.83 86.5689 180.403 85.9181C180.96 85.2315 181.403 84.4591 181.713 83.6309C182.022 82.7898 182.241 81.9182 182.365 81.0309C182.499 80.1428 182.551 79.2445 182.522 78.3469C182.52 78.2903 182.541 78.235 182.579 78.1933C182.617 78.1517 182.671 78.127 182.727 78.1247L182.73 78.1246C182.987 78.1245 183.243 78.0882 183.49 78.0168C183.721 77.95 183.93 77.8216 184.093 77.6454C184.241 77.4518 184.343 77.2277 184.392 76.9894C184.441 76.7512 184.436 76.5049 184.377 76.2689L184.481 76.4101C183.835 76.0181 183.253 75.529 182.756 74.9601C182.255 74.3948 181.822 73.7741 181.463 73.1102C181.436 73.0621 181.427 73.0069 181.435 72.9528L181.439 72.9253C181.528 72.2074 181.507 71.4802 181.377 70.7686C181.256 70.0401 181.079 69.3218 180.849 68.62C180.629 67.912 180.366 67.2141 180.079 66.5272C179.792 65.8434 179.479 65.1547 179.143 64.5102L180.048 64.5867C179.145 65.8746 178.176 67.0862 177.175 68.2872C176.166 69.4834 175.097 70.6283 173.973 71.7173C172.843 72.8263 171.617 73.833 170.309 74.7252C169.632 75.1822 168.906 75.5619 168.145 75.8574C167.324 76.1969 166.42 76.2808 165.551 76.098C165.437 76.0697 165.337 76.0021 165.267 75.9072L165.259 75.8962C164.646 74.9489 163.834 74.1457 162.881 73.542C162.407 73.3187 162.04 73.3251 161.743 73.6978C161.581 73.9011 161.458 74.133 161.381 74.3814L161.245 74.7793L161.156 75.1919C160.94 76.3228 161.105 77.4933 161.625 78.5203C161.881 79.029 162.283 79.4495 162.78 79.7275C163.033 79.8581 163.317 79.9191 163.601 79.9044C163.886 79.8897 164.162 79.7998 164.401 79.6438L164.406 79.6404C164.422 79.6309 164.44 79.6278 164.458 79.632C164.476 79.6362 164.491 79.6472 164.501 79.6627C164.51 79.6782 164.514 79.6968 164.51 79.7146C164.506 79.7324 164.495 79.7479 164.479 79.7577L164.477 79.7587Z" fill="white"/>
<path d="M165.31 81.4429C166.446 82.6297 167.412 83.7293 168.507 84.6784C169.049 85.1532 169.628 85.5837 170.238 85.9655C170.897 86.3639 171.578 86.7234 172.278 87.0421C171.459 87.2439 170.601 87.2152 169.798 86.9593C168.986 86.7065 168.238 86.2847 167.601 85.7217C166.974 85.1706 166.448 84.5153 166.044 83.7849C165.634 83.0661 165.384 82.2673 165.31 81.4429Z" fill="white"/>
<path d="M163.062 79.9897C162.571 80.9289 161.85 81.7279 160.965 82.3119C160.722 82.4687 160.448 82.5722 160.162 82.6155C159.876 82.6589 159.584 82.6411 159.305 82.5633C159.023 82.4681 158.762 82.3204 158.535 82.128C158.334 81.932 158.147 81.7218 157.976 81.499C156.738 79.7736 155.813 77.8432 155.244 75.7967C154.642 73.7209 154.501 71.5383 154.833 69.4024C155.207 67.2448 156.131 65.2198 157.514 63.5222C158.876 61.8218 160.61 60.4565 162.582 59.5313C164.572 58.6579 166.747 58.2908 168.914 58.4626C171.039 58.6213 173.112 59.1939 175.017 60.1483C175.488 60.3848 175.946 60.6469 176.388 60.9335L177.048 61.3648L177.668 61.8544C178.52 62.4735 179.194 63.3077 179.619 64.2719C179.075 63.4019 178.331 62.6741 177.449 62.1486L176.807 61.738L176.129 61.3866C175.678 61.1547 175.214 60.9478 174.74 60.7668C172.87 60.011 170.88 59.5956 168.864 59.5404C166.885 59.4787 164.92 59.8834 163.126 60.7219C161.361 61.588 159.812 62.8393 158.594 64.3836C157.337 65.897 156.485 67.7048 156.117 69.6377C155.768 71.5933 155.826 73.5998 156.286 75.5321C156.373 76.0262 156.548 76.5 156.674 76.987C156.846 77.4591 156.991 77.9439 157.19 78.4081C157.557 79.3502 158.007 80.258 158.534 81.1208C158.659 81.3212 158.796 81.5133 158.946 81.6957C159.1 81.8534 159.281 81.9819 159.481 82.0749C159.694 82.1548 159.922 82.1884 160.149 82.1734C160.376 82.1585 160.597 82.0954 160.798 81.9882C161.692 81.4991 162.466 80.8163 163.062 79.9897Z" fill="white"/>
<path d="M156.464 94.2028C155.44 94.1828 154.423 94.3683 153.472 94.7484C153.004 94.9349 152.55 95.1549 152.114 95.4066C151.693 95.6778 151.288 95.9741 150.903 96.2941C150.149 96.9535 149.484 97.7087 148.926 98.5405C148.665 98.9711 148.386 99.3886 148.134 99.8219L147.497 101.198C147.285 101.659 147.105 102.134 146.958 102.619C146.803 103.103 146.603 103.57 146.484 104.067L146.127 105.558C145.988 106.051 145.881 106.553 145.806 107.059C145.652 108.075 145.426 109.079 145.307 110.105L144.956 113.19L144.956 113.147C145 115.485 145.023 117.823 145.136 120.156C145.236 122.49 145.38 124.822 145.568 127.151L146.112 134.144C146.259 136.479 146.401 138.81 146.436 141.168L146.434 141.225L146.433 141.239C146.327 142.264 146.181 143.258 145.995 144.265C145.816 145.285 145.557 146.29 145.221 147.271L145.2 147.32L145.178 147.366C145.125 147.499 145.094 147.64 145.088 147.782C145.084 147.932 145.112 148.081 145.169 148.22C145.329 148.543 145.584 148.809 145.9 148.983C146.714 149.426 147.603 149.716 148.521 149.838C150.5 150.115 152.5 150.211 154.496 150.124C156.517 150.05 158.546 149.902 160.575 149.718C162.603 149.524 164.631 149.287 166.666 149.064C166.685 149.061 166.703 149.067 166.718 149.078C166.732 149.089 166.741 149.106 166.744 149.124C166.745 149.141 166.741 149.158 166.732 149.172C166.722 149.186 166.708 149.196 166.691 149.2C164.701 149.682 162.702 150.142 160.678 150.481C158.654 150.854 156.612 151.124 154.56 151.29C152.478 151.499 150.38 151.482 148.302 151.24C147.186 151.116 146.106 150.777 145.12 150.241C144.541 149.905 144.082 149.396 143.807 148.787C143.668 148.448 143.603 148.084 143.616 147.718C143.63 147.353 143.721 146.994 143.884 146.667L143.841 146.762C144.162 145.856 144.422 144.929 144.619 143.988C144.822 143.035 144.993 142.056 145.117 141.098L145.114 141.168C145.123 138.855 145.092 136.517 145.06 134.185L144.981 127.18C144.94 124.844 144.846 122.51 144.7 120.18C144.564 117.848 144.329 115.522 144.105 113.197L144.104 113.168L144.105 113.154L144.228 109.994C144.246 109.465 144.298 108.938 144.384 108.415L144.599 106.839C144.673 106.313 144.78 105.791 144.919 105.278L145.309 103.727C145.443 103.212 145.662 102.717 145.835 102.211C145.999 101.7 146.203 101.202 146.443 100.722C147.31 98.7232 148.67 96.9771 150.396 95.6468C150.841 95.3353 151.305 95.0518 151.785 94.7979C152.276 94.5684 152.786 94.3836 153.31 94.2458C154.342 93.9482 155.428 93.8869 156.487 94.0665C156.504 94.0698 156.519 94.0793 156.53 94.0931C156.54 94.107 156.545 94.1243 156.543 94.1415C156.541 94.1587 156.533 94.1746 156.52 94.186C156.507 94.1974 156.49 94.2035 156.473 94.2031L156.464 94.2028Z" fill="white"/>
<path d="M150.492 117.342C150.498 119.023 150.725 120.696 151.168 122.318C151.574 123.949 152.033 125.568 152.593 127.152C153.127 128.725 153.782 130.254 154.551 131.727C154.714 132.043 154.923 132.333 155.172 132.587C155.199 132.617 155.205 132.611 155.205 132.611C155.211 132.614 155.194 132.611 155.218 132.623L155.316 132.667C155.449 132.721 155.574 132.79 155.69 132.874C155.916 133.028 156.114 133.222 156.272 133.446C156.558 133.85 156.764 134.305 156.882 134.786C157.003 135.241 157.073 135.707 157.093 136.178L157.092 136.22L157.087 136.264C156.966 137.5 157.007 138.746 157.208 139.972C157.364 141.155 157.833 142.275 158.567 143.215C158.75 143.43 158.959 143.622 159.189 143.785L159.532 144.032L159.919 144.208C160.477 144.455 161.06 144.643 161.658 144.768C162.23 144.901 162.821 144.928 163.403 144.847C163.659 144.8 163.903 144.703 164.12 144.56C164.302 144.431 164.443 144.252 164.527 144.046L165.037 144.528C164.665 144.607 164.286 144.652 163.905 144.662C163.523 144.671 163.14 144.638 162.766 144.561C162.391 144.484 162.027 144.361 161.682 144.195C161.327 144.03 161 143.812 160.712 143.548L160.703 143.541C160.686 143.525 160.672 143.506 160.662 143.485C160.268 142.723 160.084 141.869 160.13 141.012C160.212 140.185 160.441 139.378 160.806 138.631C160.982 138.261 161.179 137.902 161.395 137.554C161.637 137.226 161.845 136.872 162.115 136.567C162.619 135.927 163.182 135.335 163.797 134.801C164.415 134.26 165.099 133.799 165.832 133.429C166.018 133.334 166.211 133.253 166.408 133.186C166.604 133.103 166.809 133.044 167.019 133.01C167.404 132.949 167.784 132.862 168.157 132.749C168.857 132.476 169.488 132.05 170.002 131.501C170.516 130.953 170.902 130.297 171.13 129.581C171.145 129.541 171.165 129.503 171.19 129.468C171.655 128.845 172.133 128.229 172.659 127.642C173.19 127.024 173.806 126.484 174.487 126.038C174.884 125.775 175.343 125.623 175.818 125.598C176.093 125.597 176.363 125.662 176.608 125.787C176.852 125.912 177.063 126.093 177.222 126.316C177.489 126.689 177.681 127.11 177.785 127.556C177.891 127.969 177.955 128.393 177.975 128.819L177.089 128.34C177.407 128.14 177.681 127.878 177.897 127.57C178.112 127.262 178.264 126.915 178.343 126.548C178.491 125.792 178.386 125.009 178.043 124.319C177.908 124.009 177.7 123.737 177.436 123.526C177.382 123.476 177.364 123.504 177.335 123.468C177.337 123.48 177.347 123.486 177.354 123.48C177.345 123.48 177.391 123.468 177.334 123.471L177.171 123.477C176.953 123.48 176.737 123.434 176.54 123.342C176.376 123.256 176.226 123.146 176.095 123.015C175.717 122.603 175.436 122.111 175.274 121.576C175.112 121.108 174.989 120.628 174.907 120.139L174.918 120.196C174.725 119.513 174.557 118.824 174.345 118.148C174.11 117.48 173.917 116.797 173.646 116.144C173.149 114.821 172.559 113.535 171.881 112.295C171.203 111.059 170.434 109.875 169.58 108.754C168.743 107.646 167.794 106.628 166.747 105.715L166.89 105.796L163.543 104.35L163.675 104.387L162.581 104.262C162.219 104.203 161.852 104.175 161.485 104.178C160.755 104.159 160.024 104.213 159.304 104.34C158.582 104.451 157.872 104.631 157.184 104.878C156.504 105.154 155.851 105.495 155.235 105.895C153.993 106.722 152.903 107.758 152.013 108.956C151.105 110.169 150.372 111.504 149.836 112.922L149.834 112.926C149.828 112.943 149.816 112.956 149.8 112.964C149.784 112.972 149.766 112.973 149.749 112.968C149.732 112.962 149.718 112.951 149.709 112.935C149.701 112.92 149.698 112.901 149.703 112.884C150.114 111.389 150.751 109.966 151.593 108.664C152.434 107.335 153.516 106.174 154.782 105.241C155.424 104.771 156.11 104.365 156.83 104.026C157.564 103.712 158.329 103.473 159.112 103.314C159.894 103.149 160.69 103.063 161.489 103.056C161.886 103.04 162.284 103.057 162.678 103.106L163.867 103.204C163.898 103.206 163.928 103.213 163.956 103.224L164 103.241L167.394 104.574C167.446 104.594 167.494 104.621 167.538 104.655C168.717 105.599 169.779 106.68 170.7 107.877C171.623 109.044 172.451 110.282 173.177 111.581C173.887 112.884 174.503 114.235 175.022 115.626C175.309 116.31 175.49 117.03 175.723 117.732C175.931 118.442 176.093 119.164 176.28 119.879L176.288 119.917L176.29 119.935C176.352 120.341 176.447 120.742 176.573 121.133C176.665 121.469 176.824 121.784 177.042 122.057C177.132 122.151 177.151 122.148 177.161 122.142L177.167 122.149C177.167 122.153 177.269 122.147 177.316 122.149C177.436 122.152 177.556 122.164 177.674 122.185C177.852 122.243 178.021 122.326 178.177 122.431C178.632 122.777 178.989 123.236 179.213 123.762C179.665 124.716 179.786 125.794 179.556 126.825C179.427 127.342 179.198 127.828 178.88 128.255C178.563 128.682 178.164 129.043 177.707 129.315L177.694 129.323C177.629 129.361 177.556 129.387 177.481 129.397C177.405 129.408 177.328 129.403 177.255 129.384C177.181 129.365 177.112 129.332 177.051 129.286C176.99 129.24 176.939 129.183 176.9 129.117C176.85 129.032 176.823 128.935 176.82 128.836C176.834 128.181 176.674 127.534 176.357 126.961C176.302 126.865 176.223 126.785 176.127 126.728C176.032 126.672 175.923 126.641 175.812 126.639C175.517 126.653 175.231 126.74 174.978 126.894C174.356 127.263 173.789 127.716 173.291 128.241C172.765 128.772 172.271 129.345 171.788 129.93L171.848 129.817C171.536 130.612 171.068 131.337 170.473 131.95C169.884 132.571 169.142 133.026 168.322 133.27C167.934 133.407 167.452 133.42 167.116 133.51C166.93 133.536 166.748 133.585 166.574 133.656C166.392 133.714 166.214 133.786 166.042 133.87C165.34 134.212 164.684 134.64 164.088 135.145C162.868 136.141 161.885 137.395 161.208 138.817C160.876 139.514 160.681 140.269 160.634 141.039C160.613 141.788 160.803 142.529 161.181 143.176L161.132 143.114C161.381 143.312 161.658 143.473 161.954 143.592C162.255 143.717 162.571 143.805 162.894 143.853C163.217 143.901 163.544 143.912 163.87 143.885C164.197 143.859 164.521 143.802 164.837 143.717L164.86 143.712C164.963 143.686 165.073 143.702 165.164 143.757C165.256 143.812 165.322 143.902 165.347 144.005C165.363 144.069 165.363 144.136 165.347 144.199C165.231 144.595 165.007 144.951 164.7 145.227C164.393 145.503 164.015 145.688 163.609 145.761C162.906 145.905 162.181 145.916 161.474 145.791C160.79 145.687 160.12 145.508 159.475 145.257L158.969 145.039C158.812 144.943 158.661 144.836 158.507 144.734C158.202 144.527 157.922 144.285 157.675 144.011C157.434 143.739 157.214 143.449 157.018 143.143C156.839 142.835 156.682 142.514 156.547 142.184C156.287 141.539 156.098 140.866 155.984 140.179C155.774 138.83 155.754 137.459 155.925 136.104L155.919 136.19C155.925 135.457 155.733 134.736 155.363 134.102C155.281 133.977 155.176 133.868 155.054 133.781C155 133.738 154.941 133.703 154.877 133.677C154.735 133.612 154.601 133.53 154.478 133.434C154.126 133.09 153.835 132.689 153.618 132.247C152.846 130.701 152.228 129.083 151.772 127.416C151.281 125.781 150.89 124.116 150.601 122.433C150.269 120.752 150.185 119.032 150.354 117.327C150.357 117.309 150.367 117.292 150.381 117.281C150.396 117.27 150.414 117.266 150.432 117.268C150.45 117.271 150.465 117.281 150.476 117.294C150.487 117.308 150.492 117.325 150.492 117.342Z" fill="white"/>
<path d="M173.087 95.5007C173.439 95.3689 173.811 95.3032 174.187 95.3069C174.554 95.3031 174.921 95.3386 175.281 95.4126C176.01 95.5528 176.692 95.8756 177.262 96.3509C176.897 96.3562 176.532 96.3298 176.171 96.272C175.821 96.223 175.479 96.1579 175.138 96.0886C174.44 95.9478 173.754 95.7512 173.087 95.5007Z" fill="white"/>
<path d="M182.447 99.6689C184.423 101.342 186.017 103.42 187.122 105.762C188.262 108.032 189.407 110.299 190.619 112.514C191.217 113.625 191.834 114.726 192.502 115.777C192.837 116.294 193.18 116.825 193.536 117.268C193.642 117.418 193.95 117.67 194.163 117.897C194.395 118.128 194.622 118.363 194.844 118.602C195.771 119.559 196.564 120.636 197.203 121.804C197.578 122.453 197.767 123.193 197.75 123.942C197.718 124.385 197.539 124.804 197.241 125.134C196.955 125.418 196.609 125.635 196.228 125.769C196.166 125.793 196.1 125.805 196.034 125.804C195.968 125.803 195.902 125.79 195.841 125.763C195.781 125.737 195.726 125.699 195.679 125.652C195.633 125.604 195.597 125.548 195.572 125.487C195.563 125.464 195.556 125.44 195.55 125.417C195.39 124.728 195.16 124.058 194.864 123.416C194.619 122.797 194.18 122.273 193.613 121.923C193.301 121.818 192.967 121.804 192.648 121.883C192.329 121.962 192.039 122.13 191.812 122.368C191.255 122.852 190.754 123.398 190.32 123.994C190.648 123.311 191.074 122.679 191.585 122.119C191.86 121.827 192.187 121.589 192.549 121.417C192.953 121.234 193.41 121.208 193.832 121.343C194.601 121.674 195.23 122.266 195.605 123.015C196.004 123.692 196.318 124.417 196.538 125.171L195.86 124.82C196.076 124.727 196.271 124.591 196.431 124.419C196.551 124.261 196.614 124.067 196.61 123.869C196.572 123.34 196.404 122.829 196.119 122.382C195.48 121.346 194.725 120.386 193.868 119.522C193.654 119.298 193.435 119.079 193.213 118.863C192.99 118.627 192.783 118.493 192.488 118.146C192.068 117.627 191.684 117.08 191.339 116.508C190.656 115.4 190.042 114.271 189.449 113.132C188.292 110.841 187.245 108.509 186.281 106.143C185.391 103.778 184.093 101.587 182.447 99.6689Z" fill="white"/>
<path d="M196.042 125.291C196.957 126.15 197.824 127.045 198.678 127.951C199.527 128.861 200.37 129.776 201.182 130.715C202 131.648 202.81 132.589 203.593 133.549C204.393 134.497 205.166 135.466 205.93 136.442L205.706 136.229L211.382 140.122L217.042 144.043L221.116 147.033L222.132 148.905C222.132 148.905 218.086 146.669 216.107 145.484C214.142 144.275 212.178 143.066 210.261 141.788C208.338 140.515 206.423 139.24 204.544 137.897L204.528 137.885C204.449 137.828 204.379 137.761 204.32 137.684C203.57 136.697 202.829 135.704 202.115 134.69C201.384 133.689 200.68 132.667 199.985 131.639C199.282 130.616 198.611 129.568 197.947 128.516C197.287 127.46 196.641 126.393 196.042 125.291Z" fill="white"/>
<path d="M188.108 138.827C189.388 140.513 190.802 142.092 192.335 143.55C193.838 144.999 195.467 146.311 197.203 147.47C198.924 148.65 200.749 149.667 202.657 150.51C203.599 150.974 204.59 151.316 205.577 151.698C206.07 151.893 206.573 152.062 207.083 152.206C207.59 152.366 208.098 152.537 208.607 152.719C208.074 152.683 207.538 152.638 207.002 152.581C206.463 152.539 205.928 152.463 205.399 152.353C204.334 152.152 203.285 151.871 202.261 151.514C201.228 151.171 200.22 150.756 199.245 150.271C198.745 150.05 198.293 149.74 197.815 149.478C197.337 149.217 196.873 148.928 196.428 148.614C195.987 148.292 195.527 147.997 195.104 147.653L193.841 146.616C193.035 145.886 192.272 145.109 191.556 144.29C190.112 142.673 188.946 140.827 188.108 138.827Z" fill="white"/>
<path d="M147.429 150.349C147.756 150.731 148.017 151.164 148.202 151.632C148.379 152.066 148.509 152.519 148.589 152.981C148.671 153.443 148.703 153.913 148.684 154.382C148.668 154.885 148.568 155.381 148.388 155.851C148.059 155.47 147.797 155.037 147.613 154.569C147.436 154.134 147.307 153.681 147.228 153.219C147.147 152.756 147.116 152.287 147.135 151.818C147.151 151.315 147.25 150.819 147.429 150.349Z" fill="white"/>
<path d="M146.583 155.882C144.804 159.829 143.445 163.951 142.527 168.181C141.583 172.395 141.088 176.696 141.051 181.013C141.029 183.165 141.155 185.316 141.425 187.451C142.199 193.861 144.403 200.016 147.875 205.461L147.877 205.465C147.917 205.529 147.942 205.6 147.953 205.674C147.963 205.748 147.957 205.824 147.937 205.896C145.708 213.519 143.417 221.121 141.063 228.702C138.731 236.291 136.263 243.839 133.734 251.367C131.216 258.898 128.53 266.373 125.677 273.792C124.238 277.495 122.755 281.183 121.124 284.813C120.307 286.626 119.454 288.426 118.506 290.183C118.035 291.063 117.531 291.928 116.975 292.766C116.441 293.65 115.75 294.43 114.935 295.065L114.95 294.618C117.036 296.033 119.203 297.324 121.44 298.485C123.669 299.671 125.959 300.744 128.274 301.756C132.914 303.765 137.683 305.463 142.548 306.84C152.288 309.579 162.306 311.205 172.412 311.685C182.507 312.162 192.624 311.638 202.615 310.121C212.599 308.604 222.442 306.276 232.047 303.159L231.625 304.028L220.869 275.181L210.198 246.303L199.618 217.391L189.115 188.451L189.113 188.446C189.097 188.403 189.091 188.357 189.093 188.311L189.798 174.794L190.128 168.034C190.227 165.781 190.334 163.527 190.378 161.274C190.378 161.265 190.379 161.256 190.383 161.248C190.386 161.239 190.392 161.232 190.398 161.225C190.404 161.219 190.412 161.214 190.42 161.21C190.429 161.207 190.438 161.205 190.447 161.205C190.465 161.205 190.482 161.213 190.495 161.226C190.508 161.238 190.516 161.256 190.516 161.274C190.524 163.533 190.468 165.788 190.42 168.045L190.243 174.812C190.116 179.323 189.971 183.833 189.805 188.343L189.783 188.203L200.681 216.997L211.503 245.819L222.234 274.675L232.879 303.563C232.91 303.645 232.924 303.732 232.921 303.82C232.918 303.907 232.898 303.994 232.862 304.073C232.825 304.153 232.774 304.225 232.71 304.284C232.646 304.344 232.57 304.391 232.488 304.421L232.457 304.432C222.775 307.539 212.842 309.805 202.77 311.204C192.702 312.613 182.519 313.021 172.371 312.423C162.232 311.789 152.191 310.065 142.421 307.282C137.549 305.862 132.766 304.153 128.097 302.166C125.766 301.164 123.46 300.1 121.211 298.921C118.945 297.763 116.749 296.472 114.635 295.055C114.6 295.031 114.571 294.999 114.551 294.962C114.531 294.924 114.52 294.882 114.52 294.84C114.519 294.797 114.529 294.755 114.548 294.718C114.567 294.68 114.595 294.647 114.63 294.622L114.65 294.608C115.393 294.01 116.022 293.28 116.503 292.456C117.032 291.633 117.515 290.774 117.967 289.897C118.877 288.147 119.697 286.346 120.482 284.529C122.049 280.895 123.47 277.193 124.851 273.479C127.606 266.045 130.109 258.517 132.625 250.996C135.124 243.468 137.51 235.902 139.92 228.344C142.309 220.78 144.643 213.197 146.921 205.598L146.983 206.032C144.634 202.316 142.883 198.256 141.793 193.998C141.238 191.88 140.845 189.723 140.615 187.546C140.371 185.374 140.276 183.189 140.328 181.004C140.427 176.643 141.017 172.307 142.087 168.078C143.11 163.85 144.576 159.741 146.46 155.82C146.468 155.803 146.482 155.791 146.499 155.785C146.516 155.779 146.535 155.78 146.552 155.787C146.568 155.795 146.581 155.809 146.587 155.826C146.593 155.843 146.592 155.862 146.585 155.879L146.583 155.882Z" fill="white"/>
<path d="M162.233 154.768L146.521 155.851C146.521 155.851 141.579 166.372 141.911 169.92C141.911 169.92 160.821 157.841 162.233 154.768Z" fill="white"/>
<path d="M189.452 188.325C188.739 187.555 188.098 186.722 187.537 185.836C186.977 184.972 186.452 184.087 185.975 183.175C185.498 182.262 185.069 181.322 184.682 180.361C184.277 179.396 183.958 178.397 183.728 177.375C184.431 178.15 185.067 178.982 185.629 179.864C186.196 180.728 186.719 181.617 187.198 182.532C187.68 183.444 188.114 184.381 188.498 185.339C188.902 186.304 189.222 187.303 189.452 188.325C189.452 188.325 190.447 166.073 190.447 161.276L188.843 161.193C186.915 161.849 179.359 159.409 179.359 159.409C165.174 209.346 143.959 199.06 143.959 199.06L147.43 205.745C148.847 207.238 150.153 208.814 151.425 210.411C152.697 212.008 153.907 213.646 155.103 215.298C156.285 216.964 157.446 218.644 158.538 220.365C159.644 222.079 160.709 223.828 161.663 225.653C160.239 224.16 158.932 222.591 157.66 220.994C156.388 219.397 155.179 217.752 153.983 216.1C152.808 214.434 151.646 212.761 150.547 211.033C149.448 209.319 148.384 207.57 147.43 205.745C147.43 205.745 122.758 289.858 114.795 294.835C114.795 294.835 159.589 327.186 232.255 303.794L189.452 188.325ZM119.724 295.824C119.455 295.815 119.199 295.702 119.012 295.508C118.825 295.315 118.72 295.056 118.72 294.787C118.72 294.517 118.825 294.259 119.012 294.065C119.199 293.872 119.455 293.759 119.724 293.75C119.993 293.759 120.248 293.872 120.435 294.065C120.622 294.259 120.727 294.517 120.727 294.787C120.727 295.056 120.622 295.315 120.435 295.508C120.248 295.702 119.993 295.815 119.724 295.824ZM125.198 298.561C124.929 298.552 124.674 298.439 124.487 298.245C124.3 298.052 124.195 297.793 124.195 297.524C124.195 297.255 124.3 296.996 124.487 296.803C124.674 296.609 124.929 296.496 125.198 296.487C125.468 296.496 125.723 296.609 125.91 296.803C126.097 296.996 126.202 297.255 126.202 297.524C126.202 297.793 126.097 298.052 125.91 298.245C125.723 298.439 125.468 298.552 125.198 298.561H125.198ZM130.673 301.049C130.404 301.041 130.149 300.927 129.962 300.734C129.775 300.541 129.67 300.282 129.67 300.013C129.67 299.743 129.775 299.485 129.962 299.291C130.149 299.098 130.404 298.985 130.673 298.976C130.942 298.985 131.197 299.098 131.384 299.291C131.572 299.485 131.676 299.743 131.676 300.013C131.676 300.282 131.572 300.54 131.384 300.734C131.197 300.927 130.942 301.04 130.673 301.049V301.049ZM137.392 303.538C137.123 303.529 136.868 303.416 136.681 303.223C136.494 303.029 136.389 302.77 136.389 302.501C136.389 302.232 136.494 301.973 136.681 301.78C136.868 301.586 137.123 301.473 137.392 301.464C137.661 301.473 137.916 301.586 138.103 301.78C138.291 301.973 138.395 302.232 138.395 302.501C138.395 302.77 138.291 303.029 138.103 303.222C137.916 303.416 137.661 303.529 137.392 303.538V303.538ZM144.858 305.529C144.589 305.52 144.334 305.407 144.147 305.213C143.959 305.02 143.855 304.761 143.855 304.492C143.855 304.223 143.959 303.964 144.147 303.771C144.334 303.577 144.589 303.464 144.858 303.455C145.127 303.464 145.382 303.577 145.569 303.771C145.756 303.964 145.861 304.223 145.861 304.492C145.861 304.761 145.756 305.02 145.569 305.213C145.382 305.407 145.127 305.52 144.858 305.529V305.529ZM152.573 307.271C152.304 307.262 152.048 307.149 151.861 306.955C151.674 306.762 151.569 306.503 151.569 306.234C151.569 305.965 151.674 305.706 151.861 305.513C152.048 305.319 152.304 305.206 152.573 305.197C152.842 305.206 153.097 305.319 153.284 305.513C153.471 305.706 153.575 305.965 153.575 306.234C153.575 306.503 153.471 306.762 153.284 306.955C153.097 307.149 152.842 307.262 152.573 307.271V307.271ZM160.038 308.515C159.769 308.506 159.514 308.393 159.327 308.2C159.14 308.006 159.035 307.747 159.035 307.478C159.035 307.209 159.14 306.95 159.327 306.757C159.514 306.563 159.769 306.45 160.038 306.441C160.307 306.45 160.562 306.563 160.749 306.757C160.936 306.95 161.041 307.209 161.041 307.478C161.041 307.747 160.936 308.006 160.749 308.199C160.562 308.393 160.307 308.506 160.038 308.515V308.515ZM167.255 309.262C166.986 309.253 166.731 309.14 166.544 308.946C166.356 308.753 166.252 308.494 166.252 308.225C166.252 307.956 166.356 307.697 166.544 307.503C166.731 307.31 166.986 307.197 167.255 307.188C167.524 307.197 167.779 307.31 167.966 307.504C168.153 307.697 168.258 307.956 168.258 308.225C168.258 308.494 168.153 308.753 167.966 308.946C167.779 309.14 167.524 309.253 167.255 309.262V309.262ZM173.974 309.759C173.705 309.751 173.45 309.637 173.263 309.444C173.076 309.25 172.971 308.992 172.971 308.723C172.971 308.453 173.076 308.195 173.263 308.001C173.45 307.808 173.705 307.695 173.974 307.686C174.243 307.695 174.498 307.808 174.685 308.001C174.872 308.195 174.977 308.453 174.977 308.723C174.977 308.992 174.872 309.25 174.685 309.444C174.498 309.637 174.243 309.75 173.974 309.759V309.759ZM181.191 309.759C180.922 309.751 180.667 309.637 180.48 309.444C180.292 309.25 180.188 308.992 180.188 308.723C180.188 308.453 180.292 308.195 180.48 308.001C180.667 307.808 180.922 307.695 181.191 307.686C181.46 307.695 181.715 307.808 181.902 308.001C182.089 308.195 182.194 308.453 182.194 308.723C182.194 308.992 182.089 309.25 181.902 309.444C181.715 309.637 181.46 309.75 181.191 309.759V309.759ZM188.159 309.511C187.89 309.502 187.635 309.389 187.448 309.195C187.26 309.002 187.156 308.743 187.156 308.474C187.156 308.204 187.26 307.946 187.448 307.752C187.635 307.559 187.89 307.446 188.159 307.437C188.428 307.446 188.683 307.559 188.87 307.752C189.057 307.946 189.162 308.205 189.162 308.474C189.162 308.743 189.057 309.001 188.87 309.195C188.683 309.388 188.428 309.502 188.159 309.511V309.511ZM195.127 309.013C194.858 309.004 194.603 308.891 194.416 308.697C194.228 308.504 194.124 308.245 194.124 307.976C194.124 307.707 194.228 307.448 194.416 307.255C194.603 307.061 194.858 306.948 195.127 306.939C195.396 306.948 195.651 307.061 195.838 307.255C196.025 307.448 196.13 307.707 196.13 307.976C196.13 308.245 196.025 308.504 195.838 308.697C195.651 308.891 195.396 309.004 195.127 309.013V309.013ZM201.846 308.515C201.577 308.506 201.322 308.393 201.135 308.2C200.947 308.006 200.843 307.747 200.843 307.478C200.843 307.209 200.947 306.95 201.135 306.757C201.322 306.563 201.577 306.45 201.846 306.441C202.115 306.45 202.37 306.563 202.557 306.757C202.744 306.95 202.849 307.209 202.849 307.478C202.849 307.747 202.744 308.006 202.557 308.199C202.37 308.393 202.115 308.506 201.846 308.515V308.515ZM208.565 307.271C208.296 307.262 208.041 307.149 207.854 306.955C207.667 306.762 207.562 306.503 207.562 306.234C207.562 305.965 207.667 305.706 207.854 305.513C208.041 305.319 208.296 305.206 208.565 305.197C208.834 305.206 209.089 305.319 209.276 305.513C209.463 305.706 209.568 305.965 209.568 306.234C209.568 306.503 209.463 306.762 209.276 306.955C209.089 307.149 208.834 307.262 208.565 307.271V307.271ZM215.533 305.778C215.264 305.769 215.009 305.656 214.822 305.462C214.635 305.269 214.53 305.01 214.53 304.741C214.53 304.472 214.635 304.213 214.822 304.019C215.009 303.826 215.264 303.713 215.533 303.704C215.802 303.713 216.057 303.826 216.244 304.02C216.431 304.213 216.536 304.472 216.536 304.741C216.536 305.01 216.431 305.269 216.244 305.462C216.057 305.656 215.802 305.769 215.533 305.778V305.778ZM221.754 304.036C221.485 304.027 221.23 303.914 221.043 303.72C220.856 303.527 220.751 303.268 220.751 302.999C220.751 302.73 220.856 302.471 221.043 302.277C221.23 302.084 221.485 301.971 221.754 301.962C222.023 301.971 222.278 302.084 222.466 302.278C222.653 302.471 222.757 302.73 222.757 302.999C222.757 303.268 222.653 303.527 222.466 303.72C222.278 303.914 222.023 304.027 221.754 304.036V304.036ZM228.225 301.796C227.956 301.787 227.701 301.674 227.513 301.481C227.326 301.287 227.221 301.028 227.221 300.759C227.221 300.49 227.326 300.231 227.513 300.038C227.701 299.844 227.956 299.731 228.225 299.722C228.494 299.731 228.749 299.844 228.936 300.038C229.123 300.231 229.228 300.49 229.228 300.759C229.228 301.028 229.123 301.287 228.936 301.48C228.749 301.674 228.494 301.787 228.225 301.796V301.796Z" fill="white"/>
<path d="M177.67 75.6262C177.872 75.6192 178.063 75.5342 178.203 75.3891C178.343 75.244 178.421 75.0502 178.421 74.8485C178.421 74.6468 178.343 74.4529 178.203 74.3079C178.063 74.1628 177.872 74.0778 177.67 74.0708C177.469 74.0778 177.278 74.1628 177.137 74.3079C176.997 74.4529 176.919 74.6468 176.919 74.8485C176.919 75.0502 176.997 75.244 177.137 75.3891C177.278 75.5342 177.469 75.6192 177.67 75.6262Z" fill="white"/>
<path d="M175.513 71.4887C175.791 71.1763 176.147 70.9432 176.544 70.8133C176.918 70.6847 177.315 70.6342 177.709 70.665C178.127 70.6899 178.531 70.819 178.886 71.0403C179.082 71.1509 179.25 71.3049 179.377 71.4905C179.504 71.676 179.587 71.8882 179.619 72.1108C179.26 72.0686 178.897 72.0548 178.536 72.0693C178.227 72.067 177.92 72.0687 177.603 72.0431C177.272 72.0167 176.942 71.9669 176.617 71.8942C176.233 71.8073 175.862 71.671 175.513 71.4887Z" fill="white"/>
<path d="M178.749 80.8208C178.749 80.8208 180.789 82.7971 182.444 81.9334" stroke="white" stroke-width="0.96777" stroke-linecap="round" stroke-linejoin="round"/>
<path d="M141.951 169.72C144.113 168.071 146.293 166.477 148.47 164.884C150.639 163.278 152.81 161.687 154.942 160.049C156.014 159.239 157.075 158.415 158.113 157.566C158.648 157.159 159.162 156.73 159.671 156.295C160.174 155.854 160.715 155.449 161.203 154.994C163.283 153.295 165.125 151.323 166.679 149.132C166.394 149.74 166.138 150.386 165.791 150.978C165.418 151.548 165.05 152.133 164.648 152.69L163.35 154.284C162.895 154.795 162.413 155.279 161.944 155.778C160.014 157.706 157.955 159.5 155.781 161.147C153.607 162.782 151.38 164.341 149.073 165.773C146.778 167.225 144.4 168.543 141.951 169.72Z" fill="white"/>
<path d="M183.725 106.989C184.794 108.892 185.81 110.827 186.726 112.812C187.647 114.794 188.508 116.807 189.236 118.878C190.012 120.95 190.534 123.109 190.792 125.306C190.928 126.446 190.845 127.602 190.548 128.711C190.368 129.297 190.066 129.837 189.664 130.298C189.228 130.748 188.692 131.088 188.099 131.29L188.43 130.816C188.549 132.698 188.701 134.586 188.9 136.459C189.001 137.395 189.114 138.33 189.26 139.25C189.335 139.709 189.408 140.168 189.508 140.608C189.557 140.827 189.612 141.042 189.676 141.237C189.704 141.325 189.737 141.411 189.776 141.494C189.802 141.572 189.861 141.594 189.764 141.533L189.686 142.581L186.401 144.025C186.298 144.07 186.185 144.086 186.074 144.071C185.962 144.055 185.857 144.009 185.771 143.938C185.684 143.866 185.619 143.772 185.583 143.666C185.546 143.559 185.54 143.445 185.565 143.335L185.567 143.325C186.028 141.239 186.342 139.123 186.508 136.993C186.653 134.855 186.7 132.71 186.65 130.558C186.583 128.409 186.471 126.259 186.254 124.115C186.055 121.97 185.821 119.826 185.512 117.691C184.915 113.417 184.11 109.169 183.153 104.958C182.67 102.865 182.151 100.728 181.558 98.7171C181.328 97.7925 180.788 96.9748 180.028 96.4004C179.63 96.2174 179.188 96.1532 178.755 96.2158C178.322 96.2783 177.916 96.4648 177.586 96.7529L177.627 96.7161L177.62 96.7229L177.68 96.0636C179.04 98.188 179.965 100.562 180.4 103.047C180.855 105.485 181.042 107.967 180.958 110.446C180.879 112.908 180.638 115.363 180.235 117.794C179.853 120.22 179.314 122.619 178.624 124.976C179.172 122.59 179.593 120.175 179.885 117.744C180.186 115.322 180.326 112.882 180.306 110.441C180.311 108.015 180.064 105.595 179.567 103.22C179.098 100.871 178.168 98.6388 176.831 96.652C176.762 96.5538 176.73 96.4348 176.74 96.3155C176.75 96.1961 176.801 96.0839 176.884 95.9982L176.89 95.9925L176.897 95.9856C176.91 95.9725 176.923 95.9602 176.938 95.9487C177.43 95.5543 178.008 95.2809 178.625 95.1504C179.285 95.0109 179.972 95.1084 180.567 95.4258C181.599 96.1056 182.347 97.1397 182.67 98.3329C183.322 100.474 183.839 102.552 184.35 104.679C185.349 108.915 186.196 113.188 186.834 117.499C187.506 121.813 187.886 126.167 187.972 130.532C188.006 132.718 187.94 134.905 187.773 137.095C187.585 139.288 187.243 141.465 186.75 143.61L185.916 142.91L189.212 141.492L189.134 142.54C188.947 142.405 188.8 142.221 188.71 142.009C188.648 141.878 188.596 141.742 188.553 141.604C188.472 141.348 188.413 141.103 188.36 140.86C188.256 140.374 188.177 139.896 188.114 139.418C187.986 138.462 187.895 137.512 187.816 136.561C187.661 134.66 187.556 132.765 187.482 130.86C187.478 130.758 187.507 130.657 187.565 130.573C187.622 130.488 187.705 130.424 187.801 130.39L187.813 130.386C188.259 130.244 188.667 130.001 189.003 129.676C189.326 129.318 189.571 128.898 189.724 128.442C190.011 127.444 190.107 126.401 190.008 125.368C189.796 123.223 189.351 121.109 188.682 119.061C187.336 114.918 185.68 110.882 183.725 106.989Z" fill="white"/>
<path d="M143.957 199.058C146.263 199.903 148.754 200.108 151.167 199.652C152.357 199.45 153.52 199.113 154.633 198.647C155.197 198.436 155.725 198.138 156.271 197.891C156.788 197.58 157.327 197.311 157.823 196.968C161.866 194.314 165.015 190.476 167.632 186.384C170.211 182.217 172.43 177.838 174.265 173.294C176.137 168.748 177.787 164.099 179.363 159.408C178.33 164.256 176.962 169.028 175.27 173.687C173.589 178.382 171.419 182.887 168.796 187.128C167.446 189.245 165.917 191.241 164.225 193.096C162.512 194.956 160.547 196.567 158.388 197.883C156.217 199.206 153.783 200.037 151.257 200.319C150.003 200.445 148.739 200.407 147.496 200.206C146.26 200.022 145.065 199.634 143.957 199.058Z" fill="white"/>
<path d="M218.081 140.763C218.152 140.701 218.176 140.868 218.241 140.945L218.4 141.228L218.711 141.799L219.316 142.949C219.709 143.72 220.092 144.496 220.465 145.277C221.214 146.839 221.915 148.422 222.589 150.016C223.935 153.207 225.161 156.444 226.268 159.728C228.475 166.297 230.266 172.998 231.63 179.792C232.998 186.588 233.963 193.459 234.52 200.368C235.072 207.282 235.24 214.22 235.023 221.152L234.53 220.63L291.833 221.595L291.434 221.734C293.048 220.45 294.742 219.27 296.505 218.201C298.264 217.124 300.092 216.165 301.979 215.332C303.881 214.487 305.86 213.831 307.89 213.373C309.956 212.904 312.084 212.766 314.194 212.965L313.304 213.687C314.434 200.44 315.437 187.181 316.314 173.911C316.743 167.278 317.137 160.643 317.444 154.011C317.592 150.695 317.717 147.379 317.767 144.072C317.787 142.419 317.808 140.767 317.768 139.13C317.748 138.313 317.716 137.497 317.649 136.705C317.615 136.311 317.571 135.921 317.509 135.563C317.482 135.404 317.446 135.246 317.4 135.091C317.381 135.032 317.362 134.986 317.358 134.976C317.384 134.985 317.331 135.044 317.679 135.231L318.066 135.315C313.592 135.199 309.101 135.143 304.619 135.128C300.134 135.105 295.65 135.111 291.17 135.203C286.691 135.296 282.213 135.454 277.76 135.793C275.535 135.965 273.314 136.182 271.127 136.516C270.035 136.686 268.948 136.883 267.9 137.151C266.919 137.347 265.985 137.73 265.147 138.278L265.108 138.311C264.987 138.411 264.837 138.469 264.681 138.477L218.081 140.763ZM217.897 140.666L241.041 138.796L264.582 136.949L264.116 137.147C265.117 136.395 266.268 135.869 267.492 135.606C268.617 135.303 269.741 135.086 270.865 134.895C273.115 134.521 275.365 134.272 277.615 134.067C282.116 133.665 286.618 133.447 291.119 133.294C300.124 132.989 309.116 132.991 318.123 133.187L318.18 133.188C318.295 133.191 318.407 133.22 318.51 133.271C318.829 133.415 319.088 133.666 319.241 133.982C319.317 134.13 319.38 134.285 319.431 134.445C319.505 134.688 319.565 134.935 319.608 135.186C319.69 135.647 319.739 136.084 319.778 136.518C319.855 137.383 319.891 138.23 319.915 139.075C319.958 140.763 319.956 142.437 319.92 144.109C319.851 147.452 319.707 150.783 319.541 154.111C319.206 160.767 318.751 167.408 318.257 174.046C317.267 187.322 316.117 200.577 314.896 213.831C314.887 213.936 314.858 214.037 314.809 214.13C314.761 214.223 314.695 214.305 314.614 214.373C314.534 214.44 314.441 214.491 314.342 214.522C314.242 214.554 314.136 214.565 314.032 214.556L314.007 214.553C312.067 214.343 310.106 214.442 308.198 214.846C306.256 215.254 304.359 215.851 302.535 216.63C300.692 217.41 298.904 218.313 297.183 219.332C295.456 220.343 293.795 221.461 292.209 222.681L292.196 222.691C292.086 222.777 291.949 222.822 291.81 222.819L234.511 221.637C234.445 221.636 234.38 221.622 234.319 221.596C234.259 221.57 234.204 221.532 234.158 221.485C234.112 221.437 234.076 221.381 234.052 221.32C234.028 221.259 234.016 221.193 234.017 221.128L234.017 221.115C234.299 214.219 234.198 207.314 233.715 200.43C233.227 193.543 232.332 186.691 231.034 179.909C229.739 173.124 228.018 166.426 225.882 159.857C224.807 156.575 223.615 153.334 222.306 150.135C221.649 148.538 220.964 146.952 220.233 145.387C219.869 144.604 219.494 143.826 219.108 143.054L218.517 141.902L218.212 141.331L218.057 141.048C218.016 140.936 217.935 140.914 217.898 140.666H217.897Z" fill="white"/>
<path d="M281.425 143.468C283.093 149.742 284.572 156.063 285.861 162.43C287.174 168.788 288.326 175.179 289.317 181.602C290.28 188.026 291.104 194.478 291.555 200.969C291.794 204.212 291.917 207.467 291.886 210.723C291.891 213.979 291.586 217.228 290.974 220.427C291.319 217.207 291.397 213.965 291.209 210.733C291.078 207.503 290.81 204.279 290.481 201.061C289.813 194.626 288.935 188.211 287.951 181.81C286.987 175.406 285.9 169.018 284.805 162.63L281.425 143.468Z" fill="white"/>
<path d="M230.076 139.936C229.067 139.148 228.277 138.115 227.782 136.934C227.288 135.753 227.104 134.466 227.25 133.194C227.405 131.843 227.883 130.549 228.645 129.422C228.842 129.141 229.057 128.87 229.277 128.603C229.515 128.362 229.769 128.097 230.003 127.879C230.455 127.468 230.908 127.057 231.379 126.667C233.258 125.074 235.271 123.647 237.396 122.402C238.463 121.775 239.57 121.209 240.702 120.686C241.271 120.43 241.846 120.189 242.43 119.963C242.706 119.844 243.051 119.742 243.368 119.635C243.689 119.52 244.016 119.427 244.349 119.355C247.01 118.72 249.802 118.91 252.353 119.9C254.87 120.88 257.027 122.606 258.536 124.846C258.904 125.392 259.233 125.964 259.519 126.557L260.269 128.186L261.733 131.463C262.666 133.672 263.61 135.874 264.415 138.153C262.935 136.242 261.594 134.256 260.243 132.276L258.28 129.271L257.317 127.758C257.021 127.311 256.7 126.88 256.356 126.469C255.002 124.856 253.228 123.648 251.23 122.98C250.251 122.653 249.231 122.467 248.2 122.427C247.175 122.365 246.147 122.463 245.152 122.716C244.9 122.765 244.653 122.832 244.411 122.918C244.163 123.001 243.932 123.057 243.658 123.171C243.126 123.367 242.602 123.589 242.075 123.805C241.022 124.241 239.995 124.746 238.972 125.267C236.919 126.337 234.931 127.524 233.016 128.824L231.576 129.819L230.969 130.288C230.791 130.464 230.596 130.628 230.42 130.812C229.713 131.578 229.195 132.5 228.909 133.503C228.602 134.593 228.547 135.739 228.749 136.854C228.951 137.969 229.405 139.023 230.076 139.936Z" fill="white"/>
<path d="M264.051 137.616C264.418 135.569 265.03 133.574 265.874 131.674C266.707 129.738 267.742 127.896 268.963 126.179C270.214 124.435 271.669 122.848 273.299 121.451C274.964 120.038 276.821 118.867 278.814 117.973L279.573 117.657C279.838 117.541 280.108 117.439 280.384 117.351C281.008 117.142 281.659 117.02 282.317 116.988C283.666 116.917 285.007 117.238 286.176 117.915C287.329 118.576 288.288 119.529 288.957 120.677C289.626 121.826 289.981 123.13 289.988 124.459C289.974 125.82 289.555 127.146 288.786 128.268C288.063 129.269 287.151 130.12 286.102 130.771C284.223 131.932 282.162 132.769 280.006 133.248L280.217 133.166L276.421 134.771L272.592 136.31L272.478 136.356C272.462 136.362 272.445 136.367 272.428 136.37C270.917 136.634 269.411 136.862 267.997 137.047C266.582 137.229 265.267 137.407 264.051 137.616ZM264.051 137.616C265.555 137.127 266.96 136.607 268.264 136.091C269.57 135.579 270.784 135.109 271.993 134.675L271.829 134.735L275.408 132.683L279.02 130.697C279.039 130.686 279.06 130.677 279.081 130.669L279.231 130.615C281.026 130.028 282.731 129.193 284.294 128.134C284.964 127.671 285.546 127.091 286.011 126.423C286.387 125.836 286.581 125.151 286.568 124.454C286.542 123.731 286.336 123.025 285.968 122.401C285.599 121.778 285.08 121.257 284.458 120.886C283.998 120.615 283.485 120.443 282.955 120.381C282.424 120.319 281.886 120.367 281.375 120.524C281.213 120.558 280.959 120.667 280.745 120.738L280.076 120.978C276.49 122.44 273.285 124.701 270.703 127.587C267.998 130.58 265.756 133.96 264.051 137.616Z" fill="white"/>
<path d="M156.476 77.8809C154.828 79.3257 153.412 81.0155 152.279 82.891C151.151 84.7398 150.219 86.7006 149.497 88.7419L148.956 90.2761L148.523 91.8477C148.173 92.8819 148.038 93.9702 147.755 95.0296C147.541 96.1025 147.381 97.1894 147.169 98.2748C147.023 99.3675 146.888 100.466 146.687 101.572C146.581 100.462 146.535 99.3444 146.492 98.2223C146.547 97.1069 146.562 95.9797 146.689 94.8628C146.934 92.6145 147.44 90.4024 148.197 88.2712C148.963 86.1283 150.04 84.1098 151.394 82.281C152.717 80.4342 154.459 78.9265 156.476 77.8809Z" fill="white"/>
<path d="M274.482 255.276C276.65 265.442 278.404 275.673 280.056 285.921C280.859 291.049 281.645 296.179 282.352 301.322C283.078 306.462 283.716 311.616 284.265 316.784C283.184 311.7 282.192 306.603 281.287 301.491C280.363 296.383 279.519 291.262 278.691 286.138C277.083 275.884 275.576 265.613 274.482 255.276Z" fill="white"/>
<path d="M234.633 280.147C238.022 279.515 241.414 278.953 244.811 278.463L249.908 277.74L255.009 277.103C261.812 276.276 268.623 275.58 275.442 275.016C278.849 274.69 282.262 274.465 285.674 274.233C289.087 274.012 292.496 273.725 295.914 273.584L306.162 273.07L316.422 272.744L315.733 272.876C318.553 272.016 321.409 271.266 324.245 270.456C327.078 269.638 329.943 268.915 332.8 268.166C335.65 267.397 338.537 266.741 341.407 266.034L345.741 265.058C347.187 264.739 348.647 264.461 350.1 264.161L350.119 264.157C350.162 264.148 350.207 264.156 350.245 264.179C350.282 264.202 350.309 264.238 350.321 264.281C350.332 264.323 350.327 264.368 350.306 264.407C350.285 264.446 350.251 264.475 350.209 264.489L316.669 275.704C316.646 275.712 316.623 275.716 316.599 275.718L296.117 276.997L275.63 278.174L234.654 280.492C234.61 280.494 234.567 280.48 234.533 280.452C234.5 280.424 234.478 280.384 234.473 280.341C234.468 280.297 234.479 280.253 234.505 280.218C234.531 280.183 234.569 280.159 234.612 280.151L234.633 280.147Z" fill="white"/>
<path d="M237.416 297.378C240.881 297.068 244.343 296.822 247.803 296.664L252.992 296.431L258.178 296.279C265.092 296.105 272.001 296.065 278.905 296.159C282.359 296.156 285.808 296.281 289.259 296.367C292.71 296.46 296.161 296.529 299.608 296.713L309.952 297.196L320.29 297.86L319.207 298.047L327.296 295.25C329.985 294.298 332.721 293.465 335.433 292.571C338.142 291.67 340.897 290.886 343.627 290.038L347.758 288.857L351.918 287.749L351.938 287.744C351.98 287.733 352.025 287.738 352.064 287.759C352.102 287.78 352.132 287.815 352.145 287.856C352.159 287.898 352.157 287.943 352.138 287.983C352.12 288.023 352.087 288.054 352.046 288.07L320.294 300.786C320.259 300.8 320.221 300.806 320.184 300.805L299.485 300.121C292.586 299.897 285.689 299.595 278.791 299.336L237.403 297.723C237.359 297.722 237.318 297.703 237.287 297.672C237.256 297.641 237.238 297.599 237.237 297.555C237.236 297.512 237.251 297.469 237.281 297.436C237.31 297.404 237.351 297.383 237.394 297.38L237.416 297.378Z" fill="white"/>
<path d="M227.978 202.9C233.156 202.343 238.322 202.06 243.484 201.885L247.355 201.755L251.222 201.7C253.801 201.671 256.38 201.618 258.955 201.667L266.682 201.756L274.402 202.004C276.976 202.063 279.546 202.214 282.117 202.357C284.688 202.507 287.26 202.614 289.829 202.799L288.839 202.925L297.84 200.509C300.863 199.777 303.872 199 306.905 198.304C309.944 197.626 312.976 196.926 316.042 196.335C317.568 196.016 319.104 195.732 320.644 195.46C322.18 195.175 323.728 194.927 325.282 194.701L325.307 194.698C325.349 194.691 325.393 194.702 325.429 194.726C325.464 194.75 325.489 194.787 325.499 194.83C325.509 194.872 325.502 194.916 325.48 194.954C325.459 194.991 325.424 195.019 325.382 195.032L307.596 200.568L289.794 206.049C289.759 206.06 289.723 206.064 289.687 206.063L274.254 205.416L258.823 204.711L243.392 204.007L227.963 203.245C227.92 203.243 227.879 203.225 227.849 203.194C227.819 203.163 227.801 203.122 227.8 203.079C227.799 203.035 227.814 202.993 227.842 202.961C227.871 202.928 227.91 202.907 227.953 202.903L227.978 202.9Z" fill="white"/>
<path d="M323.024 338.883C327.83 338.883 331.726 334.987 331.726 330.181C331.726 325.375 327.83 321.479 323.024 321.479C318.217 321.479 314.321 325.375 314.321 330.181C314.321 334.987 318.217 338.883 323.024 338.883Z" fill="white"/>
<path d="M231.28 322.037C231.101 321.981 230.928 321.926 230.755 321.871C230.943 321.873 231.125 321.93 231.28 322.037Z" fill="white"/>
<path d="M146.1 197.774C146.369 197.764 146.624 197.651 146.811 197.457C146.997 197.264 147.102 197.006 147.102 196.737C147.102 196.468 146.997 196.209 146.811 196.016C146.624 195.822 146.369 195.709 146.1 195.7C145.831 195.709 145.577 195.822 145.39 196.016C145.203 196.209 145.099 196.468 145.099 196.737C145.099 197.006 145.203 197.264 145.39 197.457C145.577 197.651 145.831 197.764 146.1 197.774Z" fill="white"/>
<path d="M152.073 197.275C152.341 197.266 152.596 197.153 152.783 196.959C152.97 196.766 153.074 196.508 153.074 196.239C153.074 195.97 152.97 195.711 152.783 195.518C152.596 195.324 152.341 195.211 152.073 195.202C151.804 195.211 151.549 195.324 151.362 195.518C151.175 195.711 151.071 195.97 151.071 196.239C151.071 196.508 151.175 196.766 151.362 196.959C151.549 197.153 151.804 197.266 152.073 197.275Z" fill="white"/>
<path d="M158.045 193.543C158.314 193.534 158.569 193.42 158.756 193.227C158.942 193.034 159.047 192.775 159.047 192.506C159.047 192.237 158.942 191.979 158.756 191.785C158.569 191.592 158.314 191.479 158.045 191.469C157.776 191.479 157.522 191.592 157.335 191.785C157.148 191.979 157.043 192.237 157.043 192.506C157.043 192.775 157.148 193.034 157.335 193.227C157.522 193.42 157.776 193.534 158.045 193.543Z" fill="white"/>
<path d="M164.018 187.321C164.287 187.312 164.541 187.199 164.728 187.005C164.915 186.812 165.019 186.553 165.019 186.284C165.019 186.016 164.915 185.757 164.728 185.564C164.541 185.37 164.287 185.257 164.018 185.248C163.749 185.257 163.494 185.37 163.307 185.564C163.121 185.757 163.016 186.016 163.016 186.284C163.016 186.553 163.121 186.812 163.307 187.005C163.494 187.199 163.749 187.312 164.018 187.321Z" fill="white"/>
<path d="M168.746 180.602C169.015 180.593 169.269 180.479 169.456 180.286C169.643 180.093 169.747 179.834 169.747 179.565C169.747 179.296 169.643 179.038 169.456 178.844C169.269 178.651 169.015 178.538 168.746 178.528C168.477 178.538 168.222 178.651 168.035 178.844C167.849 179.038 167.744 179.296 167.744 179.565C167.744 179.834 167.849 180.093 168.035 180.286C168.222 180.479 168.477 180.593 168.746 180.602Z" fill="white"/>
<path d="M171.981 174.132C172.25 174.123 172.505 174.009 172.691 173.816C172.878 173.622 172.983 173.364 172.983 173.095C172.983 172.826 172.878 172.568 172.691 172.374C172.505 172.181 172.25 172.067 171.981 172.058C171.712 172.067 171.458 172.181 171.271 172.374C171.084 172.568 170.979 172.826 170.979 173.095C170.979 173.364 171.084 173.622 171.271 173.816C171.458 174.009 171.712 174.123 171.981 174.132Z" fill="white"/>
<path d="M174.719 167.911C174.987 167.901 175.242 167.788 175.429 167.595C175.616 167.401 175.72 167.143 175.72 166.874C175.72 166.605 175.616 166.346 175.429 166.153C175.242 165.96 174.987 165.846 174.719 165.837C174.45 165.846 174.195 165.96 174.008 166.153C173.821 166.346 173.717 166.605 173.717 166.874C173.717 167.143 173.821 167.401 174.008 167.595C174.195 167.788 174.45 167.901 174.719 167.911Z" fill="white"/>
<path d="M176.958 161.191C177.227 161.182 177.482 161.069 177.669 160.875C177.856 160.682 177.96 160.424 177.96 160.155C177.96 159.886 177.856 159.627 177.669 159.434C177.482 159.24 177.227 159.127 176.958 159.118C176.689 159.127 176.435 159.24 176.248 159.434C176.061 159.627 175.957 159.886 175.957 160.155C175.957 160.424 176.061 160.682 176.248 160.875C176.435 161.069 176.689 161.182 176.958 161.191Z" fill="white"/>
<path d="M184.64 141.283C184.909 141.274 185.164 141.161 185.351 140.967C185.537 140.774 185.642 140.515 185.642 140.246C185.642 139.977 185.537 139.719 185.351 139.526C185.164 139.332 184.909 139.219 184.64 139.209C184.372 139.219 184.117 139.332 183.93 139.526C183.743 139.719 183.639 139.977 183.639 140.246C183.639 140.515 183.743 140.774 183.93 140.967C184.117 141.161 184.372 141.274 184.64 141.283Z" fill="white"/>
<path d="M185.17 134.813C185.439 134.804 185.694 134.69 185.88 134.497C186.067 134.304 186.172 134.045 186.172 133.776C186.172 133.507 186.067 133.249 185.88 133.055C185.694 132.862 185.439 132.749 185.17 132.739C184.901 132.749 184.647 132.862 184.46 133.055C184.273 133.249 184.168 133.507 184.168 133.776C184.168 134.045 184.273 134.304 184.46 134.497C184.647 134.69 184.901 134.804 185.17 134.813Z" fill="white"/>
<path d="M184.922 128.343C185.19 128.334 185.445 128.22 185.632 128.027C185.819 127.833 185.923 127.575 185.923 127.306C185.923 127.037 185.819 126.779 185.632 126.585C185.445 126.392 185.19 126.278 184.922 126.269C184.653 126.278 184.398 126.392 184.211 126.585C184.024 126.779 183.92 127.037 183.92 127.306C183.92 127.575 184.024 127.833 184.211 128.027C184.398 128.22 184.653 128.334 184.922 128.343Z" fill="white"/>
<path d="M184.424 121.624C184.692 121.614 184.947 121.501 185.134 121.308C185.321 121.114 185.425 120.856 185.425 120.587C185.425 120.318 185.321 120.059 185.134 119.866C184.947 119.672 184.692 119.559 184.424 119.55C184.155 119.559 183.9 119.672 183.713 119.866C183.526 120.059 183.422 120.318 183.422 120.587C183.422 120.856 183.526 121.114 183.713 121.308C183.9 121.501 184.155 121.614 184.424 121.624Z" fill="white"/>
<path d="M183.179 113.163C183.448 113.153 183.703 113.04 183.89 112.847C184.077 112.653 184.181 112.395 184.181 112.126C184.181 111.857 184.077 111.598 183.89 111.405C183.703 111.211 183.448 111.098 183.179 111.089C182.911 111.098 182.656 111.211 182.469 111.405C182.282 111.598 182.178 111.857 182.178 112.126C182.178 112.395 182.282 112.653 182.469 112.847C182.656 113.04 182.911 113.153 183.179 113.163Z" fill="white"/>
<path d="M182.433 105.199C182.702 105.19 182.956 105.077 183.143 104.883C183.33 104.69 183.435 104.431 183.435 104.162C183.435 103.893 183.33 103.635 183.143 103.442C182.956 103.248 182.702 103.135 182.433 103.125C182.164 103.135 181.909 103.248 181.722 103.442C181.536 103.635 181.431 103.893 181.431 104.162C181.431 104.431 181.536 104.69 181.722 104.883C181.909 105.077 182.164 105.19 182.433 105.199Z" fill="white"/>
<path d="M180.442 97.7335C180.711 97.7242 180.965 97.6108 181.152 97.4174C181.339 97.224 181.444 96.9655 181.444 96.6966C181.444 96.4276 181.339 96.1692 181.152 95.9757C180.965 95.7823 180.711 95.669 180.442 95.6597C180.173 95.669 179.919 95.7823 179.732 95.9757C179.545 96.1692 179.44 96.4276 179.44 96.6966C179.44 96.9655 179.545 97.224 179.732 97.4174C179.919 97.6108 180.173 97.7242 180.442 97.7335Z" fill="white"/>
<path d="M158.7 139.864C158.969 139.855 159.223 139.742 159.41 139.548C159.597 139.355 159.702 139.096 159.702 138.827C159.702 138.558 159.597 138.3 159.41 138.107C159.223 137.913 158.969 137.8 158.7 137.791C158.431 137.8 158.176 137.913 157.99 138.107C157.803 138.3 157.698 138.558 157.698 138.827C157.698 139.096 157.803 139.355 157.99 139.548C158.176 139.742 158.431 139.855 158.7 139.864Z" fill="white"/>
<path d="M161.247 134.961C161.516 134.952 161.77 134.838 161.957 134.645C162.144 134.452 162.248 134.193 162.248 133.924C162.248 133.655 162.144 133.397 161.957 133.203C161.77 133.01 161.516 132.897 161.247 132.887C160.978 132.897 160.723 133.01 160.536 133.203C160.35 133.397 160.245 133.655 160.245 133.924C160.245 134.193 160.35 134.452 160.536 134.645C160.723 134.838 160.978 134.952 161.247 134.961Z" fill="white"/>
<path d="M166.655 132.403C166.924 132.394 167.179 132.28 167.366 132.087C167.553 131.893 167.657 131.635 167.657 131.366C167.657 131.097 167.553 130.839 167.366 130.645C167.179 130.452 166.924 130.338 166.655 130.329C166.387 130.338 166.132 130.452 165.945 130.645C165.758 130.839 165.654 131.097 165.654 131.366C165.654 131.635 165.758 131.893 165.945 132.087C166.132 132.28 166.387 132.394 166.655 132.403Z" fill="white"/>
<path d="M170.333 128.339C170.601 128.33 170.856 128.216 171.043 128.023C171.23 127.829 171.334 127.571 171.334 127.302C171.334 127.033 171.23 126.775 171.043 126.581C170.856 126.388 170.601 126.274 170.333 126.265C170.064 126.274 169.809 126.388 169.622 126.581C169.435 126.775 169.331 127.033 169.331 127.302C169.331 127.571 169.435 127.829 169.622 128.023C169.809 128.216 170.064 128.33 170.333 128.339Z" fill="white"/>
<path d="M174.191 125.506C174.46 125.497 174.715 125.384 174.902 125.19C175.088 124.997 175.193 124.738 175.193 124.47C175.193 124.201 175.088 123.942 174.902 123.749C174.715 123.555 174.46 123.442 174.191 123.433C173.922 123.442 173.668 123.555 173.481 123.749C173.294 123.942 173.189 124.201 173.189 124.47C173.189 124.738 173.294 124.997 173.481 125.19C173.668 125.384 173.922 125.497 174.191 125.506Z" fill="white"/>
<path d="M191.392 120.628C191.661 120.619 191.915 120.505 192.102 120.312C192.289 120.119 192.394 119.86 192.394 119.591C192.394 119.322 192.289 119.064 192.102 118.87C191.915 118.677 191.661 118.563 191.392 118.554C191.123 118.563 190.868 118.677 190.681 118.87C190.495 119.064 190.39 119.322 190.39 119.591C190.39 119.86 190.495 120.119 190.681 120.312C190.868 120.505 191.123 120.619 191.392 120.628Z" fill="white"/>
<path d="M346.125 334.319C348.703 333.307 351.231 332.234 353.706 331.069C354.936 330.472 356.163 329.874 357.352 329.212C358.548 328.565 359.725 327.886 360.846 327.129C363.126 325.704 365.176 323.939 366.925 321.895C368.675 319.818 369.702 317.228 369.851 314.516C370.071 315.91 369.992 317.335 369.62 318.696C369.235 320.073 368.616 321.374 367.789 322.541C366.106 324.827 364.007 326.776 361.603 328.285C359.249 329.797 356.745 331.061 354.13 332.056C351.544 333.074 348.862 333.832 346.125 334.319Z" fill="white"/>
<path d="M362.708 338.047C365.437 336.267 368.072 334.383 370.612 332.396C373.15 330.425 375.541 328.273 377.769 325.957C379.997 323.678 381.894 321.095 383.401 318.286C384.917 315.45 385.679 312.273 385.616 309.058C386.226 312.338 385.792 315.727 384.376 318.748C382.988 321.768 381.092 324.528 378.772 326.907C376.487 329.276 373.967 331.405 371.25 333.261C368.569 335.137 365.707 336.74 362.708 338.047Z" fill="white"/>
<path d="M338.012 132.073C336.167 130.008 334.283 128.011 332.33 126.095C331.343 125.148 330.356 124.206 329.322 123.321C328.3 122.425 327.254 121.557 326.155 120.769C324.026 119.126 321.659 117.817 319.135 116.888C316.579 115.968 313.794 115.905 311.199 116.707C312.429 116.017 313.793 115.596 315.198 115.472C316.624 115.354 318.059 115.483 319.44 115.853C322.169 116.636 324.725 117.927 326.975 119.657C329.211 121.339 331.267 123.248 333.109 125.354C334.962 127.425 336.605 129.676 338.012 132.073Z" fill="white"/>
<path d="M334.154 109.508C331.536 107.568 328.854 105.752 326.108 104.061C323.378 102.366 320.529 100.871 317.583 99.5875C314.672 98.2897 311.591 97.4092 308.433 96.9721C305.247 96.5363 302.003 96.9251 299.01 98.1015C301.874 96.3902 305.203 95.6193 308.527 95.8973C311.842 96.1495 315.088 96.9679 318.126 98.3168C321.141 99.636 324.013 101.259 326.697 103.162C329.388 105.024 331.886 107.15 334.154 109.508Z" fill="white"/>
<path d="M144.925 51.4897C143.173 53.6344 141.495 55.808 139.908 58.0358C139.127 59.1588 138.351 60.2802 137.638 61.44C136.912 62.59 136.219 63.7585 135.612 64.9673C134.322 67.3269 133.399 69.8697 132.875 72.5077C132.366 75.1757 132.739 77.9368 133.937 80.3744C133.063 79.2666 132.434 77.9858 132.092 76.6169C131.753 75.2275 131.656 73.79 131.806 72.3676C132.153 69.5502 133.028 66.8236 134.386 64.3306C135.697 61.8592 137.262 59.5307 139.054 57.3824C140.811 55.2282 142.778 53.2542 144.925 51.4897Z" fill="white"/>
<path d="M123.24 58.8257C121.733 61.7149 120.358 64.6476 119.117 67.6239C117.869 70.5851 116.838 73.6326 116.03 76.7426C115.203 79.8215 114.815 83.0016 114.877 86.1891C114.944 89.4039 115.835 92.5477 117.464 95.3199C115.327 92.7583 114.045 89.5913 113.8 86.2639C113.532 82.9509 113.833 79.6164 114.69 76.4051C115.522 73.2215 116.677 70.1312 118.137 67.1821C119.556 64.2338 121.265 61.4344 123.24 58.8257Z" fill="white"/>
<path d="M260.099 246.536C255.604 248.651 251.09 250.724 246.576 252.795L239.807 255.907L233.026 258.984L232.693 257.595L233.072 257.57C233.255 257.558 233.435 257.615 233.577 257.731C233.719 257.847 233.811 258.012 233.835 258.194L233.838 258.214L237.18 283.861L240.359 309.527L239.353 308.482L259.433 311.583C266.124 312.626 272.807 313.729 279.488 314.837L319.553 321.642L319.459 321.635C322.711 321.57 325.954 321.277 329.164 320.756C332.38 320.264 335.546 319.481 338.621 318.416C341.696 317.402 344.577 315.872 347.14 313.893C349.684 311.935 351.526 309.207 352.39 306.115L352.376 306.251C352.12 300.753 351.907 295.255 351.617 289.759L350.766 273.271L349.892 256.784L349.053 240.296L350.573 241.275L333.146 248.502L315.722 255.663L315.709 255.669C315.565 255.727 315.412 255.762 315.256 255.77L294.741 256.837L274.222 257.843L253.7 258.761L233.174 259.613L233.116 259.615C232.797 259.627 232.486 259.519 232.244 259.311C232.002 259.103 231.848 258.811 231.812 258.494L229.658 238.849C228.947 232.306 228.212 225.767 227.547 219.22L225.505 199.584L223.546 179.941L223.545 179.93C223.538 179.855 223.558 179.781 223.601 179.721C224.408 178.585 225.418 177.608 226.579 176.838C227.74 176.096 229.009 175.537 230.341 175.181C230.376 175.171 230.413 175.175 230.445 175.193C230.476 175.21 230.5 175.239 230.511 175.273C230.522 175.308 230.518 175.345 230.502 175.377C230.485 175.409 230.457 175.434 230.423 175.445C229.145 175.85 227.938 176.449 226.844 177.222C225.776 178.008 224.855 178.978 224.125 180.085L224.18 179.866L226.843 199.421L229.424 218.983C230.3 225.502 231.106 232.029 231.935 238.553L234.412 258.104L233.05 256.986L253.565 255.902L274.083 254.892L294.605 253.959L315.13 253.087L314.664 253.194L332.204 246.177L349.742 239.226L349.76 239.219C350.031 239.111 350.333 239.116 350.6 239.231C350.868 239.347 351.078 239.564 351.185 239.835C351.232 239.953 351.258 240.079 351.262 240.206L351.763 256.708L352.23 273.211L352.721 289.714C352.878 295.215 353.112 300.713 353.303 306.213L353.303 306.22C353.305 306.264 353.3 306.307 353.289 306.349C352.352 309.619 350.381 312.497 347.673 314.555C346.357 315.579 344.952 316.484 343.476 317.26C341.998 318.014 340.474 318.674 338.913 319.236C335.791 320.325 332.584 321.152 329.324 321.71C326.068 322.286 322.776 322.643 319.471 322.779C319.448 322.78 319.424 322.779 319.401 322.776L319.377 322.772L279.145 317.038C272.443 316.056 265.743 315.069 259.052 314.022L238.983 310.853L238.974 310.852C238.716 310.811 238.479 310.686 238.299 310.498C238.119 310.309 238.005 310.067 237.976 309.808L235.1 284.106L232.386 258.385L233.152 259.029L232.772 259.045L232.749 259.046C232.58 259.053 232.413 259.001 232.279 258.897C232.144 258.794 232.05 258.647 232.013 258.481C231.976 258.316 231.998 258.142 232.076 257.992C232.154 257.841 232.282 257.722 232.438 257.656C234.731 256.692 237.012 255.716 239.311 254.775L246.199 251.933C250.789 250.035 255.38 248.138 259.989 246.283C260.022 246.27 260.059 246.27 260.093 246.283C260.126 246.297 260.153 246.323 260.167 246.356C260.182 246.389 260.183 246.426 260.17 246.46C260.157 246.494 260.132 246.521 260.099 246.536L260.099 246.536Z" fill="white"/>
<path d="M352.841 306.233C351.316 312.093 346.262 315.805 340.534 318.155C341.246 319.207 342.18 320.09 343.269 320.743C344.359 321.395 345.579 321.801 346.842 321.932C348.106 322.063 349.383 321.915 350.583 321.5C351.784 321.084 352.878 320.411 353.791 319.527C354.703 318.643 355.411 317.57 355.864 316.383C356.318 315.197 356.506 313.925 356.415 312.658C356.325 311.391 355.958 310.16 355.34 309.049C354.723 307.939 353.869 306.978 352.841 306.233Z" fill="white"/>
<path d="M251.234 327.72C256.04 327.72 259.936 323.824 259.936 319.018C259.936 314.212 256.04 310.315 251.234 310.315C246.427 310.315 242.531 314.212 242.531 319.018C242.531 323.824 246.427 327.72 251.234 327.72Z" fill="white"/>
<path d="M223.786 179.833L239.632 180.786L255.708 181.803C261.098 182.17 266.503 182.524 271.922 182.936C277.337 183.338 282.758 183.748 288.169 184.21L287.846 184.241L296.829 181.791L305.834 179.416L323.842 174.664L323.851 174.661C323.953 174.634 324.061 174.649 324.152 174.702C324.243 174.755 324.309 174.842 324.336 174.943C324.341 174.961 324.344 174.979 324.346 174.997L325.486 184.406C325.87 187.542 326.276 190.675 326.705 193.806L327.963 203.2L329.29 212.585C329.305 212.695 329.283 212.807 329.227 212.902C329.171 212.998 329.084 213.072 328.981 213.112L328.968 213.117L310.351 220.303L291.695 227.383C291.6 227.419 291.499 227.439 291.397 227.442L291.379 227.442L275.913 227.827C270.758 227.964 265.603 228.079 260.447 228.171L244.979 228.422L229.51 228.588L229.491 228.588C229.261 228.589 229.04 228.506 228.868 228.353C228.697 228.201 228.588 227.99 228.563 227.762L227.278 215.641C226.843 211.603 226.48 207.584 226.083 203.579L223.786 179.833ZM223.935 179.977L227.269 203.979C227.81 207.932 228.386 211.871 228.89 215.791L230.42 227.544L229.474 226.719L244.939 226.295L260.405 225.957C265.56 225.854 270.717 225.773 275.873 225.713L291.342 225.508L291.025 225.568L309.804 218.822L328.622 212.181L328.301 212.713L327.205 203.298L326.04 193.891C325.66 190.755 325.259 187.621 324.837 184.49L323.554 175.099L324.058 175.432L306.212 180.761L297.288 183.425L288.344 186.015C288.244 186.044 288.139 186.056 288.034 186.048L288.02 186.047C282.725 185.639 277.441 185.178 272.151 184.709C266.863 184.251 261.563 183.734 256.247 183.231L223.935 179.977Z" fill="white"/>
<path d="M268.007 314.292L266.964 314.14L266.625 311.946L264.42 285.408L262.318 258.518L262.069 255.345L263.154 255.276C263.313 256.34 263.466 257.412 263.611 258.476C263.929 260.758 264.212 263.039 264.489 265.327C264.917 268.638 265.222 271.956 265.588 275.274L266.48 285.242L267.192 295.217C267.365 298.549 267.599 301.881 267.703 305.213C267.8 307.529 267.883 309.844 267.938 312.16C267.973 313.494 267.993 312.958 268.007 314.292Z" fill="white"/>
<path d="M297.359 318.762L296.232 318.596L295.907 316.778L293.329 288.574L290.626 257.412L290.508 254.843L291.441 254.795C291.635 256.005 291.621 256.154 291.801 257.364C292.271 260.537 292.693 263.716 293.094 266.896C293.571 270.47 293.923 274.058 294.338 277.638L295.389 288.395L296.253 299.165C296.474 302.766 296.757 306.354 296.916 309.955C297.041 312.306 297.151 314.649 297.241 316.999C297.283 318.167 297.324 317.594 297.359 318.762Z" fill="white"/>
<path d="M315.242 253.36L315.608 256.202L318.725 283.873L323.067 320.704L323.26 322.322C323.264 322.347 323.276 322.369 323.295 322.386C323.314 322.402 323.339 322.411 323.364 322.411C323.391 322.411 323.417 322.4 323.436 322.38C323.456 322.361 323.467 322.335 323.468 322.308V322.294C323.468 321.755 323.461 321.216 323.454 320.676C323.392 314.731 323.053 308.821 322.61 302.911C322.403 299.69 322.071 296.482 321.795 293.261C321.484 290.053 321.117 286.846 320.779 283.638L319.583 274.037C319.113 270.843 318.712 267.643 318.179 264.456C317.73 261.559 317.246 258.656 316.728 255.767C316.506 254.557 316.334 254.231 316.092 253.021L315.242 253.36Z" fill="white"/>
<path d="M341.994 318.575C341.662 318.727 341.33 318.879 340.991 319.018L340.763 316.992L336.816 282.208L333.166 248.827L332.968 246.625L333.957 246.245C334.137 247.275 334.155 247.299 334.321 248.329C334.86 251.64 335.367 254.951 335.841 258.262C336.45 262.209 336.92 266.164 337.459 270.111L338.869 281.98L340.1 293.869C340.445 297.837 340.853 301.805 341.13 305.78C341.406 309.354 341.669 312.934 341.876 316.515C341.918 317.2 341.959 317.891 341.994 318.575Z" fill="white"/>
<path d="M310.354 319.239C310.354 320.269 310.361 319.959 310.354 320.989C309.974 320.933 309.594 320.885 309.214 320.83L309.041 319.011L307.479 288.74L305.972 256.728L305.792 254.453C306.124 254.439 306.463 254.425 306.794 254.404C306.939 255.635 307.071 255.435 307.188 256.665C307.506 259.735 307.783 262.797 308.039 265.866C308.391 269.654 308.612 273.456 308.896 277.251L309.552 288.643L310.016 300.042C310.112 303.844 310.264 307.646 310.285 311.455C310.327 314.047 310.354 316.646 310.354 319.239Z" fill="white"/>
<path d="M252.102 309.575C252.108 310.978 252.108 312.388 252.095 313.799L251.072 313.647L250.781 309.361L249.122 284.807L247.525 258.995L247.359 256.251C247.705 256.23 248.058 256.209 248.403 256.188C248.535 257.115 248.659 258.034 248.777 258.96C249.074 261.332 249.343 263.71 249.599 266.087C249.965 269.177 250.201 272.281 250.498 275.371L251.196 284.669C251.362 287.772 251.556 290.876 251.701 293.98C251.804 297.084 251.97 300.188 252.005 303.298C252.053 305.386 252.085 307.478 252.102 309.575Z" fill="white"/>
<path d="M284.37 318.596L283.264 318.437L282.801 314.6L279.51 287.351L276.116 258.013L275.975 255.691L276.963 255.636C277.184 256.783 277.139 256.811 277.347 257.965C277.838 260.765 278.294 263.571 278.736 266.378C279.303 269.82 279.745 273.276 280.25 276.733L281.57 287.109L282.704 297.505C283.015 300.982 283.388 304.446 283.637 307.93C283.824 310.225 283.997 312.52 284.142 314.822C284.225 316.08 284.301 317.338 284.37 318.596Z" fill="white"/>
<path d="M270.994 232.822C270.663 232.399 270.401 231.928 270.217 231.424C270.039 230.952 269.909 230.462 269.828 229.964C269.745 229.466 269.712 228.96 269.731 228.456C269.746 227.919 269.845 227.389 270.026 226.884C270.358 227.305 270.62 227.777 270.804 228.281C270.982 228.753 271.112 229.243 271.192 229.741C271.273 230.24 271.305 230.745 271.286 231.25C271.272 231.786 271.173 232.316 270.994 232.822Z" fill="white"/>
<path d="M271.542 314.726C272.069 316.193 272.982 317.49 274.185 318.483C275.387 319.476 276.834 320.126 278.375 320.367C279.915 320.607 281.492 320.429 282.939 319.85C284.387 319.271 285.652 318.314 286.602 317.078L271.542 314.726Z" fill="white"/>
<path d="M203.915 165.982C203.604 165.881 203.341 165.67 203.173 165.39C203.005 165.11 202.945 164.778 203.003 164.456C203.061 164.135 203.233 163.845 203.488 163.641C203.743 163.436 204.063 163.331 204.39 163.344L204.464 163.348C205.705 163.414 206.949 163.46 208.179 163.585L210.03 163.746L210.955 163.826C211.264 163.857 211.635 163.911 211.971 163.967C214.773 164.44 217.403 165.632 219.604 167.429C221.819 169.232 223.535 171.573 224.587 174.229C225.105 175.544 225.451 176.919 225.619 178.322L225.817 180.246L226.017 182.085L226.797 189.444L228.324 204.165C228.847 209.071 229.306 213.984 229.788 218.895C230.265 223.807 230.753 228.717 231.187 233.634C232.091 243.463 232.952 253.298 233.684 263.15C232.057 253.416 230.558 243.665 229.103 233.908C228.357 229.032 227.666 224.149 226.963 219.267C226.266 214.385 225.544 209.505 224.888 204.618L222.876 189.96L221.887 182.629L221.644 180.795C221.585 180.209 221.491 179.627 221.362 179.052C221.109 178.024 220.754 177.024 220.3 176.067C219.393 174.163 218.101 172.468 216.506 171.088C214.911 169.708 213.048 168.673 211.034 168.048L207.552 167.079C206.355 166.768 205.173 166.376 203.986 166.005L203.915 165.982Z" fill="white"/>
<path d="M175.592 126.114C176.294 127.38 176.978 128.654 177.66 129.929C178.341 131.205 179.035 132.474 179.696 133.76L181.7 137.606C182.363 138.891 183.048 140.164 183.693 141.458L183.541 141.274C185.53 142.767 187.62 144.122 189.795 145.328C190.886 145.923 191.987 146.499 193.117 147.013C194.236 147.549 195.375 148.042 196.533 148.492C198.844 149.41 201.211 150.177 203.62 150.791C206.04 151.394 208.501 151.822 210.982 152.07L210.958 152.069C212.803 152.117 214.649 152.136 216.495 152.16L216.453 152.164C217.284 152.078 218.122 152.238 218.862 152.625C219.584 152.971 220.269 153.39 220.905 153.876C222.184 154.827 223.323 155.954 224.286 157.224C224.797 157.864 225.188 158.592 225.438 159.373C225.5 159.592 225.523 159.822 225.504 160.05C225.468 160.279 225.386 160.498 225.264 160.695C225.067 161.052 224.854 161.385 224.635 161.718C224.413 162.051 224.191 162.375 223.93 162.7C223.85 162.805 223.756 162.898 223.651 162.977C223.528 163.054 223.471 163.079 223.376 163.133L222.861 163.419C222.516 163.609 222.169 163.798 221.811 163.979C221.631 164.069 221.451 164.157 221.26 164.24C221.041 164.346 220.806 164.416 220.564 164.448L220.905 164.227C220.737 164.605 220.48 164.936 220.157 165.194C219.819 165.446 219.421 165.605 219.002 165.656C218.609 165.698 218.212 165.676 217.826 165.592C217.447 165.514 217.079 165.392 216.729 165.228L217.395 164.959C217.309 165.233 217.187 165.496 217.032 165.739C216.864 166.001 216.643 166.226 216.385 166.4C216.119 166.576 215.817 166.691 215.5 166.735C215.184 166.78 214.862 166.763 214.553 166.682C214.446 166.656 214.353 166.591 214.291 166.5L214.255 166.448C213.883 165.863 213.431 165.333 212.911 164.873C212.386 164.412 211.804 164.021 211.179 163.71C210.547 163.394 209.887 163.141 209.206 162.956C208.533 162.766 207.844 162.642 207.148 162.584L207.13 162.583L207.089 162.578C202.5 161.872 198.001 160.961 193.489 160.019C188.986 159.056 184.501 158.024 180.039 156.824C177.744 156.281 175.542 155.404 173.501 154.221C171.465 153.021 169.652 151.477 168.142 149.659C167.393 148.755 166.721 147.791 166.131 146.776C165.562 145.764 165.045 144.724 164.581 143.66L161.729 137.376C161.721 137.359 161.721 137.341 161.727 137.324C161.733 137.307 161.745 137.293 161.761 137.285C161.777 137.277 161.796 137.276 161.813 137.281C161.83 137.287 161.844 137.299 161.853 137.314L165.117 143.394C165.666 144.412 166.159 145.44 166.783 146.377C167.393 147.325 168.08 148.22 168.837 149.055C170.351 150.713 172.121 152.118 174.08 153.216C175.054 153.763 176.074 154.223 177.127 154.592C178.195 154.957 179.282 155.265 180.382 155.515C184.825 156.618 189.317 157.591 193.8 158.58C198.283 159.547 202.782 160.561 207.274 161.315L207.215 161.309C208.006 161.382 208.788 161.535 209.549 161.765C210.303 161.993 211.032 162.295 211.726 162.667C212.428 163.042 213.078 163.505 213.661 164.047C214.246 164.593 214.751 165.22 215.161 165.908L214.863 165.674C215.027 165.715 215.197 165.727 215.366 165.709C215.535 165.693 215.699 165.64 215.845 165.552C215.996 165.459 216.126 165.336 216.226 165.19C216.34 165.026 216.432 164.848 216.5 164.66L216.511 164.633C216.557 164.517 216.648 164.424 216.763 164.375C216.877 164.326 217.007 164.325 217.123 164.371L217.167 164.391C217.44 164.531 217.728 164.639 218.025 164.713C218.314 164.79 218.613 164.821 218.911 164.804C219.184 164.783 219.446 164.692 219.673 164.54C219.899 164.371 220.082 164.152 220.207 163.899L220.235 163.853C220.268 163.799 220.314 163.755 220.369 163.724C220.423 163.694 220.485 163.678 220.548 163.678C220.695 163.651 220.838 163.608 220.975 163.549C221.147 163.482 221.322 163.404 221.496 163.325C221.845 163.164 222.193 162.991 222.542 162.815L223.066 162.549L223.308 162.424C223.295 162.438 223.394 162.341 223.442 162.285C223.683 162.006 223.918 161.692 224.142 161.379C224.366 161.065 224.588 160.743 224.781 160.42C224.874 160.288 224.939 160.139 224.974 159.982C224.993 159.819 224.98 159.653 224.937 159.494C224.711 158.776 224.358 158.104 223.895 157.51C222.975 156.264 221.883 155.154 220.652 154.213C220.044 153.741 219.383 153.341 218.684 153.019C218.023 152.677 217.277 152.536 216.537 152.613L216.495 152.617C214.649 152.643 212.804 152.664 210.958 152.713L210.948 152.713L210.933 152.712C208.403 152.575 205.886 152.252 203.403 151.746C198.41 150.739 193.617 148.919 189.215 146.356C187.016 145.087 184.906 143.668 182.902 142.109L182.898 142.105C182.836 142.056 182.785 141.995 182.75 141.924C182.113 140.627 181.516 139.309 180.897 138.003L179.056 134.076C178.435 132.771 177.848 131.449 177.247 130.134C176.646 128.818 176.048 127.501 175.469 126.175C175.461 126.159 175.461 126.141 175.467 126.124C175.473 126.107 175.485 126.094 175.501 126.086C175.517 126.078 175.536 126.076 175.553 126.082C175.57 126.087 175.584 126.099 175.592 126.114H175.592Z" fill="white"/>
<path d="M212.344 159.625C213.443 160.116 214.444 160.801 215.301 161.646C215.736 162.071 216.123 162.543 216.453 163.054C216.821 163.562 216.996 164.184 216.948 164.81C216.739 164.273 216.423 163.785 216.019 163.374C215.633 162.954 215.232 162.543 214.818 162.14C213.992 161.327 213.137 160.538 212.344 159.625Z" fill="white"/>
<path d="M215.748 158.462C216.942 158.979 218.023 159.724 218.931 160.656C219.394 161.127 219.79 161.661 220.105 162.242C220.284 162.529 220.401 162.851 220.447 163.186C220.493 163.521 220.467 163.862 220.373 164.186C220.295 163.573 220.042 162.996 219.645 162.524C219.271 162.037 218.867 161.574 218.435 161.138C217.568 160.247 216.639 159.407 215.748 158.462Z" fill="white"/>
<path d="M223.462 162.713C222.797 161.764 222.266 160.786 221.7 159.835C221.427 159.354 221.133 158.893 220.831 158.438C220.54 157.969 220.167 157.556 219.729 157.218C220.319 157.331 220.853 157.639 221.245 158.092C221.65 158.512 222.003 158.98 222.296 159.485C222.887 160.477 223.282 161.573 223.462 162.713Z" fill="white"/>
<path d="M208.839 162.217L211.54 163.232L206.502 165.087L203.991 164.634L208.839 162.217Z" fill="white"/>
<path d="M221.403 154.541L223.674 153.351L224.778 156.059L223.665 156.817L221.403 154.541Z" fill="white"/>
<path d="M292.725 223.619C292.652 220.7 292.453 217.791 292.314 214.877C292.137 211.967 291.908 209.06 291.707 206.152L290.911 197.441C290.579 194.543 290.313 191.64 289.915 188.747C289.748 187.419 289.573 186.091 289.39 184.764L288.095 185.128L287.975 184.888L289.642 206.319L291.329 226.478L292.802 225.943C292.779 225.168 292.753 224.393 292.725 223.619Z" fill="white"/>
<path d="M304.963 219.348C304.89 216.429 304.691 213.521 304.552 210.607C304.375 207.696 304.146 204.79 303.945 201.881L303.149 193.171C302.816 190.273 302.551 187.369 302.153 184.477C301.986 183.148 301.811 181.821 301.628 180.494L300.333 180.858L300.213 180.617L301.879 202.048L303.567 222.208L305.04 221.672C305.016 220.898 304.991 220.123 304.963 219.348Z" fill="white"/>
<path d="M276.679 223.619C276.606 220.7 276.408 217.791 276.268 214.877C276.091 211.967 275.862 209.06 275.661 206.152L274.865 197.441C274.533 194.543 274.267 191.64 273.869 188.747C273.702 187.419 273.527 186.091 273.344 184.764L272.049 185.128L271.929 184.888L273.596 206.319L275.283 226.478L276.756 225.943C276.733 225.168 276.707 224.393 276.679 223.619Z" fill="white"/>
<path d="M259.101 225.223C259.028 222.021 258.829 218.831 258.69 215.635C258.513 212.442 258.284 209.255 258.083 206.064L257.287 196.51C256.955 193.332 256.689 190.147 256.291 186.974C256.124 185.517 255.949 184.061 255.766 182.605L254.471 183.005L254.351 182.741L256.018 206.247L257.705 228.359L259.178 227.772C259.155 226.922 259.129 226.072 259.101 225.223Z" fill="white"/>
<path d="M242.288 224.153C242.216 220.896 242.017 217.651 241.878 214.4C241.701 211.153 241.471 207.911 241.271 204.665L240.475 194.948C240.142 191.714 239.876 188.475 239.478 185.248C239.311 183.766 239.137 182.285 238.953 180.804L237.658 181.211L237.539 180.942L239.205 204.851L240.893 227.343L242.365 226.746C242.342 225.881 242.317 225.017 242.288 224.153Z" fill="white"/>
<path d="M319.071 215.296C318.998 212.377 318.8 209.468 318.66 206.555C318.483 203.644 318.254 200.738 318.054 197.829L317.257 189.119C316.925 186.221 316.659 183.317 316.261 180.424C316.094 179.096 315.919 178.642 315.736 177.314L314.441 177.679L314.321 177.438L315.988 197.996L317.675 217.15L319.148 216.615C319.148 216.615 319.099 216.071 319.071 215.296Z" fill="white"/>
<path d="M293.869 239.486C291.566 239.671 289.264 239.88 286.961 240.149L286.95 240.15C286.924 240.153 286.9 240.166 286.883 240.186C286.866 240.207 286.857 240.233 286.859 240.259C286.86 240.285 286.872 240.31 286.891 240.328C286.91 240.346 286.935 240.356 286.961 240.356L293.332 240.374C293.5 240.083 293.68 239.786 293.869 239.486Z" fill="white"/>
<path d="M350.155 239.106C347.827 238.967 345.5 238.852 343.172 238.76C340.049 238.6 336.926 238.574 333.803 238.475L324.435 238.388C321.312 238.422 318.189 238.427 315.067 238.486C312.921 238.551 310.776 238.591 308.63 238.661C307.674 239.394 306.615 239.982 305.488 240.407L324.435 240.46L351.359 240.386C351.359 240.06 351.235 239.746 351.011 239.508C350.787 239.27 350.481 239.126 350.155 239.106Z" fill="white"/>
<path d="M320.682 298.897L320.405 298.925L317.219 272.429L315.242 254.408L316.831 253.765C317.232 255.479 317.599 257.196 317.93 258.915C318.401 261.099 318.698 263.304 319.078 265.502C319.403 267.701 319.672 269.906 319.963 272.111C320.17 274.33 320.419 276.542 320.599 278.754C320.723 280.98 320.931 283.199 320.972 285.431C321.186 289.921 321.089 294.421 320.682 298.897Z" fill="white"/>
</svg>
