<svg width="500" height="381" viewBox="0 0 500 381" fill="none" xmlns="http://www.w3.org/2000/svg">
<path d="M212.962 144.272C212.967 144.771 212.834 145.262 212.578 145.69C212.322 146.118 211.952 146.467 211.51 146.699C210.231 147.296 208.819 147.553 207.411 147.445C207.411 147.445 200.118 140.063 199.835 145.047C199.835 145.047 194.076 140.83 194.56 145.814C194.56 145.814 190.613 143.975 190.572 146.443L186.307 145.911L189.666 142.067H204.84C204.805 143.132 207.307 142.365 209.167 141.653C209.744 141.432 210.377 141.408 210.969 141.586C211.561 141.763 212.077 142.132 212.437 142.634C212.777 143.113 212.961 143.685 212.962 144.272Z" fill="white"/>
<path d="M306.317 220.146L303.289 222.393C303.276 222.4 303.269 222.413 303.255 222.42L300.974 224.114L294.02 229.285L256.394 227.411V280.48L301.209 279.712L313.693 271.272L306.317 220.146ZM300.462 275.855C300.276 275.399 300.179 274.922 300.034 274.452C299.75 273.519 299.529 272.565 299.308 271.611C299.087 270.664 298.9 269.703 298.72 268.742C298.527 267.788 298.347 266.827 298.188 265.866C297.511 262.023 297.006 258.152 296.487 254.281C296.024 250.41 295.582 246.532 295.216 242.654C294.856 238.769 294.524 234.884 294.303 230.985L295.043 236.792L295.748 242.598C296.225 246.462 296.653 250.334 297.172 254.198C297.635 258.069 298.149 261.931 298.713 265.783C298.838 266.744 298.99 267.705 299.149 268.666C299.301 269.627 299.453 270.588 299.64 271.542C299.806 272.502 299.978 273.463 300.213 274.403C300.415 275.356 300.676 276.296 300.995 277.217L300.462 275.855ZM301.057 241.313C300.891 239.142 300.794 236.964 300.794 234.794C300.78 232.616 300.822 230.446 300.995 228.275L301.319 234.78C301.451 236.937 301.561 239.1 301.741 241.257C301.907 243.414 302.107 245.571 302.377 247.714C302.432 248.253 302.515 248.785 302.598 249.317C302.681 249.85 302.75 250.389 302.861 250.914C302.965 251.446 303.041 251.986 303.158 252.511C303.283 253.043 303.4 253.569 303.511 254.101C302.761 252.054 302.206 249.941 301.852 247.79C301.458 245.647 301.236 243.476 301.057 241.313ZM308.847 267.795C308.133 266.853 307.475 265.87 306.877 264.85C305.844 263.09 304.91 261.274 304.078 259.41C304.07 259.437 304.065 259.465 304.064 259.493L303.974 260.557C303.925 261.276 303.891 262.002 303.863 262.721C303.801 264.166 303.78 265.617 303.753 267.069C303.67 269.972 303.628 272.876 303.511 275.779C303.31 272.876 303.234 269.972 303.179 267.062C303.172 265.611 303.184 264.157 303.214 262.7C303.227 261.974 303.255 261.249 303.289 260.516C303.31 260.15 303.338 259.783 303.386 259.41C303.407 259.23 303.435 259.043 303.469 258.85C303.49 258.753 303.511 258.656 303.538 258.553C303.559 258.497 303.573 258.449 303.608 258.373C303.626 258.33 303.652 258.29 303.684 258.255C303.702 258.226 303.725 258.201 303.753 258.179C303.799 258.14 303.853 258.111 303.912 258.096C303.985 258.073 304.065 258.077 304.135 258.109C304.206 258.141 304.262 258.198 304.292 258.269L304.299 258.29C304.748 259.361 305.232 260.426 305.737 261.477C306.248 262.527 306.767 263.578 307.306 264.608C307.859 265.638 308.446 266.64 309.089 267.615C309.689 268.616 310.503 269.471 311.474 270.118C310.933 269.879 310.443 269.538 310.029 269.115C309.606 268.702 309.212 268.261 308.847 267.795Z" fill="white"/>
<path d="M247.955 304.521C247.874 305.431 247.624 306.319 247.217 307.137C246.791 307.961 246.22 308.703 245.533 309.325C244.105 310.494 242.642 311.489 241.174 312.546C239.696 313.573 238.212 314.593 236.687 315.552C235.196 316.57 233.614 317.447 231.961 318.175C232.743 317.733 233.491 317.235 234.201 316.685L236.389 315.112C237.84 314.052 239.31 313.019 240.777 311.98L245.19 308.922C246.575 307.802 247.548 306.254 247.955 304.521Z" fill="white"/>
<path d="M263.131 301.774C262.707 302.605 262.349 303.468 262.06 304.355C261.769 305.228 261.54 306.12 261.377 307.025C261.21 307.931 261.104 308.847 261.06 309.766C261.004 310.691 261.022 311.62 261.028 312.572C260.893 312.119 260.777 311.657 260.682 311.189C260.598 310.719 260.544 310.244 260.52 309.767C260.465 308.808 260.525 307.845 260.697 306.9C260.871 305.954 261.161 305.033 261.56 304.157C261.944 303.279 262.475 302.473 263.131 301.774Z" fill="white"/>
<path d="M221.664 323.465C221.664 323.465 223.228 334.217 251.795 320.243L253.932 326.192L256.775 326.232L259.762 325.159C259.762 325.159 260.328 316.677 261.291 313.317C261.325 313.197 261.326 313.071 261.294 312.952C261.262 312.832 261.198 312.724 261.11 312.637C261.021 312.551 260.911 312.49 260.79 312.461C260.67 312.432 260.544 312.436 260.426 312.473C254.126 314.416 230.789 321.42 232.323 318.023C232.323 318.023 220.727 321.703 221.664 323.465Z" fill="white"/>
<path d="M292.625 304.782C292.401 305.601 291.961 306.344 291.35 306.933C290.699 307.478 290.064 307.97 289.398 308.458C288.079 309.437 286.744 310.394 285.392 311.328C284.04 312.261 282.681 313.186 281.281 314.05C279.916 314.973 278.467 315.767 276.954 316.421C277.669 316.022 278.354 315.57 279.004 315.071L281.002 313.636C282.323 312.663 283.663 311.718 285.003 310.771C286.342 309.824 287.69 308.888 289.047 307.964C289.707 307.485 290.446 307.077 291.097 306.621C291.729 306.121 292.25 305.494 292.625 304.782Z" fill="white"/>
<path d="M306.18 305.251C306.172 306.276 306.047 307.235 305.987 308.196C305.882 309.157 305.9 310.127 306.04 311.083C305.7 310.684 305.474 310.201 305.385 309.685C305.284 309.178 305.255 308.66 305.298 308.145C305.336 307.638 305.429 307.136 305.574 306.648C305.71 306.156 305.913 305.686 306.18 305.251Z" fill="white"/>
<path d="M266.657 321.711C266.657 321.711 268.221 332.463 296.788 318.489L298.925 324.438L301.768 324.478L304.755 323.405C304.755 323.405 305.32 314.923 306.284 311.563C306.317 311.444 306.318 311.318 306.286 311.198C306.255 311.078 306.191 310.97 306.102 310.883C306.014 310.797 305.903 310.736 305.783 310.707C305.663 310.678 305.537 310.682 305.419 310.719C299.119 312.663 275.782 319.666 277.316 316.269C277.316 316.269 265.72 319.949 266.657 321.711Z" fill="white"/>
<path d="M309.759 273.974L310.703 277.59L311.565 281.228L312.36 284.884C312.6 286.108 312.848 287.332 313.067 288.561C313.499 291.022 313.839 293.5 314.088 295.997C314.207 297.246 314.302 298.499 314.334 299.763C314.353 300.395 314.361 301.028 314.34 301.667C314.333 302.33 314.278 302.992 314.178 303.648C314.164 303.733 314.133 303.814 314.086 303.885C314.04 303.957 313.978 304.019 313.907 304.065L313.88 304.083C312.367 305 310.683 305.599 308.931 305.843C307.255 306.112 305.564 306.266 303.867 306.304C300.518 306.374 297.167 306.258 293.831 305.955C290.506 305.677 287.197 305.306 283.898 304.907L274.03 303.644C272.398 303.453 270.733 303.203 269.141 303.15C268.738 303.132 268.338 303.092 267.933 303.09L266.713 303.102L265.493 303.108L264.268 303.179C260.983 303.383 257.712 303.773 254.471 304.346C251.216 304.903 247.975 305.57 244.75 306.318C241.527 307.064 238.313 307.891 235.146 308.837L235.136 308.84C235.044 308.867 234.944 308.857 234.859 308.811C234.774 308.765 234.711 308.687 234.683 308.595C234.673 308.561 234.668 308.526 234.668 308.491L234.627 288.623C234.605 285.311 234.674 282.001 234.68 278.689C234.688 275.378 234.694 272.065 234.749 268.754C234.854 255.507 235.206 242.264 235.804 229.027C236.386 215.792 237.088 202.561 238.061 189.348C238.558 182.743 239.065 176.138 239.693 169.542C239.995 166.244 240.314 162.943 240.677 159.642L241.25 154.703L241.559 152.232L241.727 150.993C241.791 150.565 241.836 150.198 241.935 149.702C241.97 149.523 242.07 149.363 242.215 149.251C242.36 149.14 242.54 149.085 242.722 149.097L242.728 149.097C248.387 149.465 254.064 149.753 259.736 149.926C262.573 150.006 265.41 150.088 268.246 150.073C269.663 150.064 271.081 150.038 272.494 149.957C273.2 149.917 273.907 149.873 274.606 149.785C275.302 149.728 275.988 149.578 276.645 149.34L276.652 149.337C276.677 149.326 276.705 149.326 276.73 149.335C276.755 149.345 276.776 149.364 276.787 149.389C276.798 149.414 276.799 149.442 276.79 149.467C276.781 149.492 276.762 149.513 276.738 149.525C276.073 149.812 275.372 150.007 274.654 150.106C273.948 150.233 273.239 150.321 272.529 150.394C271.109 150.538 269.686 150.629 268.263 150.701C265.417 150.835 262.57 150.906 259.723 150.915C254.029 150.927 248.343 150.823 242.648 150.638L243.442 150.034C243.334 150.743 243.234 151.624 243.145 152.423L242.886 154.884L242.414 159.82C242.118 163.107 241.866 166.402 241.629 169.702L240.251 189.503C239.373 202.706 238.484 215.91 237.751 229.123C237.031 242.337 236.339 255.554 235.832 268.78C235.692 272.087 235.601 275.394 235.508 278.702C235.405 282.01 235.352 285.319 235.329 288.628C235.313 291.936 235.23 295.246 235.27 298.554L235.404 308.48L234.926 308.135C241.272 306.119 247.715 304.425 254.232 303.057C257.508 302.373 260.821 301.875 264.154 301.565L265.411 301.454L266.678 301.407L267.947 301.368C268.371 301.364 268.799 301.397 269.225 301.41C270.952 301.443 272.579 301.665 274.244 301.831C280.857 302.591 287.409 303.575 293.985 304.18C297.27 304.463 300.561 304.709 303.831 304.663C305.453 304.654 307.073 304.535 308.679 304.307C310.229 304.136 311.73 303.66 313.095 302.907L312.798 303.341C312.897 302.768 312.959 302.189 312.983 301.608C313.021 301.005 313.031 300.392 313.032 299.781C313.037 298.556 312.98 297.323 312.9 296.092C312.735 293.628 312.456 291.166 312.119 288.709C311.958 287.479 311.768 286.253 311.586 285.024L310.965 281.35C310.52 278.905 310.04 276.464 309.557 274.022C309.554 274.009 309.554 273.995 309.557 273.982C309.559 273.968 309.564 273.956 309.571 273.944C309.579 273.933 309.588 273.923 309.6 273.915C309.611 273.907 309.623 273.902 309.637 273.899C309.663 273.894 309.69 273.899 309.713 273.913C309.735 273.927 309.752 273.949 309.759 273.974Z" fill="white"/>
<path d="M258.915 65.4429C258.915 65.4429 257.668 74.1709 250.378 76.8564C250.378 76.8564 247.556 74.4681 246.94 77.9272C246.689 79.2853 246.937 80.6883 247.64 81.8776C248.321 83.0051 249.458 83.9731 251.146 82.7071C251.146 82.7071 260.161 88.5577 258.915 93.8329C257.668 99.1081 247.597 102.753 246.062 101.026C244.528 99.2999 242.034 87.119 242.897 81.0766C243.76 75.0341 244.336 67.2652 255.941 65.4429H258.915Z" fill="white"/>
<path d="M265.629 75.7056C265.906 75.8345 266.146 76.0327 266.325 76.2812C266.545 76.555 266.652 76.902 266.626 77.2522C266.587 77.4761 266.461 77.6758 266.277 77.8086C266.117 77.909 265.934 77.9655 265.746 77.9723C265.433 77.977 265.125 77.8891 264.861 77.7197C265.154 77.5986 265.42 77.5329 265.641 77.4433C265.727 77.4065 265.807 77.3552 265.875 77.2915C265.913 77.254 265.937 77.2049 265.943 77.1522C265.948 76.939 265.915 76.7266 265.846 76.525C265.775 76.2746 265.689 76.0114 265.629 75.7056Z" fill="white"/>
<path d="M256.613 73.8833C256.771 73.5143 257.032 73.1984 257.364 72.9727C257.692 72.7358 258.065 72.5691 258.46 72.4831C258.854 72.3997 259.26 72.3952 259.655 72.4698C260.046 72.5371 260.416 72.6925 260.737 72.9242C260.338 72.9708 259.978 72.9719 259.626 73.0084C259.283 73.0356 258.942 73.0857 258.606 73.1584C258.271 73.2282 257.942 73.3237 257.622 73.444C257.278 73.5728 256.941 73.7194 256.613 73.8833Z" fill="white"/>
<path d="M264.861 72.7275C264.989 72.4671 265.198 72.2546 265.455 72.1213C265.699 71.9854 265.965 71.8938 266.241 71.8507C266.792 71.7542 267.359 71.8631 267.835 72.1568C267.588 72.2645 267.331 72.3451 267.068 72.3973C266.823 72.4603 266.582 72.487 266.347 72.5333L264.861 72.7275Z" fill="white"/>
<path d="M259.203 76.4126C259.436 76.4045 259.656 76.3063 259.819 76.1385C259.981 75.9708 260.071 75.7467 260.071 75.5134C260.071 75.2802 259.981 75.0561 259.819 74.8883C259.656 74.7206 259.436 74.6223 259.203 74.6143C258.969 74.6223 258.749 74.7206 258.587 74.8883C258.425 75.0561 258.334 75.2802 258.334 75.5134C258.334 75.7467 258.425 75.9708 258.587 76.1385C258.749 76.3063 258.969 76.4045 259.203 76.4126Z" fill="white"/>
<path d="M249.497 82.1699C249.73 82.1619 249.951 82.0636 250.113 81.8959C250.275 81.7281 250.366 81.504 250.366 81.2708C250.366 81.0375 250.275 80.8134 250.113 80.6456C249.951 80.4779 249.73 80.3796 249.497 80.3716C249.264 80.3796 249.043 80.4779 248.881 80.6456C248.719 80.8134 248.628 81.0375 248.628 81.2708C248.628 81.504 248.719 81.7281 248.881 81.8959C249.043 82.0636 249.264 82.1619 249.497 82.1699Z" fill="white"/>
<path d="M262.608 72.3755C262.841 72.3675 263.062 72.2692 263.224 72.1015C263.386 71.9337 263.477 71.7096 263.477 71.4763C263.477 71.2431 263.386 71.019 263.224 70.8512C263.062 70.6835 262.841 70.5852 262.608 70.5771C262.375 70.5852 262.154 70.6835 261.992 70.8512C261.83 71.019 261.739 71.2431 261.739 71.4763C261.739 71.7096 261.83 71.9337 261.992 72.1015C262.154 72.2692 262.375 72.3675 262.608 72.3755Z" fill="#B21919"/>
<path d="M266.875 75.6455C267.108 75.6374 267.329 75.5392 267.491 75.3714C267.653 75.2037 267.744 74.9796 267.744 74.7463C267.744 74.5131 267.653 74.289 267.491 74.1213C267.329 73.9535 267.108 73.8552 266.875 73.8472C266.642 73.8552 266.421 73.9535 266.259 74.1213C266.097 74.289 266.007 74.5131 266.007 74.7463C266.007 74.9796 266.097 75.2037 266.259 75.3714C266.421 75.5392 266.642 75.6374 266.875 75.6455Z" fill="white"/>
<path d="M253.877 99.3801C255.106 100.989 256.476 102.484 257.971 103.848C258.691 104.502 259.514 105.033 260.407 105.419C260.622 105.494 260.841 105.558 261.062 105.611C261.277 105.642 261.494 105.659 261.711 105.664C262.13 105.636 262.536 105.498 262.884 105.262C263.622 104.709 264.188 103.96 264.519 103.099C264.911 102.201 265.219 101.267 265.44 100.312C265.878 98.3629 266.157 96.3818 266.275 94.3877L266.875 95.0088C266.652 95.0014 266.433 94.9491 266.231 94.8551C266.029 94.7612 265.848 94.6274 265.698 94.4618C265.462 94.199 265.272 93.8976 265.137 93.5706C264.908 92.9973 264.748 92.3986 264.661 91.7872C264.488 90.6233 264.414 89.4467 264.441 88.2702L264.441 88.2531C264.442 88.1628 264.474 88.0755 264.53 88.005C264.587 87.9344 264.665 87.8848 264.753 87.8638C265.475 87.6947 266.139 87.3383 266.679 86.8305C267.227 86.2968 267.662 85.6585 267.959 84.9534C268.543 83.4817 268.845 81.9133 268.849 80.33C268.916 78.7441 268.67 77.1605 268.125 75.6698C267.861 74.9355 267.502 74.193 267.242 73.4192C266.972 72.6492 266.74 71.8763 266.538 71.0789L266.916 71.3483C266.006 71.4406 265.087 71.3001 264.246 70.9399C263.428 70.597 262.663 70.1391 261.975 69.5802C261.286 69.0443 260.647 68.4486 260.064 67.8002C259.472 67.1585 258.922 66.479 258.419 65.7659C258.358 65.6792 258.322 65.5775 258.315 65.4719C258.308 65.3663 258.33 65.2607 258.378 65.1666C258.427 65.0725 258.5 64.9934 258.59 64.9379C258.68 64.8825 258.784 64.8527 258.89 64.8518L258.901 64.8517C260.132 64.8468 261.357 65.0239 262.537 65.3773C263.726 65.722 264.851 66.2613 265.864 66.9733C266.374 67.3379 266.851 67.746 267.291 68.1929C267.714 68.6579 268.093 69.1613 268.422 69.6967C268.759 70.2256 269.04 70.7877 269.262 71.374C269.468 71.9592 269.645 72.5547 269.79 73.1581L269.728 72.978C270.259 74.015 270.885 75.0007 271.598 75.9227C271.926 76.355 272.31 76.7426 272.739 77.0758C273.255 77.4414 273.75 77.8348 274.224 78.2542C276.143 79.892 277.749 81.8645 278.963 84.0757C279.597 85.2264 279.925 86.5201 279.917 87.8337C279.896 88.5047 279.74 89.1647 279.46 89.7748C279.32 90.0749 279.15 90.3602 278.953 90.6265C278.855 90.7579 278.761 90.8933 278.658 91.0194L278.319 91.3679C277.4 92.2369 276.315 92.9113 275.129 93.3507C273.984 93.8003 272.8 94.1447 271.592 94.3796C271.583 94.3816 271.574 94.3818 271.565 94.3802C271.556 94.3786 271.547 94.3752 271.54 94.3703C271.532 94.3655 271.526 94.3591 271.52 94.3516C271.515 94.3442 271.512 94.3358 271.51 94.3269C271.506 94.3098 271.51 94.2921 271.518 94.2772C271.527 94.2622 271.541 94.251 271.558 94.2457C273.847 93.4998 276.2 92.5631 277.772 90.8535C278.544 90.0355 278.963 88.9459 278.936 87.8213C278.871 86.6877 278.534 85.5865 277.952 84.6111C276.721 82.5926 275.15 80.802 273.309 79.3182C272.864 78.9365 272.398 78.5798 271.913 78.2497C271.368 77.8488 270.878 77.3767 270.458 76.846C269.665 75.8491 268.977 74.7723 268.407 73.6332C268.387 73.5948 268.372 73.5543 268.361 73.5124L268.345 73.4528C268.122 72.3957 267.735 71.3803 267.196 70.4436C266.926 69.9822 266.615 69.5467 266.265 69.1426C265.896 68.753 265.494 68.3955 265.065 68.0737C264.184 67.4274 263.203 66.9314 262.161 66.6058C261.113 66.2746 260.026 66.0826 258.928 66.0345L259.41 65.1204C259.857 65.8041 260.347 66.4585 260.878 67.0794C261.406 67.7046 261.978 68.2902 262.592 68.8315C263.186 69.3747 263.854 69.8304 264.577 70.1847C265.276 70.5361 266.053 70.7011 266.835 70.6636L266.856 70.6621C266.938 70.6561 267.02 70.6803 267.085 70.7303C267.151 70.7802 267.196 70.8523 267.212 70.9332C267.367 71.7039 267.559 72.4835 267.784 73.2434C267.992 74.0104 268.316 74.7289 268.577 75.5146C269.094 77.069 269.329 78.7033 269.271 80.3403C269.275 81.9809 269.002 83.6104 268.465 85.1603C268.178 85.9582 267.738 86.6918 267.168 87.3192C266.567 87.9569 265.809 88.4251 264.969 88.6765L265.282 88.2702C265.324 89.3865 265.461 90.4971 265.69 91.5904C265.797 92.1094 265.961 92.6148 266.18 93.0974C266.268 93.2991 266.39 93.4846 266.54 93.6458C266.582 93.6947 266.633 93.7344 266.691 93.7623C266.748 93.7903 266.811 93.8059 266.875 93.8082L266.881 93.8083C267.04 93.8092 267.192 93.8731 267.303 93.9858C267.415 94.0986 267.477 94.251 267.476 94.4095L267.475 94.4295C267.404 96.5116 267.115 98.5806 266.611 100.602C266.362 101.632 266.008 102.634 265.555 103.592C265.107 104.628 264.373 105.516 263.438 106.15L263.049 106.369L262.618 106.509C262.328 106.591 262.03 106.635 261.729 106.64C261.438 106.624 261.148 106.587 260.862 106.528C260.59 106.451 260.324 106.359 260.063 106.251C259.101 105.782 258.229 105.145 257.489 104.37C256.068 102.877 254.819 101.23 253.764 99.4589C253.754 99.4433 253.751 99.4245 253.755 99.4066C253.759 99.3888 253.771 99.3733 253.786 99.3637C253.801 99.3549 253.818 99.3517 253.835 99.3548C253.852 99.3578 253.867 99.3668 253.877 99.3801Z" fill="white"/>
<path d="M271.597 94.7555C287.822 90.6297 274.165 78.8705 272.438 77.7444C270.712 76.6184 269.068 73.3052 269.068 73.3052C267.423 65.2462 258.915 65.4428 258.915 65.4428C258.915 65.4428 262.847 71.4853 266.875 71.0057C267.157 72.2606 267.536 73.4916 268.008 74.6878C268.678 76.2531 269.038 77.9336 269.067 79.6359C269.091 82.8593 268.446 87.3139 264.861 88.2699C264.861 88.2699 264.861 94.4083 266.875 94.4083L271.597 94.7555Z" fill="white"/>
<path d="M266.868 94.3397C268.218 94.2428 269.574 94.2664 270.92 94.4102C272.266 94.5165 273.605 94.6949 274.935 94.9111C277.599 95.3289 280.24 95.8559 282.86 96.4923C284.167 96.813 285.476 97.1279 286.776 97.4746C287.435 97.653 288.061 97.7938 288.748 98.0031C289.421 98.217 290.073 98.4899 290.698 98.8185C291.954 99.4708 293.081 100.345 294.025 101.399C294.494 101.926 294.911 102.496 295.27 103.103C295.612 103.702 295.945 104.294 296.241 104.91C297.427 107.353 298.33 109.924 298.934 112.571C299.553 115.197 299.982 117.864 300.217 120.552C300.448 123.241 300.511 125.941 300.405 128.638C300.315 131.339 300.067 134.033 299.663 136.705C299.646 136.831 299.585 136.947 299.491 137.033C299.397 137.12 299.277 137.17 299.15 137.177L299.121 137.179C295.287 137.388 291.451 137.525 287.616 137.7C283.781 137.875 279.945 138.004 276.107 138.088L276.092 138.088C275.912 138.092 275.737 138.027 275.603 137.905C275.469 137.784 275.387 137.616 275.374 137.436C275.223 135.339 275.167 133.258 275.15 131.168C275.136 129.08 275.162 126.99 275.282 124.902C275.398 122.809 275.643 120.725 276.015 118.663C276.207 117.627 276.483 116.608 276.838 115.616C277.157 114.596 277.742 113.68 278.533 112.962C278.547 112.951 278.564 112.945 278.582 112.947C278.599 112.948 278.616 112.956 278.627 112.97C278.639 112.983 278.646 113 278.645 113.017C278.645 113.035 278.638 113.052 278.625 113.064L278.621 113.069C277.941 113.831 277.464 114.751 277.232 115.745C276.968 116.737 276.777 117.747 276.659 118.767C276.413 120.814 276.292 122.875 276.298 124.938C276.234 129.065 276.465 133.214 276.792 137.318L276.059 136.666C279.895 136.501 283.731 136.375 287.569 136.287C291.407 136.206 295.244 136.087 299.083 136.041L298.54 136.514C299.468 131.277 300.152 125.93 299.746 120.589C299.478 115.246 297.997 110.034 295.416 105.348C295.099 104.769 294.741 104.21 294.387 103.663C294.029 103.134 293.626 102.637 293.182 102.178C292.295 101.262 291.264 100.497 290.13 99.9138C289.563 99.6244 288.974 99.3793 288.369 99.1806C287.777 98.9846 287.096 98.8117 286.463 98.626C285.178 98.253 283.884 97.912 282.592 97.5648C279.998 96.9091 277.407 96.2407 274.793 95.6781C272.193 95.0658 269.547 94.6642 266.882 94.4772L266.873 94.4769C266.856 94.4763 266.839 94.4691 266.827 94.4567C266.814 94.4444 266.807 94.4278 266.807 94.4104C266.806 94.393 266.812 94.376 266.824 94.3629C266.835 94.3497 266.851 94.3415 266.868 94.3397L266.868 94.3397Z" fill="white"/>
<path d="M281.646 106.156C282.19 105.275 282.895 104.506 283.725 103.888C284.552 103.249 285.482 102.755 286.474 102.425C287.463 102.086 288.504 101.921 289.55 101.937C290.067 101.938 290.584 101.983 291.094 102.072C291.596 102.176 292.092 102.307 292.58 102.465C291.579 102.391 290.573 102.394 289.572 102.476C288.592 102.557 287.625 102.759 286.695 103.079C285.76 103.387 284.865 103.807 284.03 104.33C283.175 104.855 282.376 105.467 281.646 106.156Z" fill="white"/>
<path d="M244.967 98.5786C243.675 99.6264 242.497 100.807 241.453 102.102C240.412 103.372 239.517 104.756 238.786 106.227C238.052 107.674 237.516 109.214 237.194 110.804C237.102 111.196 237.038 111.594 237.002 111.996C236.938 112.393 236.897 112.793 236.881 113.195C236.871 114.001 236.835 114.79 236.861 115.646C236.929 119.007 236.8 122.363 236.575 125.709C236.322 129.054 235.979 132.384 235.458 135.705L235.033 135.222C236.439 135.269 237.846 135.327 239.253 135.407C240.66 135.479 242.066 135.543 243.473 135.651C242.066 135.758 240.66 135.822 239.253 135.895C237.846 135.974 236.439 136.032 235.033 136.079C234.978 136.081 234.924 136.072 234.873 136.053C234.822 136.034 234.775 136.005 234.735 135.968C234.695 135.93 234.663 135.885 234.64 135.836C234.618 135.786 234.605 135.732 234.604 135.678L234.605 135.63L234.608 135.596C234.882 132.282 235.102 128.952 235.26 125.629C235.43 122.305 235.53 118.98 235.524 115.659C235.502 114.845 235.552 113.964 235.6 113.101C235.632 112.669 235.689 112.24 235.771 111.815C235.825 111.386 235.908 110.961 236.018 110.542L236.353 109.291C236.497 108.884 236.658 108.484 236.811 108.082C236.963 107.68 237.139 107.287 237.339 106.907C237.517 106.517 237.717 106.138 237.938 105.77C238.787 104.292 239.827 102.931 241.031 101.724C242.204 100.512 243.526 99.4551 244.967 98.5786Z" fill="white"/>
<path d="M246.795 114.007C246.283 115.322 245.854 116.667 245.51 118.035C245.168 119.387 244.916 120.76 244.757 122.145C244.602 123.514 244.582 124.895 244.698 126.269C244.817 127.63 245.074 128.977 245.463 130.287L245.481 130.353C245.512 130.471 245.499 130.595 245.443 130.703C243.487 134.532 242.647 138.833 243.02 143.117L242.75 142.834C244.157 142.913 245.57 142.968 246.981 143.013L251.21 143.18C254.026 143.328 256.844 143.384 259.656 143.492C262.469 143.593 265.28 143.692 268.088 143.715C269.491 143.711 270.896 143.727 272.294 143.645C273.693 143.606 275.083 143.412 276.44 143.068L276.443 143.067C276.46 143.062 276.478 143.064 276.493 143.071C276.509 143.079 276.521 143.092 276.527 143.108C276.533 143.124 276.533 143.142 276.527 143.158C276.521 143.174 276.509 143.188 276.494 143.195C275.848 143.51 275.171 143.756 274.473 143.927C273.782 144.112 273.08 144.258 272.372 144.365C270.961 144.584 269.543 144.75 268.123 144.839C265.283 145.035 262.442 145.05 259.608 144.969C256.773 144.892 253.949 144.648 251.127 144.426C249.718 144.289 248.309 144.156 246.904 143.98L242.691 143.43L242.664 143.426C242.596 143.417 242.534 143.384 242.49 143.333C242.445 143.281 242.421 143.215 242.421 143.147C242.433 142.053 242.443 140.963 242.534 139.878C242.608 138.791 242.739 137.71 242.902 136.633C243.058 135.555 243.26 134.482 243.508 133.413C243.756 132.332 244.085 131.272 244.491 130.24L244.471 130.655C243.916 129.287 243.574 127.841 243.458 126.369C243.357 124.909 243.427 123.441 243.667 121.997C243.902 120.568 244.275 119.164 244.78 117.807C245.028 117.131 245.312 116.469 245.631 115.824C245.936 115.174 246.284 114.545 246.673 113.941C246.683 113.926 246.699 113.915 246.717 113.912C246.735 113.908 246.754 113.911 246.769 113.921C246.783 113.931 246.792 113.944 246.797 113.96C246.802 113.976 246.801 113.992 246.795 114.007Z" fill="white"/>
<path d="M241.441 157.301L236.961 156.457C235.468 156.177 233.976 155.892 232.489 155.59L223.552 153.855C222.064 153.57 220.573 153.292 219.087 153.055C218.374 152.929 217.654 152.846 216.932 152.806L216.83 152.807C216.87 152.806 216.908 152.791 216.937 152.764C216.976 152.73 216.911 152.767 216.881 152.78L216.772 152.83L216.548 152.918C216.318 152.976 216.118 153.019 215.914 153.054C215.518 153.117 215.13 153.164 214.746 153.203C211.676 153.462 208.645 153.522 205.595 153.515L205.98 153.341C205.562 153.763 205.027 154.049 204.444 154.16C203.907 154.255 203.356 154.243 202.823 154.124C202.319 154.023 201.828 153.869 201.356 153.666C200.888 153.47 200.437 153.237 200.005 152.971L200.375 152.997C198.866 153.5 197.224 153.428 195.765 152.793C194.332 152.248 193.05 151.368 192.026 150.226C191.521 149.649 191.105 148.999 190.793 148.298C190.455 147.582 190.324 146.786 190.415 146C190.465 145.785 190.569 145.586 190.717 145.421C190.864 145.257 191.05 145.131 191.259 145.057C191.646 144.931 192.057 144.898 192.459 144.961C193.22 145.065 193.963 145.278 194.663 145.594L194.319 145.838C194.207 145.163 194.303 144.47 194.595 143.851C194.789 143.52 195.105 143.278 195.475 143.175C195.819 143.089 196.177 143.079 196.525 143.145C197.17 143.269 197.794 143.485 198.379 143.785C198.957 144.069 199.515 144.394 200.047 144.758L199.477 145.026C199.483 144.541 199.606 144.065 199.837 143.639C199.982 143.394 200.195 143.197 200.45 143.071C200.699 142.959 200.97 142.905 201.243 142.915C202.155 143.02 203.027 143.345 203.785 143.862C205.235 144.78 206.583 145.851 207.806 147.056L207.432 146.892C208.161 146.913 208.89 146.855 209.607 146.716C209.954 146.647 210.295 146.55 210.626 146.424C210.935 146.315 211.228 146.165 211.498 145.978C211.734 145.798 211.928 145.569 212.069 145.307C212.209 145.045 212.292 144.756 212.313 144.46C212.335 144.163 212.296 143.865 212.199 143.583C212.101 143.302 211.946 143.044 211.743 142.826C211.544 142.61 211.301 142.438 211.031 142.322C210.762 142.205 210.47 142.146 210.176 142.15C209.872 142.152 209.572 142.217 209.294 142.34C208.929 142.482 208.555 142.618 208.179 142.746C207.391 143.037 206.569 143.226 205.733 143.307C205.437 143.326 205.141 143.282 204.863 143.179C204.641 143.095 204.45 142.944 204.317 142.748C204.181 142.541 204.111 142.298 204.115 142.05C204.132 141.752 204.212 141.46 204.351 141.196C204.453 140.992 204.568 140.796 204.697 140.608L204.646 140.695L204.742 140.535L204.745 140.531L204.773 140.487C205.57 139.372 206.694 138.532 207.989 138.083C209.284 137.635 210.686 137.599 212.002 137.982C212.655 138.167 213.277 138.447 213.848 138.814C214.413 139.188 214.918 139.644 215.349 140.167C215.787 140.689 216.09 141.149 216.467 141.643L217.54 143.106L217.027 142.836C221.432 143.094 225.839 143.309 230.242 143.601L231.893 143.71L232.711 143.76C232.958 143.771 233.206 143.756 233.45 143.715C234.202 143.58 234.889 143.202 235.406 142.64C235.922 142.077 236.241 141.361 236.312 140.6C236.353 140.08 236.354 139.506 236.378 138.961L236.5 135.653C236.5 135.635 236.508 135.618 236.521 135.605C236.534 135.593 236.551 135.586 236.569 135.586C236.587 135.586 236.604 135.593 236.617 135.605C236.63 135.618 236.637 135.635 236.638 135.653L236.76 138.961C236.772 139.519 236.809 140.05 236.801 140.63C236.784 141.224 236.636 141.806 236.368 142.336C236.091 142.872 235.699 143.34 235.22 143.708C234.741 144.076 234.188 144.334 233.599 144.464C233.301 144.53 232.998 144.563 232.693 144.563L231.858 144.552L230.204 144.523C225.791 144.448 221.382 144.297 216.971 144.189C216.876 144.186 216.782 144.163 216.697 144.121C216.612 144.079 216.537 144.018 216.478 143.944L216.458 143.919C215.717 142.984 214.98 141.954 214.262 141.079C213.574 140.255 212.647 139.667 211.609 139.395C210.578 139.114 209.487 139.142 208.472 139.478C207.468 139.829 206.595 140.478 205.971 141.339L206.002 141.291L205.96 141.352L205.908 141.439C205.817 141.569 205.734 141.704 205.66 141.843C205.618 141.921 205.586 142.003 205.565 142.089C205.576 142.054 205.562 142.026 205.516 141.939C205.479 141.909 205.477 141.885 205.45 141.868C205.415 141.852 205.411 141.851 205.419 141.849C205.506 141.872 205.596 141.881 205.686 141.876C206.388 141.809 207.079 141.656 207.743 141.421C208.099 141.307 208.453 141.185 208.809 141.053C209.245 140.878 209.711 140.79 210.181 140.793C210.659 140.798 211.131 140.901 211.567 141.098C212.003 141.294 212.393 141.578 212.714 141.933C213.034 142.288 213.277 142.706 213.428 143.16C213.578 143.614 213.633 144.094 213.588 144.57C213.547 145.045 213.404 145.506 213.17 145.921C212.936 146.337 212.616 146.698 212.231 146.98C211.862 147.227 211.46 147.423 211.038 147.56C210.643 147.697 210.237 147.801 209.825 147.871C209.021 148.003 208.204 148.047 207.391 148L207.382 147.999C207.244 147.992 207.113 147.934 207.017 147.835C206.451 147.257 205.841 146.686 205.22 146.151C204.609 145.608 203.964 145.106 203.288 144.647C202.677 144.187 201.967 143.875 201.215 143.735C201.074 143.71 200.93 143.727 200.799 143.784C200.668 143.841 200.557 143.935 200.479 144.055C200.306 144.365 200.208 144.712 200.193 145.067L200.191 145.085C200.181 145.179 200.135 145.266 200.061 145.326C199.988 145.386 199.894 145.414 199.8 145.404C199.736 145.398 199.675 145.374 199.623 145.336C199.134 144.975 198.62 144.649 198.085 144.36C197.565 144.067 197.006 143.848 196.425 143.711C196.18 143.62 195.912 143.61 195.661 143.683C195.411 143.756 195.19 143.908 195.033 144.117C194.793 144.64 194.713 145.222 194.803 145.791C194.805 145.823 194.801 145.855 194.792 145.886C194.782 145.916 194.766 145.945 194.745 145.969C194.724 145.994 194.699 146.014 194.67 146.029C194.641 146.044 194.61 146.053 194.578 146.055C194.537 146.058 194.495 146.051 194.458 146.035C193.807 145.731 193.116 145.522 192.406 145.413C191.713 145.298 190.968 145.459 190.827 146.1C190.752 146.797 190.877 147.501 191.188 148.129C191.488 148.783 191.884 149.388 192.362 149.925C193.353 150.982 194.591 151.776 195.965 152.236C197.279 152.743 198.734 152.753 200.055 152.263C200.11 152.239 200.17 152.228 200.23 152.23C200.291 152.233 200.35 152.249 200.403 152.277L200.425 152.289C201.22 152.738 202.085 153.047 202.983 153.204C203.399 153.28 203.825 153.273 204.237 153.183C204.604 153.096 204.937 152.901 205.193 152.624C205.289 152.52 205.422 152.458 205.563 152.451L205.578 152.45C208.599 152.308 211.645 152.222 214.628 151.966C215.001 151.935 215.366 151.897 215.722 151.847C215.893 151.822 216.064 151.785 216.202 151.756C216.215 151.749 216.229 151.744 216.244 151.742L216.268 151.74C216.282 151.737 216.26 151.753 216.347 151.711C216.469 151.656 216.599 151.621 216.731 151.607L216.914 151.605C217.708 151.655 218.497 151.757 219.277 151.91C220.785 152.178 222.276 152.483 223.765 152.797C226.746 153.408 229.695 154.15 232.65 154.86C234.128 155.213 235.6 155.591 237.069 155.981C238.539 156.366 240.009 156.751 241.472 157.167C241.489 157.171 241.504 157.183 241.513 157.199C241.522 157.215 241.525 157.234 241.52 157.252C241.515 157.268 241.504 157.283 241.49 157.292C241.475 157.301 241.458 157.304 241.441 157.301Z" fill="white"/>
<path d="M188.899 134.5C189.904 135.128 190.836 135.864 191.68 136.696C192.545 137.506 193.317 138.41 193.982 139.391C192.977 138.764 192.044 138.027 191.201 137.194C190.337 136.383 189.565 135.479 188.899 134.5Z" fill="white"/>
<path d="M198.778 131.324C199.02 132.134 199.137 132.977 199.123 133.823C199.138 134.669 199.022 135.512 198.778 136.322C198.534 135.512 198.417 134.669 198.432 133.823C198.419 132.977 198.535 132.134 198.778 131.324Z" fill="white"/>
<path d="M203.861 136.945C204.167 136.152 204.592 135.409 205.122 134.744C205.63 134.061 206.24 133.461 206.931 132.965C206.626 133.759 206.201 134.502 205.669 135.166C205.161 135.848 204.551 136.448 203.861 136.945Z" fill="white"/>
<path d="M194.816 145.588C195.629 146.579 196.474 147.557 197.355 148.495C197.795 148.964 198.245 149.425 198.722 149.856C199.162 150.325 199.707 150.682 200.312 150.901C199.682 150.735 199.099 150.422 198.611 149.989C198.092 149.597 197.598 149.175 197.114 148.743C196.143 147.878 195.213 146.977 194.299 146.047C194.235 145.981 194.199 145.893 194.2 145.801C194.201 145.709 194.238 145.622 194.303 145.557C194.369 145.493 194.457 145.457 194.549 145.458C194.641 145.459 194.728 145.496 194.793 145.562C194.8 145.569 194.807 145.576 194.813 145.584L194.816 145.588Z" fill="white"/>
<path d="M200.111 144.845C200.843 145.923 201.632 146.96 202.475 147.954C202.896 148.451 203.344 148.926 203.815 149.376C204.274 149.843 204.808 150.228 205.396 150.517C204.779 150.278 204.206 149.937 203.703 149.508C203.186 149.095 202.692 148.655 202.223 148.19C201.282 147.26 200.391 146.28 199.554 145.254C199.496 145.183 199.468 145.092 199.477 145.001C199.486 144.91 199.531 144.826 199.602 144.767C199.673 144.709 199.764 144.682 199.856 144.691C199.947 144.7 200.031 144.745 200.089 144.816C200.096 144.823 200.102 144.831 200.107 144.839L200.111 144.845Z" fill="white"/>
<path d="M244.303 143.276C244.547 144.358 244.663 145.464 244.649 146.573C244.665 147.681 244.549 148.788 244.303 149.869C244.058 148.788 243.942 147.681 243.958 146.573C243.944 145.464 244.06 144.358 244.303 143.276Z" fill="white"/>
<path d="M277.308 137.332C277.624 140.416 277.661 143.522 277.421 146.612C277.281 148.163 277.059 149.706 276.756 151.234C276.431 152.771 275.979 154.278 275.404 155.74C275.169 156.462 274.892 157.141 274.695 157.88C274.502 158.618 274.279 159.343 274.112 160.091L273.604 162.332L273.155 164.591C272.568 167.607 272.085 170.648 271.588 173.686C270.62 179.767 269.631 185.852 268.741 191.954L268.087 196.532C267.857 198.052 267.742 199.591 267.571 201.123L267.344 203.424L267.234 204.575C267.184 204.946 267.164 205.321 267.175 205.696C267.214 206.434 267.452 207.147 267.863 207.76L269.173 209.663L269.182 209.678L269.189 209.69C269.738 210.774 270.526 211.72 271.493 212.456C271.959 212.8 272.514 213.003 273.091 213.043C273.662 213.015 274.211 212.821 274.673 212.485C274.713 212.459 274.759 212.443 274.806 212.438C274.853 212.433 274.901 212.438 274.946 212.455C275.799 212.791 276.701 212.985 277.616 213.031C278.033 213.054 278.449 212.967 278.822 212.778C278.981 212.682 279.116 212.552 279.219 212.397C279.321 212.242 279.388 212.067 279.415 211.883C279.433 211.796 279.481 211.718 279.551 211.662C279.621 211.607 279.708 211.579 279.797 211.582L279.804 211.583C280.525 211.623 281.246 211.523 281.929 211.288C282.227 211.192 282.49 211.011 282.687 210.767C282.843 210.533 282.913 210.251 282.882 209.971C282.878 209.879 282.901 209.787 282.949 209.708C282.996 209.629 283.067 209.565 283.15 209.526C283.597 209.313 284.027 209.068 284.438 208.793C284.847 208.524 285.228 208.216 285.576 207.873C285.911 207.559 286.183 207.185 286.38 206.771C286.553 206.399 286.608 205.984 286.537 205.58L287.111 206.011L282.032 206.499C281.877 206.514 281.722 206.467 281.601 206.367C281.48 206.268 281.404 206.125 281.389 205.969L281.387 205.914V205.89C281.392 204.326 281.279 202.765 281.05 201.219C280.939 200.462 280.765 199.717 280.531 198.989C280.347 198.317 280.011 197.697 279.548 197.176C279.444 197.075 279.376 196.943 279.354 196.8C279.332 196.656 279.357 196.51 279.427 196.382L279.435 196.367C281.942 191.784 284.19 187.018 286.307 182.224C288.409 177.418 290.334 172.534 292 167.563C293.691 162.602 295.006 157.52 295.934 152.361C296.398 149.783 296.693 147.177 296.816 144.56C296.956 141.938 296.863 139.309 296.54 136.704C296.538 136.695 296.539 136.686 296.541 136.677C296.543 136.668 296.547 136.66 296.553 136.653C296.558 136.645 296.565 136.639 296.573 136.635C296.581 136.63 296.589 136.627 296.598 136.626C296.616 136.623 296.634 136.628 296.648 136.638C296.662 136.648 296.673 136.664 296.676 136.681C297.581 141.91 297.624 147.252 296.802 152.495C296.454 155.122 295.965 157.729 295.338 160.303C294.728 162.88 294.028 165.433 293.238 167.962C291.657 173.014 289.794 177.973 287.66 182.816C285.538 187.666 283.2 192.399 280.596 197.029L280.483 196.221C281.094 196.895 281.536 197.705 281.772 198.584C282.019 199.382 282.199 200.2 282.31 201.028C282.536 202.649 282.625 204.286 282.577 205.922L281.931 205.313L287.02 204.938L287.038 204.936C287.167 204.927 287.296 204.967 287.398 205.046C287.501 205.126 287.57 205.241 287.593 205.369C287.697 205.997 287.602 206.641 287.323 207.213C287.063 207.736 286.704 208.203 286.265 208.589C285.86 208.963 285.418 209.297 284.947 209.584C284.484 209.872 284 210.126 283.499 210.343L283.767 209.897C283.803 210.396 283.657 210.89 283.356 211.289C283.055 211.647 282.657 211.91 282.21 212.047C281.811 212.181 281.398 212.266 280.978 212.302C280.569 212.339 280.158 212.343 279.748 212.314L280.137 212.014C280.084 212.3 279.969 212.57 279.8 212.807C279.631 213.043 279.412 213.24 279.159 213.382C278.675 213.618 278.136 213.721 277.598 213.68C276.609 213.606 275.639 213.368 274.727 212.977L274.999 212.947C274.449 213.358 273.777 213.573 273.09 213.558C272.403 213.542 271.741 213.297 271.21 212.861C270.684 212.48 270.216 212.024 269.822 211.507C269.426 211.002 269.078 210.461 268.782 209.891L268.798 209.918L267.505 207.996C267.064 207.314 266.805 206.531 266.753 205.721C266.738 205.325 266.755 204.928 266.804 204.535L266.906 203.382L267.105 201.077C267.329 198 267.664 194.923 267.996 191.859C268.674 185.724 269.38 179.589 270.367 173.489C270.844 170.437 271.417 167.399 272.037 164.367L272.521 162.095L273.067 159.831C273.247 159.077 273.487 158.329 273.695 157.578C273.899 156.828 274.235 156.085 274.504 155.35C275.105 153.96 275.589 152.522 275.953 151.052C276.301 149.564 276.57 148.059 276.759 146.543C277.138 143.492 277.276 140.417 277.17 137.344C277.17 137.335 277.171 137.326 277.174 137.317C277.177 137.309 277.181 137.301 277.187 137.294C277.193 137.287 277.2 137.282 277.209 137.278C277.217 137.274 277.226 137.271 277.235 137.271C277.252 137.27 277.27 137.276 277.283 137.287C277.297 137.299 277.306 137.315 277.308 137.332Z" fill="white"/>
<path d="M297.796 209.462L297.778 209.414V209.414C296.974 206.268 296.304 203.099 295.681 199.922C295.05 196.747 294.498 193.558 293.962 190.366C293.451 187.171 292.957 183.973 292.542 180.762C292.119 177.552 291.744 174.335 291.505 171.097C292.312 174.245 292.984 177.413 293.607 180.59C294.238 183.765 294.79 186.953 295.326 190.144C295.835 193.338 296.329 196.536 296.744 199.746C297.168 202.955 297.544 206.173 297.786 209.413V209.414C297.79 209.429 297.794 209.446 297.796 209.462Z" fill="white"/>
<path d="M272.87 209.719C273.409 210.105 273.875 210.584 274.246 211.134C274.43 211.399 274.599 211.673 274.753 211.956C274.914 212.238 275.032 212.54 275.185 212.848C274.858 212.731 274.563 212.538 274.325 212.285C274.088 212.055 273.872 211.803 273.682 211.533C273.287 210.992 273.01 210.374 272.87 209.719Z" fill="white"/>
<path d="M276.898 209.431C277.478 209.734 278.006 210.125 278.464 210.591C278.686 210.815 278.905 211.041 279.111 211.275C279.307 211.523 279.53 211.749 279.776 211.949C279.421 211.994 279.063 211.903 278.772 211.695C278.485 211.525 278.22 211.32 277.982 211.087C277.496 210.628 277.124 210.061 276.898 209.431Z" fill="white"/>
<path d="M280.567 208.28C281.107 208.415 281.616 208.652 282.067 208.978C282.283 209.134 282.495 209.289 282.693 209.463C282.878 209.652 283.091 209.811 283.324 209.934C283.259 209.982 283.185 210.015 283.106 210.033C283.027 210.05 282.946 210.051 282.867 210.036C282.718 210.019 282.572 209.985 282.431 209.934C281.621 209.641 280.954 209.049 280.567 208.28L280.567 208.28Z" fill="white"/>
<path d="M268.985 209.791C266.252 209.791 266.827 220.94 266.827 220.94L262.388 223.888C262.388 223.888 262.511 206.266 266.827 206.626L268.985 209.791Z" fill="white"/>
<path d="M290.347 219.766C288.672 219.842 286.997 219.861 285.323 219.9C283.649 219.924 281.975 219.927 280.301 219.925C278.628 219.911 276.955 219.908 275.282 219.872C273.609 219.84 271.937 219.812 270.264 219.756L270.601 219.668C268.293 221.06 265.968 222.423 263.626 223.758C262.46 224.434 261.271 225.071 260.084 225.711C258.89 226.338 257.707 226.986 256.499 227.59L256.405 227.204C259.545 227.251 262.685 227.32 265.824 227.411L275.238 227.718L284.65 228.081C287.786 228.224 290.92 228.406 294.052 228.626L293.626 228.755L298.32 225.425C299.89 224.323 301.478 223.244 303.057 222.154L303.107 222.124L303.142 222.097L303.093 222.127C304.132 221.418 305.183 220.727 306.228 220.026L306.314 220.296L304.969 220.181C304.951 220.18 304.934 220.172 304.921 220.159C304.909 220.145 304.902 220.127 304.903 220.109C304.904 220.092 304.911 220.076 304.924 220.063C304.936 220.051 304.952 220.044 304.969 220.042L306.321 219.996C306.352 219.995 306.382 220.004 306.407 220.021C306.433 220.038 306.452 220.062 306.463 220.091C306.474 220.119 306.476 220.151 306.468 220.18C306.46 220.21 306.443 220.236 306.42 220.256L306.406 220.266C305.433 221.063 304.466 221.869 303.486 222.658L303.437 222.688L303.403 222.717L303.453 222.687C301.952 223.882 300.461 225.091 298.954 226.278L294.413 229.814C294.3 229.902 294.159 229.948 294.015 229.944L293.987 229.943C290.848 229.849 287.712 229.718 284.577 229.551L275.176 228.978L265.777 228.349C262.645 228.126 259.514 227.882 256.384 227.618C256.341 227.615 256.3 227.598 256.267 227.57C256.233 227.542 256.21 227.505 256.199 227.463C256.188 227.421 256.19 227.376 256.205 227.336C256.22 227.295 256.248 227.26 256.284 227.236L256.289 227.232C258.528 225.726 260.806 224.286 263.085 222.849C265.361 221.407 267.653 219.993 269.962 218.606C270.064 218.545 270.181 218.515 270.299 218.517C271.972 218.555 273.643 218.62 275.315 218.682C276.987 218.739 278.658 218.829 280.33 218.908C282.001 219 283.672 219.097 285.342 219.214C287.012 219.346 288.682 219.458 290.351 219.628C290.369 219.629 290.385 219.638 290.396 219.651C290.408 219.664 290.414 219.681 290.414 219.699C290.413 219.716 290.406 219.733 290.394 219.745C290.381 219.758 290.365 219.765 290.347 219.766Z" fill="white"/>
<path d="M298.39 211.501C299.26 210.492 300.186 209.533 301.164 208.629C302.142 207.676 303.257 206.875 304.472 206.251C305.085 205.932 305.726 205.671 306.388 205.472C307.091 205.232 307.833 205.131 308.574 205.173C309.001 205.202 309.415 205.326 309.787 205.536C310.16 205.746 310.48 206.037 310.725 206.387C310.941 206.716 311.115 207.07 311.243 207.442C311.298 207.613 311.356 207.789 311.4 207.952C311.466 208.168 311.5 208.391 311.504 208.617C311.455 209.362 311.277 210.094 310.977 210.779C310.728 211.413 310.448 212.034 310.136 212.64C309.51 213.833 308.852 214.994 308.123 216.111C307.41 217.236 306.646 218.326 305.854 219.394C305.08 220.479 304.211 221.493 303.257 222.423C304.015 221.342 304.63 220.166 305.286 219.023C305.938 217.877 306.569 216.721 307.192 215.565C307.8 214.401 308.424 213.249 308.959 212.067C309.23 211.479 309.497 210.891 309.714 210.299C309.937 209.768 310.075 209.204 310.122 208.63C310.126 208.524 310.111 208.419 310.076 208.319C310.037 208.162 309.992 208.024 309.949 207.88C309.866 207.625 309.754 207.38 309.613 207.152C309.48 206.957 309.305 206.795 309.101 206.677C308.897 206.559 308.669 206.488 308.434 206.471C307.853 206.415 307.267 206.472 306.707 206.637C306.403 206.709 306.103 206.799 305.809 206.905C305.506 206.993 305.208 207.115 304.91 207.233C303.727 207.734 302.611 208.379 301.587 209.155C300.508 209.904 299.463 210.715 298.39 211.501Z" fill="white"/>
<path d="M282.726 228.278C283.479 226.982 284.321 225.74 285.245 224.56C286.153 223.377 287.107 222.234 288.106 221.131C289.102 220.025 290.154 218.968 291.244 217.95C292.332 216.918 293.494 215.967 294.719 215.103C293.885 216.343 292.988 217.54 292.031 218.689C291.092 219.839 290.125 220.962 289.13 222.059C288.136 223.157 287.109 224.228 286.051 225.271C284.997 226.331 283.887 227.335 282.726 228.278Z" fill="white"/>
<path d="M284.211 226.554C282.19 225.382 280.165 224.267 278.093 223.29C277.051 222.816 276.012 222.349 274.943 221.981C273.898 221.59 272.817 221.303 271.715 221.124C270.661 220.92 269.577 220.927 268.526 221.145C268.021 221.253 267.535 221.437 267.086 221.693C266.865 221.828 266.65 221.975 266.444 222.133L265.792 222.672C264.928 223.354 264.201 224.195 263.653 225.15C263.527 225.373 263.447 225.62 263.42 225.876C263.392 226.131 263.416 226.389 263.491 226.635C263.703 227.156 264.101 227.579 264.608 227.823C264.308 227.76 264.024 227.636 263.773 227.461C263.521 227.285 263.308 227.061 263.146 226.801C262.995 226.512 262.906 226.195 262.883 225.87C262.861 225.545 262.907 225.219 263.017 224.912C263.461 223.765 264.156 222.731 265.051 221.887L265.688 221.254C265.928 221.042 266.182 220.845 266.447 220.664C266.989 220.312 267.583 220.046 268.207 219.875C269.428 219.58 270.696 219.541 271.933 219.76C274.289 220.215 276.544 221.088 278.592 222.338C280.629 223.511 282.515 224.926 284.211 226.554Z" fill="white"/>
<path d="M267.259 222.835C267.993 222.661 268.751 222.621 269.499 222.716C270.26 222.801 271.002 223.014 271.693 223.346C272.391 223.693 272.999 224.196 273.471 224.817C273.931 225.429 274.222 226.151 274.314 226.911C273.978 226.275 273.557 225.688 273.062 225.167C272.571 224.677 272.004 224.271 271.383 223.964C270.077 223.372 268.685 222.99 267.259 222.835Z" fill="white"/>
<path d="M267.881 224.393C268.755 225.051 269.538 225.724 270.36 226.362C270.762 226.691 271.178 226.999 271.594 227.315C272.008 227.637 272.441 227.927 272.87 228.277C271.789 228.078 270.778 227.605 269.931 226.904C269.504 226.565 269.113 226.185 268.761 225.768C268.402 225.356 268.106 224.892 267.881 224.393Z" fill="white"/>
<path d="M291.471 222.067C291.977 221.962 292.495 221.933 293.009 221.981C293.525 222.019 294.035 222.117 294.528 222.275C295.032 222.431 295.506 222.669 295.933 222.979C296.372 223.282 296.708 223.713 296.896 224.213C296.127 223.623 295.25 223.188 294.315 222.933C293.399 222.624 292.448 222.406 291.471 222.067Z" fill="white"/>
<path d="M299.191 214.467C299.604 214.345 300.037 214.306 300.466 214.35C300.896 214.388 301.319 214.488 301.72 214.647C302.126 214.815 302.499 215.053 302.822 215.35C303.146 215.648 303.384 216.026 303.514 216.447C303.152 216.198 302.84 215.971 302.499 215.782C302.162 215.597 301.814 215.432 301.458 215.286C300.742 214.99 299.996 214.768 299.191 214.467Z" fill="white"/>
<path d="M287.108 226.911C287.356 226.69 287.649 226.524 287.966 226.424C288.277 226.319 288.601 226.261 288.928 226.249C289.262 226.227 289.598 226.274 289.913 226.388C290.227 226.502 290.515 226.68 290.758 226.911C290.413 226.926 290.119 226.915 289.822 226.92C289.526 226.931 289.239 226.923 288.946 226.94C288.334 226.969 287.72 226.959 287.108 226.911Z" fill="white"/>
<path d="M304.185 210.69C304.599 210.449 305.083 210.358 305.556 210.433C305.795 210.465 306.026 210.541 306.238 210.657C306.438 210.77 306.72 210.992 306.679 211.283C306.488 211.198 306.28 211.159 306.072 211.17C305.872 211.162 305.666 211.141 305.459 211.117C305.009 211.064 304.575 210.919 304.185 210.69Z" fill="white"/>
<path d="M297.034 146.443C297.456 156.19 291.469 171.184 291.469 171.184L296.446 201.413C299.357 205.975 311.474 201.413 311.474 201.413C304.092 196 297.034 146.443 297.034 146.443ZM298.527 200.507C298.258 200.498 298.004 200.384 297.817 200.191C297.631 199.997 297.526 199.739 297.526 199.47C297.526 199.202 297.631 198.943 297.817 198.75C298.004 198.556 298.258 198.443 298.527 198.433C298.796 198.443 299.05 198.556 299.237 198.75C299.423 198.943 299.528 199.202 299.528 199.47C299.528 199.739 299.423 199.997 299.237 200.191C299.05 200.384 298.796 200.498 298.527 200.507ZM303.131 200.881C302.862 200.871 302.608 200.757 302.421 200.564C302.235 200.371 302.13 200.112 302.13 199.844C302.13 199.575 302.235 199.317 302.421 199.123C302.608 198.93 302.862 198.816 303.131 198.807C303.399 198.816 303.654 198.93 303.84 199.123C304.027 199.317 304.131 199.575 304.131 199.844C304.131 200.112 304.027 200.371 303.84 200.564C303.654 200.757 303.399 200.871 303.131 200.881ZM307.486 200.632C307.217 200.622 306.963 200.509 306.776 200.315C306.589 200.122 306.485 199.864 306.485 199.595C306.485 199.326 306.589 199.068 306.776 198.874C306.963 198.681 307.217 198.567 307.486 198.558C307.754 198.567 308.009 198.681 308.195 198.874C308.382 199.068 308.486 199.326 308.486 199.595C308.486 199.864 308.382 200.122 308.195 200.315C308.009 200.509 307.754 200.622 307.486 200.632Z" fill="white"/>
<path d="M263.475 82.6658C263.509 82.2768 263.617 81.8978 263.791 81.5485C263.958 81.1945 264.179 80.8681 264.445 80.5807C264.717 80.2776 265.055 80.0406 265.433 79.8874C265.621 79.805 265.825 79.7623 266.031 79.7617C266.236 79.7612 266.44 79.8029 266.629 79.8843C266.289 79.9856 265.971 80.1476 265.688 80.3624C265.42 80.5687 265.173 80.8 264.949 81.0532C264.468 81.5528 264.039 82.1188 263.475 82.6658Z" fill="white"/>
<path d="M300.996 224.393C300.705 218.83 297.787 209.431 297.787 209.431C293.283 198.784 281.945 201.806 281.945 201.806L282.226 205.798C282.226 205.798 286.764 205.36 287.108 205.982C287.108 205.982 295.529 207.129 296.896 226.911L300.975 224.116" fill="white"/>
<path d="M275.183 95.3517C267.192 98.9808 244.304 128.062 244.304 128.062C244.304 128.062 243.398 136.862 241.456 146.443C239.52 156.017 238.345 201.413 238.345 201.413C259.505 197.922 283.513 97.2251 283.513 97.2251C278.404 92.1788 275.183 95.3517 275.183 95.3517ZM240.419 198.516C240.15 198.507 239.896 198.393 239.709 198.2C239.523 198.006 239.418 197.748 239.418 197.479C239.418 197.21 239.523 196.952 239.709 196.759C239.896 196.565 240.15 196.452 240.419 196.442C240.688 196.452 240.942 196.565 241.129 196.759C241.315 196.952 241.42 197.21 241.42 197.479C241.42 197.748 241.315 198.006 241.129 198.2C240.942 198.393 240.688 198.507 240.419 198.516ZM244.525 194.534C244.256 194.525 244.002 194.411 243.815 194.218C243.629 194.025 243.524 193.766 243.524 193.498C243.524 193.229 243.629 192.97 243.815 192.777C244.002 192.584 244.256 192.47 244.525 192.461C244.794 192.47 245.048 192.584 245.235 192.777C245.421 192.97 245.526 193.229 245.526 193.498C245.526 193.766 245.421 194.025 245.235 194.218C245.048 194.411 244.794 194.525 244.525 194.534ZM249.129 188.562C248.86 188.552 248.606 188.439 248.419 188.246C248.233 188.052 248.128 187.794 248.128 187.525C248.128 187.256 248.233 186.998 248.419 186.805C248.606 186.611 248.86 186.498 249.129 186.488C249.398 186.498 249.652 186.611 249.839 186.805C250.025 186.998 250.13 187.256 250.13 187.525C250.13 187.794 250.025 188.052 249.839 188.246C249.652 188.439 249.398 188.552 249.129 188.562ZM249.585 131.526C249.071 131.792 248.499 131.927 247.919 131.92C247.341 131.916 246.772 131.781 246.253 131.526C245.744 131.284 245.302 130.921 244.968 130.468C245.886 130.935 246.896 131.195 247.926 131.228C248.422 131.235 248.917 131.165 249.392 131.021C249.899 130.87 250.395 130.685 250.878 130.468C250.535 130.916 250.092 131.278 249.585 131.526ZM252.986 182.216C252.718 182.207 252.463 182.093 252.276 181.9C252.09 181.706 251.986 181.448 251.986 181.179C251.986 180.91 252.09 180.652 252.276 180.459C252.463 180.265 252.718 180.152 252.986 180.142C253.255 180.152 253.509 180.265 253.696 180.459C253.883 180.652 253.987 180.91 253.987 181.179C253.987 181.448 253.883 181.706 253.696 181.9C253.509 182.093 253.255 182.207 252.986 182.216ZM256.221 174.875C255.953 174.865 255.698 174.752 255.512 174.559C255.325 174.365 255.221 174.107 255.221 173.838C255.221 173.569 255.325 173.311 255.512 173.117C255.698 172.924 255.953 172.811 256.221 172.801C256.49 172.811 256.744 172.924 256.931 173.117C257.118 173.311 257.222 173.569 257.222 173.838C257.222 174.107 257.118 174.365 256.931 174.559C256.744 174.752 256.49 174.865 256.221 174.875ZM258.834 168.28C258.566 168.271 258.311 168.157 258.125 167.964C257.938 167.77 257.834 167.512 257.834 167.243C257.834 166.975 257.938 166.716 258.125 166.523C258.311 166.329 258.566 166.216 258.834 166.206C259.103 166.216 259.357 166.329 259.544 166.523C259.731 166.716 259.835 166.975 259.835 167.243C259.835 167.512 259.731 167.77 259.544 167.964C259.357 168.157 259.103 168.271 258.834 168.28ZM261.447 161.188C261.179 161.178 260.924 161.065 260.738 160.871C260.551 160.678 260.447 160.42 260.447 160.151C260.447 159.882 260.551 159.624 260.738 159.43C260.924 159.237 261.179 159.124 261.447 159.114C261.716 159.124 261.97 159.237 262.157 159.43C262.344 159.624 262.448 159.882 262.448 160.151C262.448 160.42 262.344 160.678 262.157 160.871C261.97 161.065 261.716 161.178 261.447 161.188V161.188ZM260.659 132.023C259.975 131.679 259.409 131.137 259.035 130.468C260.099 131.393 261.476 131.878 262.885 131.823C263.573 131.762 264.25 131.608 264.897 131.367C265.229 131.242 265.547 131.09 265.885 130.952C266.203 130.786 266.528 130.62 266.874 130.468C266.625 130.738 266.341 130.986 266.065 131.242C265.761 131.465 265.445 131.67 265.118 131.857C264.44 132.227 263.69 132.449 262.92 132.507C262.137 132.55 261.356 132.383 260.659 132.023ZM264.185 154.22C263.916 154.21 263.662 154.097 263.475 153.903C263.288 153.71 263.184 153.452 263.184 153.183C263.184 152.914 263.288 152.656 263.475 152.462C263.662 152.269 263.916 152.156 264.185 152.146C264.453 152.156 264.708 152.269 264.894 152.462C265.081 152.656 265.185 152.914 265.185 153.183C265.185 153.452 265.081 153.71 264.894 153.903C264.708 154.097 264.453 154.21 264.185 154.22ZM266.798 146.879C266.529 146.869 266.275 146.756 266.088 146.562C265.901 146.369 265.797 146.111 265.797 145.842C265.797 145.573 265.901 145.315 266.088 145.121C266.275 144.928 266.529 144.814 266.798 144.805C267.066 144.814 267.321 144.928 267.507 145.121C267.694 145.315 267.798 145.573 267.798 145.842C267.798 146.111 267.694 146.369 267.507 146.562C267.321 146.756 267.066 146.869 266.798 146.879ZM269.411 139.413C269.142 139.403 268.888 139.29 268.701 139.097C268.514 138.903 268.41 138.645 268.41 138.376C268.41 138.107 268.514 137.849 268.701 137.656C268.888 137.462 269.142 137.349 269.411 137.339C269.679 137.349 269.934 137.462 270.12 137.655C270.307 137.849 270.411 138.107 270.411 138.376C270.411 138.645 270.307 138.903 270.12 139.097C269.934 139.29 269.679 139.403 269.411 139.413V139.413ZM272.273 131.574C272.004 131.564 271.75 131.451 271.563 131.258C271.376 131.064 271.272 130.806 271.272 130.537C271.272 130.268 271.376 130.01 271.563 129.817C271.75 129.623 272.004 129.51 272.273 129.5C272.541 129.51 272.796 129.623 272.982 129.817C273.169 130.01 273.274 130.268 273.274 130.537C273.274 130.806 273.169 131.064 272.982 131.258C272.796 131.451 272.541 131.565 272.273 131.574V131.574ZM274.512 124.233C274.244 124.223 273.989 124.11 273.803 123.916C273.616 123.723 273.512 123.465 273.512 123.196C273.512 122.927 273.616 122.669 273.803 122.475C273.989 122.282 274.244 122.169 274.512 122.159C274.781 122.168 275.035 122.282 275.222 122.475C275.409 122.669 275.513 122.927 275.513 123.196C275.513 123.465 275.409 123.723 275.222 123.916C275.035 124.11 274.781 124.223 274.512 124.233V124.233ZM276.752 116.021C276.483 116.011 276.229 115.898 276.042 115.704C275.856 115.511 275.751 115.252 275.751 114.984C275.751 114.715 275.856 114.457 276.042 114.263C276.229 114.07 276.483 113.956 276.752 113.947C277.021 113.956 277.275 114.07 277.462 114.263C277.649 114.456 277.753 114.715 277.753 114.984C277.753 115.252 277.649 115.511 277.462 115.704C277.275 115.898 277.021 116.011 276.752 116.021V116.021ZM278.867 108.182C278.599 108.172 278.344 108.059 278.157 107.865C277.971 107.672 277.866 107.413 277.866 107.145C277.866 106.876 277.971 106.618 278.157 106.424C278.344 106.231 278.599 106.117 278.867 106.108C279.136 106.117 279.39 106.231 279.577 106.424C279.764 106.617 279.868 106.876 279.868 107.145C279.868 107.414 279.764 107.672 279.577 107.865C279.39 108.059 279.136 108.172 278.867 108.182V108.182ZM281.231 99.5961C280.963 99.5865 280.708 99.4731 280.522 99.2797C280.335 99.0862 280.231 98.8279 280.231 98.5592C280.231 98.2904 280.335 98.0321 280.522 97.8387C280.708 97.6453 280.963 97.5318 281.231 97.5223C281.5 97.5318 281.754 97.6452 281.941 97.8386C282.128 98.032 282.232 98.2903 282.232 98.5592C282.232 98.828 282.128 99.0863 281.941 99.2797C281.754 99.4731 281.5 99.5866 281.231 99.5961L281.231 99.5961Z" fill="white"/>
<path d="M237.308 134.312C237.577 134.303 237.831 134.189 238.018 133.996C238.205 133.803 238.309 133.544 238.309 133.275C238.309 133.006 238.205 132.748 238.018 132.554C237.831 132.361 237.577 132.248 237.308 132.238C237.039 132.248 236.784 132.361 236.597 132.554C236.411 132.748 236.306 133.006 236.306 133.275C236.306 133.544 236.411 133.803 236.597 133.996C236.784 134.189 237.039 134.303 237.308 134.312Z" fill="white"/>
<path d="M241.289 134.395C241.558 134.386 241.813 134.272 242 134.079C242.187 133.886 242.291 133.627 242.291 133.358C242.291 133.089 242.187 132.831 242 132.637C241.813 132.444 241.558 132.331 241.289 132.321C241.021 132.331 240.766 132.444 240.579 132.637C240.392 132.831 240.288 133.089 240.288 133.358C240.288 133.627 240.392 133.886 240.579 134.079C240.766 134.272 241.021 134.386 241.289 134.395Z" fill="white"/>
<path d="M278.949 135.308C279.218 135.298 279.473 135.185 279.66 134.992C279.847 134.798 279.951 134.54 279.951 134.271C279.951 134.002 279.847 133.743 279.66 133.55C279.473 133.356 279.218 133.243 278.949 133.234C278.681 133.243 278.426 133.356 278.239 133.55C278.052 133.743 277.948 134.002 277.948 134.271C277.948 134.54 278.052 134.798 278.239 134.992C278.426 135.185 278.681 135.298 278.949 135.308Z" fill="white"/>
<path d="M284.342 134.81C284.61 134.801 284.865 134.688 285.052 134.494C285.239 134.301 285.343 134.042 285.343 133.773C285.343 133.504 285.239 133.246 285.052 133.052C284.865 132.859 284.61 132.746 284.342 132.736C284.073 132.746 283.818 132.859 283.631 133.052C283.444 133.246 283.34 133.504 283.34 133.773C283.34 134.042 283.444 134.301 283.631 134.494C283.818 134.688 284.073 134.801 284.342 134.81Z" fill="white"/>
<path d="M290.231 134.644C290.5 134.635 290.755 134.521 290.941 134.328C291.128 134.135 291.233 133.876 291.233 133.607C291.233 133.338 291.128 133.08 290.941 132.886C290.755 132.693 290.5 132.58 290.231 132.57C289.962 132.58 289.708 132.693 289.521 132.886C289.334 133.08 289.229 133.338 289.229 133.607C289.229 133.876 289.334 134.135 289.521 134.328C289.708 134.521 289.962 134.635 290.231 134.644Z" fill="white"/>
<path d="M295.955 134.312C296.224 134.303 296.478 134.189 296.665 133.996C296.852 133.803 296.956 133.544 296.956 133.275C296.956 133.006 296.852 132.748 296.665 132.554C296.478 132.361 296.224 132.248 295.955 132.238C295.686 132.248 295.431 132.361 295.244 132.554C295.058 132.748 294.953 133.006 294.953 133.275C294.953 133.544 295.058 133.803 295.244 133.996C295.431 134.189 295.686 134.303 295.955 134.312Z" fill="white"/>
<path d="M238.552 305.027C238.821 305.018 239.075 304.905 239.262 304.711C239.449 304.518 239.554 304.259 239.554 303.991C239.554 303.722 239.449 303.463 239.262 303.27C239.075 303.076 238.821 302.963 238.552 302.954C238.283 302.963 238.028 303.076 237.842 303.27C237.655 303.463 237.55 303.722 237.55 303.991C237.55 304.259 237.655 304.518 237.842 304.711C238.028 304.905 238.283 305.018 238.552 305.027Z" fill="white"/>
<path d="M245.271 302.539C245.54 302.529 245.795 302.416 245.981 302.223C246.168 302.029 246.273 301.771 246.273 301.502C246.273 301.233 246.168 300.974 245.981 300.781C245.795 300.587 245.54 300.474 245.271 300.465C245.002 300.474 244.748 300.587 244.561 300.781C244.374 300.974 244.27 301.233 244.27 301.502C244.27 301.771 244.374 302.029 244.561 302.223C244.748 302.416 245.002 302.529 245.271 302.539Z" fill="white"/>
<path d="M252.364 300.921C252.632 300.912 252.887 300.798 253.074 300.605C253.261 300.411 253.365 300.153 253.365 299.884C253.365 299.615 253.261 299.357 253.074 299.163C252.887 298.97 252.632 298.856 252.364 298.847C252.095 298.856 251.84 298.97 251.653 299.163C251.466 299.357 251.362 299.615 251.362 299.884C251.362 300.153 251.466 300.411 251.653 300.605C251.84 300.798 252.095 300.912 252.364 300.921Z" fill="white"/>
<path d="M260.575 300.05C260.844 300.041 261.099 299.927 261.286 299.734C261.473 299.54 261.577 299.282 261.577 299.013C261.577 298.744 261.473 298.486 261.286 298.292C261.099 298.099 260.844 297.985 260.575 297.976C260.307 297.985 260.052 298.099 259.865 298.292C259.678 298.486 259.574 298.744 259.574 299.013C259.574 299.282 259.678 299.54 259.865 299.734C260.052 299.927 260.307 300.041 260.575 300.05Z" fill="white"/>
<path d="M268.415 299.926C268.684 299.917 268.938 299.803 269.125 299.61C269.312 299.416 269.417 299.158 269.417 298.889C269.417 298.62 269.312 298.362 269.125 298.168C268.938 297.975 268.684 297.861 268.415 297.852C268.146 297.861 267.891 297.975 267.704 298.168C267.518 298.362 267.413 298.62 267.413 298.889C267.413 299.158 267.518 299.416 267.704 299.61C267.891 299.803 268.146 299.917 268.415 299.926Z" fill="white"/>
<path d="M276.129 300.299C276.398 300.29 276.653 300.176 276.839 299.983C277.026 299.789 277.131 299.531 277.131 299.262C277.131 298.993 277.026 298.735 276.839 298.541C276.653 298.348 276.398 298.234 276.129 298.225C275.86 298.234 275.606 298.348 275.419 298.541C275.232 298.735 275.127 298.993 275.127 299.262C275.127 299.531 275.232 299.789 275.419 299.983C275.606 300.176 275.86 300.29 276.129 300.299Z" fill="white"/>
<path d="M283.968 301.419C284.237 301.41 284.491 301.296 284.678 301.103C284.865 300.91 284.97 300.651 284.97 300.382C284.97 300.113 284.865 299.855 284.678 299.661C284.491 299.468 284.237 299.355 283.968 299.345C283.699 299.355 283.444 299.468 283.258 299.661C283.071 299.855 282.966 300.113 282.966 300.382C282.966 300.651 283.071 300.91 283.258 301.103C283.444 301.296 283.699 301.41 283.968 301.419Z" fill="white"/>
<path d="M292.429 302.414C292.698 302.405 292.952 302.292 293.139 302.098C293.326 301.905 293.431 301.646 293.431 301.377C293.431 301.108 293.326 300.85 293.139 300.656C292.952 300.463 292.698 300.35 292.429 300.34C292.16 300.35 291.905 300.463 291.719 300.656C291.532 300.85 291.427 301.108 291.427 301.377C291.427 301.646 291.532 301.905 291.719 302.098C291.905 302.292 292.16 302.405 292.429 302.414Z" fill="white"/>
<path d="M300.268 302.912C300.537 302.902 300.792 302.789 300.979 302.596C301.165 302.402 301.27 302.144 301.27 301.875C301.27 301.606 301.165 301.347 300.979 301.154C300.792 300.961 300.537 300.847 300.268 300.838C299.999 300.847 299.745 300.961 299.558 301.154C299.371 301.347 299.267 301.606 299.267 301.875C299.267 302.144 299.371 302.402 299.558 302.596C299.745 302.789 299.999 302.902 300.268 302.912Z" fill="white"/>
<path d="M308.356 302.663C308.625 302.654 308.88 302.541 309.066 302.347C309.253 302.154 309.358 301.895 309.358 301.626C309.358 301.357 309.253 301.099 309.066 300.905C308.88 300.712 308.625 300.599 308.356 300.589C308.087 300.599 307.833 300.712 307.646 300.905C307.459 301.099 307.354 301.357 307.354 301.626C307.354 301.895 307.459 302.154 307.646 302.347C307.833 302.541 308.087 302.654 308.356 302.663Z" fill="white"/>
</svg>
